<?xml version="1.0" standalone="no"?>
<!DOCTYPE svg PUBLIC "-//W3C//DTD SVG 1.1//EN" "http://www.w3.org/Graphics/SVG/1.1/DTD/svg11.dtd" >
<svg xmlns="http://www.w3.org/2000/svg">
<metadata></metadata>
<defs>
<font id="marujo_shadow_1shadow1" horiz-adv-x="1014" >
<font-face units-per-em="2048" ascent="1638" descent="-410" />
<missing-glyph horiz-adv-x="516" />
<glyph horiz-adv-x="0" />
<glyph unicode="&#xd;" horiz-adv-x="682" />
<glyph unicode=" "  horiz-adv-x="516" />
<glyph unicode="&#x09;" horiz-adv-x="516" />
<glyph unicode="&#xa0;" horiz-adv-x="516" />
<glyph unicode="!" horiz-adv-x="400" d="M10 1274v54v26q0 24 16 24h36v-10v-54q0 -150 16 -416q16 -250 16 -504q0 -14 3 -96t3 -98q0 -18 22 -18q4 0 17 1t23 1q6 0 38 1t48 1q0 -40 -26 -40q-6 0 -54 -1t-58 -1t-23 -1t-17 -1q-20 0 -20 18q0 16 -3 96t-3 96q0 222 -18 504q-16 266 -16 418zM44 -40q0 36 6 42 q2 14 24 14q2 0 10 -1t10 -1v-14q6 -138 6 -152q0 -10 40 -10h40h24h46q0 -40 -10 -40h-86h-24q-8 0 -22 -1t-20 -1q-38 0 -38 12q0 14 -6 152z" />
<glyph unicode="&#x22;" horiz-adv-x="614" d="M4 972q0 174 10 290q2 28 8 35t26 7h12h2q2 2 4 2v-4q-10 -116 -10 -288q0 -58 2 -72q0 -8 4 -12t13 -6t18 -2h27t34 -2q6 0 20 -1t22 -1q-4 -20 -6 -28q-4 -14 -44 -14q-8 0 -23 1t-21 1q-16 2 -34 2t-27 1l-18 2t-13 6t-4 13q-2 14 -2 70zM276 1086q0 182 14 194 q4 0 19 1t23 1q-4 -34 -4 -156q0 -34 1 -91t1 -77q0 -6 -1 -14t-1 -11t2 -5t6 -3t14 -3q104 -8 114 -8h10q0 -24 -2 -30q-2 -12 -58 -12q-10 0 -114 8q-10 2 -14 3t-6 4t-3 5t0 11t1 15q0 20 -1 77t-1 91z" />
<glyph unicode="#" horiz-adv-x="1198" d="M-8 506q0 8 52 12q0 -24 4 -40q0 -10 1 -55t1 -57q0 -8 42 -8h58q-20 -72 -44 -155t-37 -129t-17 -60q8 -20 68 -20q22 0 63 3t51 3h4h16h10q-2 -6 -5 -18t-3 -16q-20 0 -32 -3t-22 -3h-16h-4q-10 0 -50 -4t-62 -4q-62 0 -70 22q4 14 17 60t37 129t44 155h-58 q-42 0 -42 8q0 12 -1 56t-1 54q-4 24 -4 70zM72 846q0 8 52 12q0 -30 2 -38q0 -10 3 -55t3 -57q0 -10 40 -10q10 0 36 2t40 2q-6 -26 -20 -71t-20 -67q-4 0 -17 -1t-21 -1q10 32 26 100q-14 0 -40 -2t-36 -2q-40 0 -40 10q0 12 -2 56t-2 54q-4 24 -4 68zM266 904l110 388 q0 16 18 16q14 0 26 -2q-6 -22 -114 -402h-2h-10h-28zM388 338q2 6 5 18t5 18q60 6 64 6q46 2 160 6q-24 -82 -48 -167t-39 -139t-19 -66q8 -20 70 -20q22 0 62 3t50 3h4h16h10q-2 -6 -5 -18t-3 -16q-20 0 -31 -3t-21 -3h-16h-4q-10 0 -51 -4t-63 -4q-62 0 -70 22 q46 154 108 370q-28 0 -84 -1t-76 -3q-4 0 -12 -1t-12 -1zM478 680q2 6 5 18t5 18q36 4 54 4q172 8 178 8q-6 -28 -23 -80t-23 -80h-40q2 8 16 51t20 67q-124 -4 -178 -6h-14zM732 910l110 382q0 16 16 16t28 -2q-6 -26 -23 -83t-44 -149t-47 -164h-40zM854 348q2 8 5 22 t5 20h74q6 0 16 -1t14 -1q0 -8 -1 -22t-1 -16q0 -4 -18 -4q-6 0 -27 1t-35 1h-32zM944 690q2 6 5 20t5 22h64q6 0 16 -1t14 -1q0 -10 -1 -22t-1 -16t-18 -4q-6 0 -27 1t-35 1h-22z" />
<glyph unicode="$" horiz-adv-x="872" d="M-24 236q0 20 37 84t59 70q2 0 6 -4q-52 -74 -52 -110q0 -58 120 -138t204 -106q0 -46 -2 -70q0 -6 -1 -13t-1 -9q0 -14 32 -16h54h38q0 -6 -1 -14t-1 -12q0 -18 -6 -18q-2 0 -8 1t-10 1h-19h-24h-21q-10 0 -27 1t-25 1q-32 2 -32 16v20q4 48 4 72q-84 26 -204 106 t-120 138zM20 972q0 144 126 226q-74 -74 -74 -184q0 -88 52 -184t144 -176q46 -40 66 -52q26 -20 34 -26q-2 -94 -10 -314q-6 0 -10 2q-14 4 -38 16q4 90 8 254q-6 4 -36 28q-22 12 -64 50q-94 82 -146 177t-52 183zM298 1030q22 34 84 54q-2 -76 -6 -224q-30 26 -48 50 q0 22 2 66t2 66q-24 -8 -34 -12zM340 1296q0 38 2 40q2 14 50 14v-30q0 -4 -1 -8t-1 -6q-18 -2 -50 -10zM522 -2v26q74 16 146 64q-2 -2 -4 -5t-5 -5t-5 -4q-62 -52 -132 -76zM528 368q0 16 1 49t1 51q70 -64 70 -124q0 -56 -60 -78q8 16 8 38q0 30 -20 64zM542 1026v58 q76 -20 122 -60q-20 -52 -40 -52q-38 38 -82 54z" />
<glyph unicode="%" horiz-adv-x="1000" d="M-52 -16l678 1320q2 16 22 16q2 0 7 -1t9 -1q-622 -1216 -664 -1292q6 -22 64 -22q22 0 63 4t51 4h6h14q16 0 22 2q-2 -8 -9 -21t-9 -17q-20 0 -32 -3t-22 -3h-14h-8q-10 0 -51 -3t-63 -3q-60 0 -64 20zM-26 1072q0 74 26 118q38 64 92 96q-20 -22 -40 -56 q-28 -46 -28 -118q0 -26 12 -62q18 -58 74 -104q48 -38 98 -48q30 -6 60 -6q40 0 74 14q-4 -4 -10 -11t-8 -9q-34 -34 -106 -34q-40 0 -60 4q-46 10 -98 50q-56 46 -74 104q-12 36 -12 62zM188 1158q16 30 50 40q4 2 10 2q34 0 56 -28q8 -10 12 -30v-8q0 -28 -14 -56 q-16 -34 -48 -40h-4q14 28 14 56v8q-4 16 -12 28q-22 28 -54 28h-10zM428 168q0 74 26 118q40 68 92 98q-20 -22 -40 -56q-26 -44 -26 -120q0 -24 12 -60q18 -58 74 -104q52 -40 98 -50q20 -4 58 -4q44 0 74 12l-18 -18q-36 -36 -106 -36q-40 0 -60 4q-46 10 -98 50 q-56 46 -74 104q-12 36 -12 62zM642 254q16 30 50 40q4 2 12 2q32 0 54 -28q8 -12 12 -28v-8q0 -30 -14 -58q-14 -32 -48 -38h-2q14 28 14 54v4q-2 2 -2 4q-4 20 -12 30q-22 28 -54 28q-2 0 -5 -1t-5 -1z" />
<glyph unicode="&#x26;" horiz-adv-x="1170" d="M-28 382q0 174 156 280q-106 -100 -106 -238q0 -30 2 -44q14 -120 110 -230q110 -126 332 -146q16 -2 52 -2q98 0 180 32q48 -36 136 -54q48 -10 104 -10q34 0 74 4v-8q0 -26 2 -28h-4q-2 0 -44 -5t-80 -5q-56 0 -104 10q-80 16 -134 56q-82 -32 -182 -32q-34 0 -50 2 q-104 10 -194 49t-140 95q-92 108 -108 232q-2 14 -2 42zM64 1220q0 8 4 12q26 12 48 16q8 -66 59 -240t87 -258q-20 -10 -56 -30q-40 100 -91 276t-51 224zM284 514q28 34 76 54q124 -216 186 -312q2 -6 11 -16t11 -16q-40 -20 -64 -22q0 2 -4 7t-4 7q-72 112 -186 310 q-10 -4 -26 -12zM372 1052q0 40 26 40q12 0 111 7t147 7h20q6 0 6 -24q0 -12 -2 -42t-2 -42q0 -26 6 -26h22h66q12 0 37 -1t35 -1q0 -8 1 -18t1 -12q0 -14 -10 -14q-2 0 -15 2t-23 2h-78q-70 0 -88 2q-6 0 -6 24q0 12 2 42t2 42q0 24 -6 24h-20q-52 0 -232 -12zM556 758 q0 20 52 20q0 -16 5 -75t5 -75q0 -18 34 -18q36 0 58 2q2 -18 2 -50q0 -94 -24 -170q-4 6 -8 14t-11 18t-11 18q4 48 4 78q0 34 -2 52q-22 -2 -60 -2h-14h-6l-12 24q0 18 -6 83t-6 81zM924 578v38q68 2 98 6v-14v-8q0 -18 -34 -18q-4 0 -64 -4z" />
<glyph unicode="'" horiz-adv-x="362" d="M4 900q0 94 10 274q4 130 22 130h22h12q-2 -14 -3 -47t-1 -43q-10 -180 -10 -274q0 -12 9 -15t40 -3t51 -2q4 0 11 -1t16 -3t13 -2q-2 -10 -8 -30q-4 -12 -30 -12q-8 0 -28 3t-26 3q-16 2 -35 2t-29 1t-19 2t-13 5t-4 12z" />
<glyph unicode="(" horiz-adv-x="566" d="M-4 488q0 346 68 536t246 322q-148 -126 -205 -311t-57 -507q0 -146 78 -351t154 -263q78 -60 122 -76q-8 -22 -12 -40q-2 -6 -16 -6q-34 0 -144 82q-76 58 -155 263t-79 351zM380 1098q12 10 26 24q10 10 34 22q-2 -8 -10 -16t-13 -11t-19 -10z" />
<glyph unicode=")" horiz-adv-x="556" d="M-34 8q0 8 4 12q94 70 157 200t63 302q0 452 -96 562q-4 4 -4 6q-6 6 -16 15t-12 11q-12 12 -37 22t-39 23t-14 37v42q0 78 2 112q2 44 34 44q10 0 16 -2v-2q-2 -34 -2 -112v-40q0 -24 14 -37t39 -23t37 -22q2 -2 13 -12t17 -16l4 -6q96 -110 96 -560q0 -172 -64 -302 t-158 -200q-4 -4 -4 -12q0 -20 12 -62t30 -92t20 -58q2 -6 14 -6q28 0 116 60q-4 -4 -12 -10t-10 -8q-110 -82 -146 -82q-12 0 -14 6q-2 8 -19 58t-29 91t-12 61z" />
<glyph unicode="*" horiz-adv-x="528" d="M-62 892q0 6 4 8q14 6 46 32q0 -4 3 -9t9 -14t10 -17q22 -30 28 -32q18 12 144 102v-130q0 -14 58 -18q0 -42 -10 -42q-98 0 -98 18v132q-126 -90 -144 -102q-4 -2 -9 4t-19 28q-4 8 -10 17t-9 14t-3 9zM-30 1136q4 12 29 42t35 30h4q-14 -16 -18 -30q2 -18 74 -90 q4 -4 46 -40q-22 -12 -54 -38q-4 4 -13 11t-16 13t-13 12q-72 72 -74 90zM132 1212v22v20l2 8q0 12 6 15t36 5h8v-24v-24l-2 -10v-48q-2 2 -14 8t-18 12q-6 4 -18 16zM290 952v14q6 -6 46 -59t50 -59q0 -2 2 -2q-40 -40 -50 -40h-4q-6 6 -42 52v16q0 14 -1 41t-1 37z M306 1158v20q30 30 42 32q-6 -8 -16 -20t-16 -20t-10 -12z" />
<glyph unicode="+" horiz-adv-x="912" d="M14 704q0 12 52 16q0 -28 4 -44q0 -10 1 -54t1 -56q0 -8 42 -8q14 0 27 1t31 1h12q56 0 164 12q10 -144 10 -218q0 -14 -1 -35t-1 -27q0 -16 4 -16q12 0 54 -3t52 -3h22v-32q0 -8 -12 -8h-60q-12 0 -54 3t-52 3q-4 0 -4 16q0 6 1 27t1 35q0 44 -12 216q-108 -12 -162 -12 h-14q-18 0 -30 -1t-26 -1q-44 0 -44 8q0 12 -1 56t-1 54q-4 24 -4 70zM270 928q0 40 8 40q4 0 19 1t25 1v-2q0 -14 1 -30t1 -34q0 -52 8 -140q-8 0 -26 -1t-28 -1q-6 96 -6 100q0 18 -1 35t-1 31zM534 586q152 8 184 8h30v-38q0 -6 -18 -6q-6 0 -27 1t-35 1q-48 0 -132 -4 q0 4 -1 17t-1 21z" />
<glyph unicode="," horiz-adv-x="462" d="M-8 2v42q0 156 42 156l20 2q-10 -38 -10 -118v-40q0 -44 10 -48q6 -2 25 -3t44 -3t39 -4q10 -2 10 -26q0 -36 -10 -52t-32 -46t-24 -34q-22 -26 -18 -40q6 -18 44 -18h18q36 0 76 18q-52 -58 -128 -58h-18q-38 0 -44 16q-4 12 20 42l54 78q10 16 10 52q0 24 -10 26 q-14 2 -39 4t-44 3t-25 3q-10 6 -10 48z" />
<glyph unicode="-" horiz-adv-x="712" d="M6 630q0 18 52 22q0 -16 5 -67t5 -67q0 -36 5 -45t21 -9h30q102 0 232 9t174 9h22h8v-26q0 -16 -58 -16h-22q-44 0 -174 -8t-232 -8h-30q-18 0 -23 10t-5 44q0 18 -5 77t-5 75z" />
<glyph unicode="." horiz-adv-x="330" d="M-12 48v10q8 94 54 118q2 0 8 4t10 4q-18 -34 -22 -84v-10q0 -44 27 -76t67 -36q10 -2 28 -2q24 0 42 6q-12 -18 -28 -28q-24 -18 -66 -18h-28q-40 4 -66 36t-26 76z" />
<glyph unicode="/" horiz-adv-x="926" d="M-58 -26q62 116 175 314t194 350t151 312q0 2 78 171t78 171q2 16 20 16h20q-14 -30 -52 -112t-65 -142t-27 -62q-70 -160 -151 -312t-194 -352t-175 -314q6 -20 64 -20q22 0 63 3t51 3h6h14q12 0 24 4q-4 -6 -11 -19t-9 -19q-20 0 -32 -3t-22 -3h-16h-6q-10 0 -51 -4 t-63 -4q-58 0 -64 22z" />
<glyph unicode="0" horiz-adv-x="1060" d="M-32 708q0 114 44 240q20 60 76 128q26 26 62 50l-10 -10q-58 -70 -76 -126q-46 -130 -46 -240q0 -36 2 -54q24 -238 98 -360q206 -328 416 -328q28 0 42 2q6 2 19 6t19 4q56 12 114 50q-80 -74 -164 -90q-6 0 -20 -4t-20 -6q-14 -2 -40 -2q-210 0 -416 326 q-74 120 -98 362q-2 18 -2 52zM350 928q54 64 152 64q78 0 138 -48t80 -132q16 -52 16 -110q0 -120 -46 -246t-98 -164q-10 -8 -22 -10q46 60 80 169t34 211q0 64 -14 108q-20 84 -81 132t-139 48q-56 0 -100 -22z" />
<glyph unicode="1" horiz-adv-x="634" d="M-8 1096q0 28 8 39t44 25v-24q0 -174 20 -194q4 -4 14 -4q12 0 30 8t42 21t32 17l112 56v-4q6 -88 6 -168q0 -390 -18 -794q-4 -60 2 -60q18 0 92 -1t110 -1q0 -40 -6 -40q-28 0 -124 1t-122 1q-6 0 -2 58q16 360 16 796q0 110 -4 168v4q-14 -8 -52 -28t-60 -30 q-94 -44 -106 -44q-10 0 -14 4q-20 20 -20 194z" />
<glyph unicode="2" horiz-adv-x="928" d="M-10 188q0 62 8 102q12 54 50 124t74 106q54 54 124 108q8 8 20 16q-54 -44 -92 -82q-36 -36 -74 -106t-50 -124q-10 -50 -10 -102q0 -76 13 -145t29 -83q36 -28 250 -48t378 -22l2 -40h-24q-152 0 -386 20t-272 50q-16 14 -28 82t-12 144zM30 978q0 34 42 94 q74 128 152 178q-50 -48 -102 -138q-40 -58 -40 -92q0 -14 8 -16q32 -14 90 -51t72 -45q-2 -4 -5 -9t-5 -7q-6 -4 -13 -13t-13 -13t-14 0q-18 10 -75 46t-89 50q-8 2 -8 16zM384 436q2 10 70 50q162 88 216 126q-14 -14 -22 -20q-86 -64 -244 -148l-10 -4zM388 1066 q36 48 92 48q46 0 81 -33t43 -91q0 -6 1 -16t1 -14q0 -58 -23 -90t-69 -62q42 46 42 112q0 4 -2 13t-2 15q-8 58 -43 92t-81 34q-22 0 -40 -8z" />
<glyph unicode="3" horiz-adv-x="1024" d="M-8 -10q0 12 1 33t1 31v20t1 16t1 11t2 9l5 5t9 4l12 2t16 3h2q2 2 4 2v-32q0 -10 -1 -31t-1 -33q0 -116 18 -146q2 -2 8 -2q12 0 41 4t66 11t49 9q340 52 494 158q-94 -84 -226 -128t-320 -72q-12 -2 -49 -9t-66 -11t-41 -4q-6 0 -8 2q-18 30 -18 148zM2 1060v20 q10 132 24 188q10 40 24 40q16 0 28 -2q-12 -54 -24 -186v-18q0 -20 14 -20q2 0 12 1t20 1q18 0 68 3t78 3q120 0 214 -34q42 -16 42 -70q0 -50 -34 -78q-28 -24 -42 -34q24 26 24 70q0 58 -40 72q-88 32 -216 32q-28 0 -77 -3t-67 -3q-10 0 -20 -1t-14 -1q-14 0 -14 20z M96 662q0 28 4 76q10 42 16 44h24h12v-4q-4 -48 -4 -76q0 -74 8 -122q2 0 10 3t14 3q242 -6 376 -38q38 -10 56 -18t37 -28t19 -50q0 -4 -1 -10t-1 -8q-26 -112 -116 -168q46 50 64 128q0 2 1 8t1 10q0 30 -19 50t-37 28t-56 18q-126 30 -374 36q-6 0 -15 -3t-11 -3 q-8 48 -8 124zM558 780q12 8 14 10q-2 -2 -6 -5t-6 -5h-2z" />
<glyph unicode="4" horiz-adv-x="872" d="M-14 656v14v172v6q2 36 2 112v140v94v38v10q0 20 2 28t11 14t31 6h6v-8v-8v-40v-94v-138q0 -78 -2 -114v-6v-172v-14q0 -10 1 -16t1 -10t3 -6t5 -3t10 -3t12 -4q80 -24 412 -28q6 0 25 1t25 1q0 -50 -4 -138q-6 -100 -14 -358v-2q0 -10 -5 -63t-5 -77v-10q16 -26 84 -26 q10 0 34 1t36 1q14 0 26 -2v-36q0 -6 -22 -6q-12 0 -33 2t-23 2q-12 0 -36 -1t-34 -1q-70 0 -84 24v12q0 24 5 76t5 62v2q6 152 16 358q4 88 4 140q-6 0 -26 -1t-26 -1q-338 4 -412 26q-24 8 -27 12t-3 32zM480 846q6 72 17 217t19 205q8 24 16 24t32 -6q-6 -50 -17 -199 t-21 -241h-24h-8h-14z" />
<glyph unicode="5" horiz-adv-x="832" d="M-10 212q0 10 3 19l5 15t10 16t10 13t14 14t14 13q32 32 54 44l-4 -4q-2 -2 -16 -15t-17 -17t-11 -15t-10 -20t-2 -21q0 -34 18 -66q62 -132 194 -194q78 -30 142 -30q92 0 164 48q-94 -90 -216 -90q-64 0 -142 30q-130 62 -194 196q-16 30 -16 64zM28 994q0 34 1 109 t1 123q0 32 20 48q10 8 28 8h6q-2 -4 -2 -14q0 -48 -1 -124t-1 -110q0 -32 4 -136q4 -46 4 -144v-74q0 -70 6 -70q46 0 118 4t98 4q68 0 111 -19t77 -75q38 -68 38 -134q0 -62 -28 -112t-72 -72q50 60 50 142q0 66 -40 136q-34 56 -77 75t-111 19q-26 0 -97 -4t-117 -4 q-6 0 -6 70v72q0 76 -6 144q-4 104 -4 138zM316 1060v8q0 4 1 14t1 16q16 4 52 4h52h16q132 6 180 12q12 2 38 2v-2q0 -18 -4 -30q-2 -4 -15 -6t-35 -2t-34 -2q-86 -10 -180 -14h-18h-50h-4z" />
<glyph unicode="6" d="M-10 634q0 210 50 375t160 233q-160 -160 -160 -566q0 -178 34 -352q40 -190 130 -278t306 -110q4 0 12 -1t12 -1q102 0 202 66q-116 -106 -252 -106q-4 0 -13 1t-13 1q-216 22 -306 109t-130 277q-32 164 -32 352zM274 680q14 10 16 10l-4 -4t-2 -4q-4 -4 -6 -4t-4 2z M316 440q80 78 176 78q12 0 40 -4q70 -14 113 -64t43 -118q0 -60 -36 -126q-16 -26 -52 -40q36 62 36 124q0 68 -42 119t-112 65q-28 4 -42 4q-62 0 -124 -38zM384 1064l16 16q66 52 126 52q64 0 106 -58q18 -24 39 -58t32 -49t21 -15h6q18 4 112 24q20 4 26 8 q-8 -26 -78 -48q-94 -20 -112 -24h-4q-10 0 -21 15t-32 48t-39 57q-44 60 -106 60q-48 0 -92 -28z" />
<glyph unicode="7" horiz-adv-x="776" d="M-8 1174q0 90 28 130h32q-8 -26 -8 -90q0 -44 8 -100q4 -10 122 -10q44 0 119 2t87 2h12h14h12q-18 -68 -40 -136t-68 -204t-88 -262q-108 -342 -122 -388q-2 -8 -7 -26t-9 -26l-24 -76v-4q-2 -2 -2 -4q0 -28 108 -28h42h34h4h2q0 -4 -4 -13t-4 -13q-4 -14 -46 -14h-4 h-32h-44q-108 0 -108 26q0 2 2 8l24 76q2 8 5 17t7 20t6 17q30 100 120 386q40 124 87 263t69 206t40 135h-12h-14h-10q-12 0 -88 -3t-120 -3q-116 0 -122 12q-8 56 -8 100z" />
<glyph unicode="8" horiz-adv-x="832" d="M-10 278q0 24 4 64q4 24 8 44t12 40t12 34t16 32t17 27t21 27t21 24t25 27t24 27q4 4 10 12t8 10q-48 44 -84 108q-58 94 -58 202q0 96 42 181t120 135q-110 -106 -110 -274q0 -110 58 -204q36 -64 84 -108l-20 -20q-54 -60 -73 -83t-45 -78t-36 -123q-6 -60 -6 -62 q0 -164 100 -276t254 -112q16 0 56 4q54 6 100 26q16 6 44 22q-44 -44 -94 -64q-40 -16 -100 -24q-40 -4 -58 -4q-154 0 -253 111t-99 275zM310 1104q38 56 112 56q54 0 78 -46q12 -24 12 -54q0 -100 -120 -246q-2 2 -5 6t-5 6q78 110 78 194q0 30 -12 54q-24 44 -78 44 q-32 0 -60 -14zM342 498l46 46l12 -12q54 -52 90 -108l18 -32q30 -54 30 -102q0 -90 -82 -130q32 38 32 90q0 42 -32 100l-18 32q-38 62 -90 110z" />
<glyph unicode="9" horiz-adv-x="958" d="M-62 944q0 130 70 240q50 86 112 122q-28 -28 -60 -82q-70 -110 -70 -238q0 -162 103 -279t263 -117q70 0 136 6q88 0 114 32q0 -10 -1 -37t-1 -43q0 -70 -9 -274t-9 -276q0 -22 80 -22h30q4 0 12 -1t14 -1q38 0 54 2q0 -12 -4 -28q0 -16 -100 -16q-4 0 -12 1t-14 1h-32 q-80 0 -80 22q0 72 9 277t9 275q0 16 1 43t1 37q-26 -32 -114 -32q-88 -8 -134 -8q-160 0 -264 117t-104 279zM260 1102q12 16 20 22q82 54 152 54q76 0 127 -53t51 -141v-12q-4 -68 -19 -108t-59 -56q24 38 28 124v10q0 88 -51 141t-129 53q-56 0 -120 -34z" />
<glyph unicode=":" horiz-adv-x="404" d="M-8 186v36v38q2 26 5 48t3 48q0 74 18 74q2 0 14 -1t20 -1v-30q0 -26 -4 -48t-4 -48v-40v-34q0 -36 138 -36q34 0 68 6q-4 -32 -14 -34q-42 -12 -104 -12q-140 0 -140 34zM6 712q0 14 3 65t3 57v12v8q0 6 2 14t4 28t4 28t6 20t9 19t11 9q4 0 28 4q-2 -12 -5 -34t-5 -32 q-2 -8 -2 -16v-8v-12q0 -6 -3 -56t-3 -64q0 -32 40 -32q6 0 26 1t32 1h44q32 0 46 2q-2 -14 -10 -28t-86 -14h-46q-12 0 -31 -1t-25 -1q-42 0 -42 30z" />
<glyph unicode=";" horiz-adv-x="404" d="M-22 430q0 116 76 148q-26 -42 -26 -106q0 -50 30 -84t76 -40q10 -2 32 -2q30 0 52 8q-12 -18 -28 -28q-28 -20 -76 -20q-22 0 -32 2q-46 6 -75 39t-29 83zM6 44q0 70 8 99t36 29h12q-4 -22 -4 -88q0 -104 12 -104t39 3t41 3h18q10 -2 10 -26q0 -36 -10 -52t-31 -44 l-27 -36q-14 -22 -14 -38q0 -18 24 -20q46 0 82 16q-44 -56 -132 -56q-24 2 -24 18q0 18 14 40q4 6 25 34t31 44t10 52q0 24 -10 26h-18q-14 0 -41 -3t-39 -3t-12 106z" />
<glyph unicode="&#x3c;" horiz-adv-x="912" d="M-10 566q0 6 7 14t14 14t19 15t16 11q-6 -6 -6 -14q0 -10 21 -27t56 -40t39 -25q28 -22 78 -54t62 -40l40 -26q56 -42 130 -84l22 -14q108 -68 204 -130l26 -16q6 -4 20 -11l22 -11q0 -8 1 -20t1 -18q0 -28 -6 -28q-4 0 -38 20q-8 4 -25 13t-25 13l-26 16 q-136 88 -206 132l-20 12q-82 46 -132 84l-38 26q-8 6 -61 40t-81 56q-2 2 -38 25t-56 40t-20 27zM404 606q46 38 103 76t146 90t111 66q-2 -10 -28 -26q-32 -20 -102 -60t-127 -76t-103 -70z" />
<glyph unicode="=" horiz-adv-x="714" d="M6 612q0 18 52 18q12 -102 12 -112q0 -54 18 -54h16q102 0 242 9t184 9q6 0 16 -1t14 -1v-28q0 -16 -24 -16q-6 0 -25 2t-31 2q-44 0 -184 -8t-242 -8h-18q-18 0 -18 54q0 18 -6 68t-6 66zM6 750q0 10 2 76t2 76q0 18 52 22q0 -22 -2 -75t-2 -59q0 -10 16 -10q6 0 29 2 t39 2q46 0 83 1t98 2t135 1q40 0 100 -4q-2 -14 -2 -34q0 -8 -28 -8q-14 0 -56 3t-64 3q-80 0 -170 -2t-148 -2q-16 0 -39 -2t-29 -2q-16 0 -16 10z" />
<glyph unicode="&#x3e;" horiz-adv-x="914" d="M2 1056q0 36 20 36q8 0 32 -10l4 -174q0 -28 5 -36t25 -20q36 -24 120 -72t150 -91t114 -83q-14 -8 -60 -34q-48 40 -112 81t-147 89t-117 70q-2 2 -6 4q-22 30 -24 50zM10 90q0 22 14 190q2 18 4 27t4 12t11 7t13 8q6 4 14 11t10 9q0 -2 -1 -6t-2 -12t-1 -14 q-14 -168 -14 -190q0 -30 6 -30q2 0 36 20q8 4 26 14t26 14l26 16q38 22 90 60q20 14 116 70l22 14q74 42 130 84l40 26q136 92 138 94q6 4 27 17t31 19q-8 -10 -108 -76q-12 -8 -140 -96l-38 -26q-50 -38 -132 -84l-22 -12q-72 -42 -114 -72q-52 -38 -90 -60l-28 -16 q-8 -4 -25 -13t-25 -13q-34 -20 -38 -20q-6 0 -6 28z" />
<glyph unicode="?" horiz-adv-x="890" d="M-12 1088q4 18 13 37t17 31t22 30t20 28q60 82 116 118q-34 -32 -66 -76q-6 -8 -20 -28t-22 -31t-17 -31t-13 -38q2 -34 36 -44q98 -36 114 -44l-6 -12q-18 -42 -36 -32q-14 8 -124 46q-30 10 -34 46zM168 -32q0 100 56 130l8 4l8 4q-20 -38 -20 -98q0 -46 26 -77t68 -35 q2 0 5 -1t5 -1q4 0 10 1t8 1q30 0 44 4q-14 -22 -28 -30q-20 -16 -68 -16h-18h-10q-40 4 -67 36t-27 78zM170 210v12q0 276 96 390q8 8 67 72t92 105t67 109t34 124q0 38 -10 66q-44 98 -154 98q-36 0 -64 -16q50 56 116 56q110 0 154 -98q10 -28 10 -66q0 -56 -34 -123 t-68 -109t-92 -104t-66 -72q-96 -114 -96 -392q0 -38 6 -42q6 -2 16 -2h10l152 8v-12q0 -18 -6 -22t-28 -6l-170 -10h-10q-16 0 -19 6t-3 28z" />
<glyph unicode="@" horiz-adv-x="1156" d="M-28 610v12q2 134 36 278q28 132 122 242q34 40 88 78q-6 -6 -13 -12t-14 -14t-11 -12q-94 -112 -122 -240q-30 -134 -34 -278v-14q0 -354 204 -582q88 -88 322 -88q174 0 278 46q70 30 110 50q-4 -16 -16 -22q-48 -26 -146 -68q-108 -48 -278 -48q-234 0 -322 88 q-204 228 -204 584zM244 564q0 140 24 210t96 120q0 2 4 2h2q-42 -44 -58 -108t-16 -182q0 -178 114 -246q24 -12 62 -12q64 0 132 42q-6 -8 -20 -22q-82 -60 -164 -60q-36 0 -60 12q-116 70 -116 244zM342 1082q94 94 242 96l2 2h4q114 0 190 -96q112 -138 112 -316 q0 -44 -25 -89t-65 -63q40 54 40 110q0 80 -31 166t-83 150q-78 98 -188 98l-4 -2l-4 -2q-112 -4 -190 -54zM440 774q26 44 68 44q44 0 57 -33t13 -99q0 -184 -78 -196q26 52 26 156q0 64 -13 97t-57 33q-10 0 -16 -2zM522 962q0 14 6 14h4q6 2 8 2q4 0 16 -1t18 -1v-28 q-22 10 -52 14zM644 420q40 44 44 44q2 0 16 -8t36 -17t44 -9h14q102 16 166 58q-78 -78 -218 -98h-12q-30 0 -90 30z" />
<glyph unicode="A" horiz-adv-x="1028" d="M-10 -32q2 24 4 82t2 80q2 70 9 380t13 456v4q8 190 30 328v6q12 18 28 20q4 0 10 -1t10 -1q-18 -130 -26 -310v-4q-6 -146 -13 -456t-9 -382q-2 -22 -5 -81t-3 -81q0 -18 146 -18q8 0 24 1t22 1h12l-4 -40q-2 -2 -60 -2q-6 0 -21 -1t-23 -1q-146 0 -146 20zM294 576 q16 2 48 2q24 0 70 -2t70 -2h28q116 0 162 2q18 -292 28 -518q0 -78 14 -102q4 -6 38 -6q10 0 37 1t39 1h8h58q0 -40 -8 -40h-102h-8q-12 0 -39 -1t-37 -1q-32 0 -36 6q-14 24 -14 100q-6 142 -30 518q-46 -2 -162 -2h-28q-22 0 -66 2t-68 2q0 6 -1 20t-1 20zM314 1086 q2 8 2 23t2 21q10 -2 47 -4t47 -2l40 -4q16 -2 73 -10t91 -10l26 -2q10 0 16 -2q1 -3 1 -6.5t-1 -7.5q-2 -8 0 -14v-68v-242q-30 8 -52 10v190v68q-2 6 0 14t0 14q-6 2 -16 2l-24 2q-34 2 -89 11t-75 11l-42 4h-20t-26 2z" />
<glyph unicode="B" horiz-adv-x="928" d="M-2 692v192q0 36 4 107t4 107v58q0 82 20 96q2 2 14 2q4 0 10 -1t10 -1q-2 -14 -2 -56v-58q0 -36 -4 -106t-4 -106v-192q0 -240 10 -530l10 -250q0 -14 36 -14q10 0 38 1t40 1h12q30 -2 100 -2q54 0 80 2q18 0 83 3t88 5t68 8t74 17t55 27q-2 -2 -7 -6t-7 -6 q-18 -18 -40 -31t-52 -22t-50 -14t-63 -9t-59 -5t-71 -4t-69 -3q-26 -2 -80 -2q-70 0 -100 2h-12q-12 0 -40 -1t-38 -1q-38 0 -38 14l-10 250q-10 290 -10 528zM292 370q4 52 8 52q20 -6 71 -16t88 -19t81 -24t71 -37t35 -50q2 -12 2 -32q0 -62 -58 -78q6 14 6 36t-2 34 q-4 18 -17 33t-35 27t-41 21t-53 18t-51 13t-56 12t-49 10zM292 986v48q84 -8 151 -44t83 -100v-24q0 -4 1 -10t1 -8q0 -18 -8 -46h-2q-20 -42 -72 -72q10 14 20 32h2q8 28 8 46v18v24q-24 100 -184 136z" />
<glyph unicode="C" horiz-adv-x="948" d="M-40 704q0 104 14 158q40 152 162 244q4 2 10 6q-92 -90 -122 -208q-14 -54 -14 -158q0 -338 150 -534t448 -196q92 0 192 30h6q0 -4 -2 -8t-2 -6q-4 -14 -36 -22q-10 -4 -16 -6q-92 -28 -192 -28q-300 0 -449 195t-149 533zM318 946q82 90 298 90q24 0 71 -4t63 -4 q-10 -40 -22 -40q-30 0 -83 4t-79 4q-166 0 -248 -50z" />
<glyph unicode="D" horiz-adv-x="876" d="M-4 940v140q0 78 4 198q0 10 50 10q-2 -52 -2 -168v-140q0 -92 2 -209t6 -254t6 -201q0 -16 1 -46t1 -46v-48v-98v-66q0 -20 40 -20q10 0 38 2t42 2q34 0 82 12q134 34 212 84q6 4 17 12t17 12q-26 -24 -86 -64q-80 -52 -210 -84q-56 -14 -82 -14q-14 0 -42 -2t-38 -2 q-42 0 -42 22v64v100v46q0 14 -1 46t-1 46q-2 64 -6 201t-6 255t-2 210zM278 1010q0 30 2 44q118 0 199 -63t81 -171q0 -6 -1 -20t-1 -20q0 -156 -55 -286t-145 -200q-2 -4 -10 -8q-6 -4 -10 -6q78 74 122 194q44 122 46 266q0 6 1 19t1 19q0 94 -65 156t-165 76z" />
<glyph unicode="E" horiz-adv-x="872" d="M-24 1082q0 110 4 172q-2 4 -2 12q0 24 22 28q10 2 30 2v-2q-4 -62 -4 -172q0 -104 18 -276q18 -164 35 -467t21 -363q0 -12 9 -20t25 -11t31 -3t36 -1t31 -1q48 -4 76 -4q34 0 101 3t103 3h34q18 -2 60 -2q16 0 50 1t50 1h36q-8 -44 -26 -44q-18 2 -60 2q-16 0 -50 -1 t-50 -1q-42 0 -60 2h-36q-36 0 -103 -3t-101 -3q-28 0 -76 4q-10 0 -31 1t-35 2t-30 4t-25 11t-9 20q-2 34 -21 348t-37 480q-16 154 -16 278zM270 1094q0 4 1 15t1 17q26 6 64 9t89 4t69 3q26 2 76 5t74 3q6 0 22 1t24 1l-2 -40q-12 0 -48 -1t-48 -1q-26 -2 -76 -5t-74 -3 q-20 -2 -81 -3t-91 -5zM300 542v46q50 -6 108 -6q20 0 57 1t55 1q8 0 28 -1t30 -1h18q10 0 34 1t36 1h6q-6 -44 -14 -44q-12 2 -44 2q-12 0 -36 -1t-34 -1h-18q-10 0 -30 1t-28 1q-18 0 -55 -1t-57 -1q-38 0 -56 2z" />
<glyph unicode="F" horiz-adv-x="782" d="M0 0v422v138v62q0 124 5 349t5 335q0 14 52 20q0 -106 -5 -324t-5 -338v-64v-138v-422v-42q0 -22 82 -22h30h10q16 0 40 -4q0 -4 -1 -11t-1 -9q-6 -24 -30 -24q-6 0 -26 3t-34 3h-10h-30q-82 0 -82 22v44zM262 600v30q150 34 276 40q-4 -42 -18 -42q-122 0 -258 -28z M278 1092q0 6 1 18t1 18v2h2q26 2 82 2h38h122q16 0 64 1t72 1q-6 -40 -24 -40q-22 0 -81 -1t-81 -1h-124h-36h-36z" />
<glyph unicode="G" horiz-adv-x="1124" d="M-26 562q0 72 8 122q20 154 116 292t220 230q-108 -92 -188 -219t-98 -263q-8 -50 -8 -122q0 -160 48 -276q84 -206 268 -295t468 -89q72 0 146 6q-10 -40 -26 -40q-88 -6 -170 -6q-286 0 -470 88t-268 294q-46 110 -46 278zM426 498q0 4 1 12t1 14v18q0 100 12 100h40 v-58v-18q0 -6 -1 -15t-1 -13q0 -60 44 -66q20 -4 137 -8t141 -14q4 -12 4 -28q0 -8 -1 -23t-1 -19q-4 -126 -20 -224q-30 0 -44 2q10 76 14 182v42q0 22 -2 28q-24 10 -141 13t-137 7q-46 6 -46 68zM470 1048q116 106 244 106q70 0 150 -40q6 -2 30 -15t34 -19 q-14 -46 -36 -46q-6 0 -21 8t-34 19t-23 13q-76 38 -150 38q-102 0 -194 -64z" />
<glyph unicode="H" horiz-adv-x="1066" d="M0 114v42v32q0 68 1 251t3 251q0 26 1 80t1 82q0 76 -1 220t-1 204q12 2 52 2q0 -58 1 -188t1 -198q0 -28 -1 -81t-1 -79q-2 -68 -3 -251t-1 -251v-34v-40q0 -84 6 -164q0 -42 72 -42l88 8q0 -2 2 -6q2 -6 2 -16q0 -14 -52 -18q-88 -8 -92 -8q-72 0 -72 40q-6 82 -6 164z M270 588q4 42 6 42q6 0 18 -1t18 -1q34 0 99 5t101 5h14q44 0 90 -3t80 -3q8 0 16 -149t14 -305t8 -164q6 -18 98 -18q40 0 96 4v-12q0 -24 -6 -24q-120 -10 -142 -10q-92 0 -98 20q-2 8 -7 164t-13 305t-16 149q-34 0 -80 3t-90 3h-16q-34 0 -96 -5t-94 -5zM648 1112 q0 98 12 150q2 8 46 12q-8 -50 -8 -120q0 -26 1 -78t1 -76v-36v-42q0 -62 4 -90q-24 -4 -38 -4h-16v52v44v34q0 24 -1 76t-1 78z" />
<glyph unicode="I" horiz-adv-x="382" d="M-28 -52v158q4 350 36 828q2 44 8 114t8 134q0 46 4 54q2 10 50 14q0 -6 -1 -12t-1 -10v-6q-2 -64 -8 -134t-8 -114q-34 -516 -38 -826v-158q0 -8 30 -8q12 0 53 2t61 2h10h64q0 -42 -8 -42h-40h-68h-10q-20 0 -61 -2t-53 -2q-28 0 -28 8z" />
<glyph unicode="J" horiz-adv-x="1008" d="M-14 360q0 8 1 22t1 20q0 122 20 122h4h30q-4 -48 -4 -82q0 -8 -1 -21t-1 -19q0 -248 76 -354q72 -102 194 -120q60 -10 118 -10q56 0 86 10q26 8 48 24q-44 -44 -100 -64q-30 -10 -86 -10q-58 0 -118 10q-120 18 -192 118q-76 106 -76 354zM32 1112v12v62q0 34 16 34 q4 0 36 4v-58v-12q0 -34 12 -77t20 -43q4 -2 20 -2q14 0 44 6t42 6q54 2 147 15t129 17q6 0 16 2t16 4q2 -8 2 -26q-4 -120 -4 -184q0 -20 1 -58t1 -58q0 -14 -1 -44t-1 -44q0 -20 1 -62t1 -64q0 -136 -21 -223t-87 -127h-2l-4 -2q64 80 64 312q0 22 -1 63t-1 61q0 14 1 44 t1 44q0 20 -1 60t-1 58q0 64 4 184q0 16 -2 24q-4 0 -16 -2t-18 -4q-32 -2 -126 -15t-150 -15q-12 0 -42 -6t-44 -6t-18 2q-8 0 -21 43t-13 75zM756 1086q6 2 26 8q20 4 59 9t57 7h2q0 -6 1 -13t1 -11q0 -8 -56 -16q-14 -2 -43 -7t-45 -7q0 4 -1 14t-1 16z" />
<glyph unicode="K" horiz-adv-x="1016" d="M-4 -50q0 628 28 1258l2 28l2 114h52q0 -52 -2 -72l-2 -28q-28 -630 -28 -1258q12 -12 150 -12h68q0 -42 -10 -42h-26h-82q-140 0 -152 12zM312 488q0 12 1 36t1 36v8q4 -2 11 -3t13 -2t6 -3q72 -112 166 -283t110 -197q34 -60 62 -96q10 -12 112 -12q46 0 110 4 q10 -16 10 -28q0 -18 -170 -18q-104 0 -114 12q-22 28 -60 96q-24 42 -109 196t-149 254zM320 804v30q48 68 142 226t158 244q8 4 24 4q-50 -70 -152 -244t-172 -260z" />
<glyph unicode="L" horiz-adv-x="870" d="M-6 886q0 38 4 206t4 184q0 20 28 20h6q4 0 8 -1t8 -1q-6 -234 -6 -366q0 -8 1 -26t1 -26l2 -32q14 -542 20 -652v-24q0 -10 1 -77t3 -83q14 -22 94 -22q26 0 80 3t78 3h12l30 -2q292 -4 368 -14h10h2q-14 -42 -54 -42h-10q-76 10 -366 14l-32 2h-12q-24 0 -78 -3t-80 -3 q-78 0 -94 24q-2 16 -3 82t-1 76v26q-6 112 -20 650l-2 34q0 8 -1 25t-1 25z" />
<glyph unicode="M" horiz-adv-x="1546" d="M-10 -74q0 20 1 65t1 69q0 6 3 53t3 73v458q0 8 1 28t1 30v88v44q0 42 2 60q0 312 32 350q2 2 10 2q12 0 26 -8q-16 -78 -16 -302q-2 -18 -2 -62q0 -8 -1 -23t-1 -21q0 -14 1 -42t1 -44q0 -8 -1 -30t-1 -30v-456q0 -20 -1 -41t-3 -46t-2 -41q0 -24 -2 -68t-2 -64 q0 -14 112 -14h54q10 0 34 4q0 -14 -4 -26q-18 -18 -80 -18h-56q-110 0 -110 12zM290 800v76q78 -58 208 -136l72 -56q140 -112 192 -142q28 -16 40 -16q6 0 38 16q10 4 42 28q-46 -40 -94 -68q-32 -16 -36 -16q-14 0 -42 16q-52 30 -192 142l-72 54q-108 68 -156 102z M1160 742v64l16 16l18 18l16 16v-74q0 -20 1 -61t1 -61v-662q0 -12 50 -12h42q6 0 17 -1t17 -1h68v-6q0 -36 -8 -36h-112q-6 0 -16 1t-16 1h-44q-48 0 -48 12v662q0 20 -1 62t-1 62z" />
<glyph unicode="N" horiz-adv-x="1348" d="M-6 1174q0 122 18 130q8 0 36 -18q-2 -20 -2 -72q0 -92 6 -194q6 -118 8 -345t2 -267q0 -8 1 -29t1 -31q0 -34 -2 -105t-2 -107v-38l4 -102q0 -8 32 -8q12 0 96 6h6q20 0 52 -4q0 -8 -1 -20t-1 -16q0 -8 -22 -8q-10 0 -38 3t-40 3h-6q-84 -6 -96 -6q-34 0 -34 8l-4 104 v36q0 36 2 108t2 106q0 10 -1 30t-1 28q0 40 -2 267t-8 345q-6 102 -6 196zM288 844q10 -8 14 -13t7 -11t11 -16q4 -4 12 -16t14 -16q18 -22 57 -59t53 -53l109 -109t107 -109q56 -60 181 -173t183 -177q42 -50 120 -112l4 -2q4 -2 4 -4l-6 -24q-6 -20 -30 -20q-14 0 -24 8 q-66 52 -118 114q-58 64 -184 177t-182 173q-34 38 -106 109t-108 107q-14 16 -54 54t-58 60q-4 76 -6 112zM978 518v12q0 12 6 89t12 155t13 163t14 138t13 53h40q-8 -54 -18 -177t-18 -243t-10 -136q-2 -14 -5 -39t-3 -37q0 -22 -2 -32z" />
<glyph unicode="O" horiz-adv-x="1082" d="M-38 670q0 246 216 400q-166 -150 -166 -360q0 -170 76 -336q84 -172 314 -258q58 -20 158 -20h16q112 0 196 58q-104 -98 -248 -98h-16q-100 0 -158 20q-230 86 -314 258q-74 162 -74 336zM342 870q6 8 22 20q90 66 164 66q76 0 154 -52q98 -82 98 -232q0 -20 -4 -56 q-10 -64 -43 -123t-85 -87q58 64 76 170q0 6 2 17t3 20t1 17q0 148 -100 232q-82 54 -152 54q-64 0 -136 -46z" />
<glyph unicode="P" horiz-adv-x="910" d="M2 -36q0 10 2 24v14q0 6 -1 19t-1 19q0 14 1 39t1 39v392q0 26 -1 80t-1 80v306q0 50 4 159t4 151q4 4 34 4h18q0 -22 -4 -122t-4 -150v-308q0 -26 1 -80t1 -80v-390q0 -12 -1 -38t-1 -40q0 -6 1 -19t1 -19v-14q-2 -14 -2 -24q0 -22 4 -26q2 -20 148 -20h42v-32 q-2 -10 -92 -10q-148 0 -150 20q-4 4 -4 26zM296 512v20v20h18q30 0 46 -2q22 0 70 -2t72 -2q60 0 100 14q40 16 58 28q-46 -46 -110 -70q-34 -12 -100 -12q-24 0 -71 2t-69 2q-2 0 -7 1t-7 1zM314 1082v40h72q118 0 154 -28q54 -50 54 -138q-6 -126 -78 -154q22 36 26 114 q0 88 -52 136q-40 30 -156 30h-20z" />
<glyph unicode="Q" horiz-adv-x="1332" d="M-18 568q0 104 32 182q26 52 86 136q62 82 162 158q-62 -52 -110 -116q-58 -80 -86 -138q-34 -84 -34 -182q0 -152 62 -266l42 -78q-50 -70 -80 -122q-12 -22 -12 -38q0 -22 16 -37t51 -33t45 -26q14 -10 38 -14q-4 -10 -12 -26q-6 -16 -30 -16q-28 0 -48 16 q-10 8 -45 26t-51 33t-16 37q0 16 12 36q34 60 80 124q-8 14 -21 41t-19 37q-62 114 -62 266zM252 46q14 24 32 52q138 -92 312 -92q82 0 168 20q124 28 194 72l-10 -10q-70 -66 -236 -102q-86 -20 -168 -20q-158 0 -292 80zM372 822q34 32 108 80q114 74 232 74 q164 0 230 -148q48 -118 50 -212q0 -52 -14 -102q-6 2 -20 6t-20 6q2 14 2 50q-2 92 -50 210q-66 150 -228 150q-116 0 -234 -76q-12 -8 -32 -22t-24 -16zM476 272q92 56 150 66q40 4 64 4q70 0 156 -20q-10 -10 -26 -22q-24 -16 -34 -18q-80 20 -148 20q-2 0 -62 -6 q-38 -6 -86 -28q-2 0 -7 2t-7 2zM1038 166l44 44q32 -22 66 -52q20 -18 36 -18h8q-12 -12 -18 -16q-30 -26 -42 -26t-34 18q-40 36 -60 50z" />
<glyph unicode="R" horiz-adv-x="1156" d="M-4 1090q0 18 1 56t1 58q0 10 -1 36t-1 36q0 24 2 28q4 12 50 12q0 -10 1 -35t1 -35q0 -18 -1 -58t-1 -58q0 -106 11 -307t11 -295q0 -12 -1 -34t-1 -32q0 -110 6 -222v-82v-34q0 -72 2 -100q8 -12 70 -12q60 0 84 2l56 4q0 -38 -6 -38l-102 -6q-24 -2 -84 -2 q-62 0 -70 12q-2 28 -2 100v32v82q-6 110 -6 224q0 10 1 32t1 34q0 94 -11 295t-11 307zM304 1104q0 4 1 14t1 14q0 2 1 6t1 6h60q10 0 28 1t26 1q52 0 92 -14q28 -10 46 -28q32 -44 32 -112q0 -2 -1 -11t-1 -13q-4 -26 -44 -90q-32 -42 -72 -66q10 10 22 26q38 60 42 90 q0 4 1 12t1 10q0 68 -32 112q-20 20 -46 30q-34 12 -92 12h-52h-14zM330 464q0 8 1 24t1 24q0 4 2 14t2 14v2q138 -110 200 -186q50 -60 62 -72q66 -84 70 -90q24 -38 94 -116v-2h2q60 -78 78 -96q8 -8 32 -8l78 6h12q8 0 30 -1t34 -1h52q6 -12 6 -24q0 -18 -110 -18 q-12 0 -33 1t-29 1h-12l-78 -6q-26 0 -34 8q-18 18 -78 96h-2v2q-64 72 -94 118q-4 6 -70 90l-60 72q-42 52 -156 148zM628 644q42 18 88 50q-36 -34 -78 -60z" />
<glyph unicode="S" horiz-adv-x="898" d="M-14 158q0 22 36 94t58 78q4 0 10 -6q-54 -88 -54 -124q0 -86 123 -173t259 -91h20q142 0 234 54l-10 -10q-90 -84 -274 -84h-22q-136 4 -258 90t-122 172zM40 930v34q16 178 170 282q-106 -100 -118 -240v-36q0 -122 72 -238q12 -20 30 -39t46 -43t36 -32q36 -36 68 -56 q8 -6 166 -122q90 -72 90 -154q0 -74 -68 -100q16 24 16 60q0 82 -90 154q-14 10 -51 35t-67 47t-48 38q-20 12 -66 58q-10 10 -37 32t-46 41t-31 39q-72 116 -72 240zM366 1024q46 62 148 62q88 0 162 -48q-18 -50 -38 -50q-74 56 -176 56q-56 0 -96 -20z" />
<glyph unicode="T" horiz-adv-x="964" d="M-62 1290v20q0 18 44 18h8q0 -16 1 -48t1 -38q0 -74 6 -120q2 -12 20 -12q6 0 26 1t34 1q24 -2 76 -2h40h42h22t7 1t3 1h6t18 1t36 1h14q0 -10 2 -36t2 -34q0 -164 5 -337t15 -394t14 -315q0 -20 114 -20q58 0 84 2q-4 -36 -14 -38q-48 -6 -122 -6q-112 0 -112 20 q-4 104 -14 318t-16 390t-6 340q0 10 -2 35t-2 35h-14q-26 0 -40 -1t-16 -1t-4 -1t-5 -1h-20h-47h-42q-52 0 -76 2q-14 0 -33 -1t-25 -1q-20 0 -22 12q-6 46 -6 118q0 8 -1 40t-1 50zM588 1086v12v28q10 0 75 1t155 1h14h14q0 -16 -8 -40h-58h-14q-56 0 -112 -1t-66 -1z" />
<glyph unicode="U" horiz-adv-x="1112" d="M-12 722v38v72q0 180 10 300q10 78 18 86q4 4 16 4q2 0 11 -1t13 -1q-4 -40 -6 -46q-12 -144 -12 -300q0 -72 2 -110l6 -198q12 -240 98 -376q54 -90 154 -156q110 -66 224 -66h64q110 0 196 56q-106 -98 -246 -98h-66q-110 0 -224 68q-96 64 -152 156q-88 140 -100 374z M588 294q94 94 124 242q24 124 24 344v78v284v8q0 4 12 4h40v-254v-78q0 -208 -26 -344q-16 -82 -63 -164t-111 -120z" />
<glyph unicode="V" horiz-adv-x="1288" d="M-70 1184v3q0 4 4 6q6 3 20 3q24 0 36 -2q34 -104 146 -306q22 -38 65 -119t67 -121q22 -36 62 -104t56 -96q10 -14 34 -56t38 -64q2 -2 52 -85t93 -143t67 -68q-18 -28 -40 -42h-6q-14 0 -38 25t-51 66t-51 80t-47 78t-29 47q-14 22 -40 65t-34 57q-18 28 -56 96 t-60 102q-24 40 -68 122t-66 120q-118 204 -154 336zM620 568q4 10 16 29t14 23q22 36 60 114t62 114q20 32 68 118t78 130q4 6 18 30t22 38t23 31t27 25q8 4 14 4q-14 -20 -54 -88q-28 -44 -76 -129t-68 -119q-24 -36 -62 -113t-62 -113t-62 -122q-2 4 -8 14t-10 14z" />
<glyph unicode="W" horiz-adv-x="1666" d="M-80 1112q0 10 10 22l14 12q6 6 28 6q0 -4 1 -9t3 -13l4 -16q194 -626 336 -976q10 -34 32 -89t28 -69q2 -2 7 -17t10 -26t16 -23t23 -16q-28 -44 -38 -44q-16 0 -30 12t-19 23t-12 29t-7 20q-6 18 -29 71t-33 87q-140 342 -336 978l-4 16t-3 13t-1 9zM460 452 q6 14 18 46q44 124 129 339t99 253q18 50 54 50h2q-2 -2 -2 -5t-2 -5q-14 -38 -100 -253t-130 -339q-16 -44 -52 -124q-6 10 -16 38zM822 710q20 52 30 82q0 -2 3 -6t5 -8q66 -144 244 -443t252 -401l6 -6q-16 -48 -36 -48q-12 0 -22 14q-70 98 -238 379t-244 437zM1222 550 q60 526 70 612q2 12 22 136l44 -4q-2 -12 -7 -44t-7 -48q-46 -386 -82 -726q-4 8 -18 33t-22 41z" />
<glyph unicode="X" horiz-adv-x="1180" d="M-38 26q0 12 30 48q66 92 174 254q24 34 65 85t65 85q14 20 33 45t30 43t21 38q-94 154 -258 396q-14 16 -50 86l-58 90v4q0 20 58 26l50 -80q32 -60 52 -86q176 -256 258 -394q-6 -14 -84 -128q-24 -34 -66 -85t-66 -85q-108 -162 -174 -254q-28 -34 -28 -46 q0 -10 15 -21t40 -23t48 -22t51 -21t36 -15q-30 -46 -38 -46h-2q-4 2 -61 24t-99 44t-42 38zM542 400q18 26 40 54l2 -2v-2q98 -112 278 -392q4 -10 18 -33t22 -27q6 -2 20 -2q22 0 50 11t59 27t43 20q2 0 6 2q4 -4 4 -8v-4q0 -4 -3 -8t-11 -7t-14 -5t-16 -6t-16 -6 q-12 -4 -43 -20t-60 -27t-51 -11q-12 0 -18 2q-8 4 -23 27t-19 33q-188 290 -268 384zM590 830q44 58 56 80q36 48 87 128t77 116q4 6 23 34t29 42q4 4 10 4q8 0 14 -2q-4 -6 -12 -19t-12 -19q-26 -36 -77 -116t-87 -128q-10 -20 -35 -50t-43 -60l-20 -26q-2 4 -10 16z" />
<glyph unicode="Y" horiz-adv-x="1076" d="M-68 1208q0 24 54 30q70 -136 187 -315t185 -251v-194v-68q4 -104 4 -156q0 -112 6 -220l4 -54q12 -12 138 -12h42q0 -32 -8 -40q-2 0 -33 -1t-53 -1q-124 0 -136 12q-4 40 -4 56q-6 108 -6 218q0 52 -4 156v68v194q-68 72 -186 253t-188 315q-2 4 -2 10zM490 900 q32 38 115 144t135 170q22 32 42 34l2 -2q-44 -56 -109 -139t-107 -135t-72 -84z" />
<glyph unicode="Z" horiz-adv-x="1172" d="M-18 182q0 54 20 74q6 8 26 23t26 23q10 10 30 28t36 33t30 29q10 10 109 108t131 132t105 112t121 138t86 118h-4q-26 0 -76 -3t-76 -3q-18 0 -226 -21t-280 -21q-48 0 -48 8q0 22 -4 93t-4 97v46q0 40 12 40h38v-44q0 -26 5 -97t5 -93q0 -8 48 -8q72 0 280 20t226 20 q26 0 76 3t76 3h4q-38 -58 -87 -120t-118 -135t-109 -114t-130 -130t-110 -109q-14 -14 -30 -29t-36 -33t-30 -28q-8 -8 -25 -23t-25 -23q-22 -22 -22 -72q0 -10 1 -31t1 -31v-92q0 -8 7 -12t21 -6t25 -3t31 -1h28h42h86h750q0 -42 -16 -42h-784h-86h-44h-27t-31 1t-25 3 t-20 6t-7 12v92q0 10 -1 31t-1 31z" />
<glyph unicode="[" horiz-adv-x="558" d="M6 664q0 420 6 618q0 18 1 70t1 70q0 22 52 22q0 -20 -1 -62t-1 -58q-6 -198 -6 -620q0 -468 8 -642q0 -8 2 -72t4 -86q2 -16 70 -16h36h8q68 -2 116 -2q10 0 30 1t58 1h44h6q-4 -34 -10 -38q-8 -4 -48 -4h-44q-38 0 -58 -1t-30 -1q-46 0 -114 2h-10h-36q-68 0 -70 16 q-2 22 -4 86t-2 72q-8 174 -8 644zM270 1246v40h36q26 0 37 1t55 1q16 0 40 4v-18q0 -26 -92 -26q-42 0 -54 -1t-22 -1z" />
<glyph unicode="\" horiz-adv-x="904" d="M-86 1290q0 10 58 14q16 -52 65 -166t59 -132l2 -2q4 -6 28 -54q96 -198 276 -542t210 -402q20 0 33 -3t23 -3h14h6q10 0 51 -3t63 -3h4q2 -4 6 -11t6 -9q-6 -22 -66 -22q-22 0 -64 4t-52 4h-6h-14q-10 0 -22 3t-32 3q-30 58 -210 402t-276 542q-20 40 -28 52l-2 2 q-12 20 -72 160t-60 166z" />
<glyph unicode="]" horiz-adv-x="564" d="M-20 1354q0 76 12 84q12 6 40 6q-2 -14 -2 -50q0 -58 4 -114q2 -24 3 -33t8 -15t21 -6q64 0 194 -14q6 -54 6 -128q0 -24 -1 -69t-1 -67v-34q-10 -750 -10 -830h-34h-18q2 294 10 788v36q0 22 2 66t2 68q0 58 -8 130q-130 14 -194 14q-24 0 -28 22q0 4 -2 32 q-4 56 -4 114zM-16 14q0 18 52 24q2 -26 2 -78v-58q0 -14 8 -14h4h262h28q8 0 30 -1t30 -1h8v-20q0 -22 -60 -22q-8 0 -30 1t-30 1h-28h-262h-4q-6 0 -6 14v58q0 10 -2 47t-2 49z" />
<glyph unicode="^" horiz-adv-x="758" d="M2 1260q0 2 2 4q14 10 50 34q0 -2 32 -52q48 -72 58 -72h2q8 2 44 30q8 6 30 23t35 26t33 22t39 23t39 16q4 0 35 -33t43 -51q56 -70 64 -72q16 0 108 62q-4 -12 -38 -32q-104 -72 -120 -72h-2q-6 0 -17 14t-27 36t-18 24q-12 18 -43 51t-35 33q-24 -8 -51 -24t-40 -24 t-47 -34t-38 -28q-38 -30 -46 -32h-2q-10 0 -58 72q-32 52 -32 56z" />
<glyph unicode="_" horiz-adv-x="866" d="M16 -110q0 16 52 20q0 -12 5 -51t5 -55q0 -36 5 -45t21 -9h32q102 0 298 8t240 8h22h8q0 -6 -1 -14t-1 -10q0 -16 -56 -16h-24q-44 0 -240 -8t-298 -8h-30q-18 0 -23 9t-5 43q0 18 -5 65t-5 63z" />
<glyph unicode="`" horiz-adv-x="582" d="M30 1160q0 16 58 56q4 2 10 8t10 8q-26 -22 -26 -32q14 -32 92 -92q104 -90 122 -104q8 -6 20 -6q2 0 10 2t12 0q44 -4 92 -4h50q14 -18 14 -24q0 -18 -116 -18q-48 0 -92 4q-4 2 -12 0t-10 -2q-8 0 -18 6q-16 12 -124 106q-78 60 -92 92z" />
<glyph unicode="a" d="M-6 610q0 40 3 119t3 121v40q0 48 4 144v48q0 20 -1 61t-1 57q0 74 14 74h38v-32q0 -16 1 -58t1 -62v-46q-4 -96 -4 -144v-42q0 -42 -3 -120t-3 -118q0 -102 5 -343t5 -339q0 -26 160 -26h20v-20q0 -22 -28 -22q-4 0 -19 1t-25 1q-160 0 -160 24q0 98 -5 339t-5 343z M284 510q4 0 4 8q2 2 8 2q42 6 86 6q36 0 99 -4t83 -4h46h62h16q0 -2 3 -19t3 -27q0 -46 7 -206t7 -226q0 -32 74 -32q6 0 22 1t22 1q10 2 30 2h30q0 -22 -4 -26q-10 -10 -25 -13t-47 -3h-36q-6 0 -20 -1t-22 -1q-74 0 -74 32q0 66 -7 225t-7 205q0 10 -4 26t-4 22h-16h-60 h-48q-20 0 -82 4t-98 4q-30 0 -46 -2q0 6 -1 14t-1 12zM290 998v18v22q28 0 101 3t111 3q78 0 128 -4h32q0 -6 1 -18t1 -18v-60v-104v-56v-32q-30 6 -52 6v40v106v58q0 6 -1 19t-1 19h-30q-50 4 -130 4q-32 0 -90 -3t-70 -3z" />
<glyph unicode="b" horiz-adv-x="1092" d="M6 -18v370q8 542 24 756q2 16 4 46t4 44q18 128 30 130q2 0 9 1t13 1h12q-4 -26 -12 -90q-2 -16 -4 -46t-4 -46q-16 -214 -24 -754v-372q0 -12 5 -20t17 -11t24 -4t32 -2t36 -3q72 -12 194 -12q318 0 502 126q-182 -168 -552 -168q-124 0 -196 12q-16 2 -36 4t-32 3 t-24 4t-17 11t-5 20zM268 492q6 42 18 42q226 -8 302 -36q110 -42 110 -132q0 -56 -74 -100q24 26 24 60q0 86 -112 130q-76 28 -268 36zM302 1102q2 8 5 23t3 21q22 -4 62 -4q182 -4 256 -50q68 -56 68 -128q0 -22 -10 -56q-20 -38 -36 -60v-2h-2q-20 -22 -64 -52q2 2 6 5 t6 5h2v2q16 22 36 60q12 40 12 58q0 70 -68 126q-78 48 -256 52h-20zM770 688q20 8 40 22q-10 -10 -30 -26q-2 0 -5 2t-5 2z" />
<glyph unicode="c" horiz-adv-x="1062" d="M-22 596q0 218 146 434q76 112 170 180q-62 -52 -118 -138q-146 -216 -146 -436q0 -64 16 -144q14 -68 54 -154q74 -158 210 -246q96 -56 284 -86q70 -14 168 -14q94 0 162 14q4 2 13 4t13 2q0 -8 -4 -16q-4 -14 -74 -30q-76 -16 -162 -16q-88 0 -168 16q-188 30 -284 86 q-134 88 -208 244q-44 94 -56 154q-16 80 -16 146zM428 976q118 102 228 102q50 0 132 -22q-14 -48 -22 -48h-2q-90 28 -160 28q-96 0 -176 -60z" />
<glyph unicode="d" horiz-adv-x="970" d="M16 744q0 354 4 510v12q4 92 24 92q4 0 14 -1t16 -1q-2 -14 -2 -50v-12q-4 -156 -4 -510q0 -258 4 -650v-140q8 -22 100 -22q132 0 228 26q156 48 256 120q-112 -100 -308 -162q-96 -26 -228 -26q-92 0 -100 22v140q-4 392 -4 652zM300 1010v24v30q106 -22 207 -97 t119 -169q6 -42 6 -88q0 -136 -52 -260t-144 -180q68 68 107 177t39 223q0 46 -6 88q-18 80 -98 150t-178 102z" />
<glyph unicode="e" horiz-adv-x="994" d="M-4 74q0 70 5 237t5 187v158q0 54 3 158t3 156v334q0 10 52 14v-306q0 -52 -3 -157t-3 -159v-158q0 -20 -5 -187t-5 -237q0 -72 4 -76q28 -28 524 -28h88h30h50q18 0 70 4q8 2 44 2q-4 -30 -8 -34t-22 -6t-40 -2h-26q-52 -4 -70 -4h-48h-32h-88q-496 0 -524 28 q-4 4 -4 76zM312 578q0 8 1 23t1 23q96 -14 306 -14h6h66h8h4v-2q0 -32 -10 -32q-2 0 -22 -3t-22 -3h-8h-66h-6q-40 0 -128 4t-130 4zM314 1038v38q12 0 39 2t41 2q46 0 135 -1t131 -1q18 0 52 1t50 1q62 0 94 2q-4 -40 -22 -40q-12 0 -61 -2t-63 -2q-16 0 -50 -1t-52 -1 q-42 0 -131 1t-135 1h-28z" />
<glyph unicode="f" horiz-adv-x="770" d="M-2 1266q0 62 12 62h40v-22q0 -14 1 -46t1 -48v-12v-104v-138v-26q0 -132 7 -377t7 -381q0 -26 3 -88t3 -86q0 -2 1 -4t4 -4t6 -3t8 -2t10 -1h12t13 -1t15 -1h15q8 0 38 -1t46 -1h20q0 -26 -6 -32q-10 -10 -66 -10q-16 0 -46 1t-38 1q-84 4 -84 18q0 24 -3 86t-3 88 q0 136 -7 380t-7 376v28v136v106v12q0 16 -1 48t-1 46zM272 1138q4 2 12 2q28 2 84 2h56q24 0 70 2t72 2h8h48q0 -40 -12 -40h-88h-8q-26 0 -72 -2t-70 -2h-54h-44q0 24 -2 36zM290 624q54 6 114 6q14 0 46 -1t48 -1q32 0 96 4h24q0 -40 -10 -40h-66q-64 -4 -96 -4 q-16 0 -48 1t-46 1q-40 0 -60 -2q0 22 -2 36z" />
<glyph unicode="g" horiz-adv-x="1182" d="M-24 608q0 216 70 395t202 269q-108 -100 -165 -265t-57 -357q0 -232 74 -381t224 -261q102 -78 272 -98q62 -8 168 -8q190 0 274 30q-2 -8 -12 -18q-54 -54 -314 -54q-106 0 -168 8q-166 20 -272 100q-150 112 -223 260t-73 380zM436 1068l18 18q104 78 216 78 q14 0 28 -2t23 -4t23 -7t20 -7t20 -11t17 -10t18 -11t17 -12h2q54 -38 98 -60q-24 -46 -32 -46q-12 0 -55 24t-63 40h-2q-2 2 -17 12t-18 11t-17 10t-20 11t-20 7t-23 7t-23 4t-28 2q-102 0 -182 -54zM468 486v32q0 6 2 14t2 14v48q0 58 30 58q2 0 9 -1t11 -1v-16v-46 q0 -4 -1 -14t-1 -14v-34q0 -24 9 -33t33 -9h16q184 -10 284 -10q2 0 8 1t10 1q0 -38 4 -112t4 -112q0 -28 -2 -42q-8 -22 -50 -36q0 6 1 18t1 18q0 38 -4 112t-4 112q-4 0 -10 -1t-8 -1q-100 0 -286 10h-16q-42 0 -42 44z" />
<glyph unicode="h" horiz-adv-x="1176" d="M-4 1280q0 16 52 22q0 -32 3 -98t3 -100q0 -4 -1 -16t-1 -16v-40q0 -54 5 -161t5 -161q0 -6 -1 -16t-1 -16v-12q0 -214 8 -498v-16q0 -20 -1 -66t-1 -60q0 -24 36 -24q6 0 24 1t28 1q2 0 7 -1t7 -1q12 0 38 2t38 2v-10q0 -20 -5 -25t-25 -5h-12q-14 0 -43 -2t-43 -2 q-2 0 -7 1t-7 1q-10 0 -27 -1t-23 -1q-38 0 -38 24q0 14 1 59t1 65v16q-8 284 -8 498v12q0 4 1 16t1 18q0 54 -5 161t-5 161v38q0 6 1 16t1 16q0 38 -3 111t-3 107zM286 512v22v2q0 20 104 20q82 0 158 -10q42 -4 123 -9t105 -7q18 0 54 -4q6 -72 6 -112q-2 -50 -3 -151 t-1 -151q-2 -34 -2 -148q0 -18 106 -18h44h42v-24q0 -16 -34 -16h-58h-46q-106 0 -106 16q0 116 2 150q0 50 1 150t3 150q0 42 -6 114q-36 4 -54 4q-22 2 -103 7t-123 9q-60 8 -160 8q-36 0 -52 -2zM762 772q4 64 4 94q0 74 2 108q2 22 2 107t4 140t12 55q20 4 40 4 q-4 -36 -4 -137t-2 -127q-2 -34 -2 -108q0 -20 -2 -62t-2 -64v-16h-6q-24 0 -46 6z" />
<glyph unicode="i" horiz-adv-x="388" d="M-22 1214q0 124 14 124h40q-4 -44 -4 -82q0 -120 18 -138q6 -6 38 -6q12 0 30 1t20 1h8q6 0 24 -1t30 -1h24q0 -24 -4 -28q-12 -12 -70 -12q-12 0 -31 1t-25 1h-8q-2 0 -20 -1t-30 -1q-32 0 -38 6q-16 16 -16 136zM2 864q0 84 8 86h42h2v-44q0 -22 1 -49t1 -46v-21v-46 q18 -412 20 -514q6 -254 12 -294q8 -18 80 -18q44 0 66 2h14v-26q-8 -14 -50 -14h-16q-22 -2 -66 -2q-72 0 -80 18q-6 40 -12 292q-2 102 -20 514v48v20t-1 45t-1 49z" />
<glyph unicode="j" horiz-adv-x="920" d="M-36 488v30q0 96 16 112q8 8 32 8h8q-4 -22 -4 -78v-32q0 -16 2 -48t2 -46q6 -174 95 -296t245 -122q58 0 124 30q4 2 15 7t17 9q-34 -34 -82 -58q-62 -28 -126 -28q-156 0 -245 122t-95 296q0 14 -2 46t-2 48zM126 1086q2 50 2 52q2 10 4 33t4 40t5 36t9 31t12 16 q2 2 12 2h20q-4 -22 -9 -67t-5 -49l-2 -54q6 -18 206 -38q14 -2 44 -6t42 -6q2 -20 2 -56t-2 -106t-2 -106v-36l6 -180q2 -24 2 -74q0 -192 -90 -220q40 58 40 180q0 48 -2 72l-6 182q0 6 -1 17t-1 17q0 36 3 106t3 106t-2 56q-14 2 -43 6t-43 6q-202 20 -208 40zM688 1040 v38q14 2 35 3t49 2t42 1q-4 -40 -18 -40q-32 0 -108 -4z" />
<glyph unicode="k" horiz-adv-x="1150" d="M-8 -62v138q0 14 1 42t1 42v86q0 104 4 156q6 84 15 252t15 250q26 388 36 410q10 10 40 10l4 -2q-6 -40 -12 -120t-11 -163t-5 -95q-6 -82 -15 -250t-15 -252q-4 -52 -4 -156v-86q0 -14 -1 -42t-1 -42v-136q0 -26 100 -26h42h54h18v-32q0 -12 -6 -12q-2 0 -10 1t-22 2 t-32 1h-52h-44q-100 0 -100 24zM310 356v82q156 -130 584 -448q10 -6 28 -23t35 -27t33 -12q-22 -32 -46 -40q-18 0 -35 10t-37 27t-28 23q-306 222 -534 408zM326 698q34 28 60 54q312 352 412 454q42 54 58 54h4q-2 -2 -5 -6t-5 -6q-102 -104 -414 -456q-50 -50 -110 -94z " />
<glyph unicode="l" horiz-adv-x="936" d="M0 1078v16v36q0 146 8 146h46q-2 -30 -2 -104v-38v-16q0 -12 1 -35t1 -33v-54q0 -26 1 -72t1 -68q0 -50 -1 -143t-1 -143q0 -20 1 -62t1 -64q0 -42 3 -122t3 -124v-150q0 -8 53 -17t136 -16t85 -7q60 -10 94 -10q36 0 111 -4t113 -6q36 -2 144 -2q-4 -42 -16 -42 q-132 0 -180 2q-38 2 -113 6t-111 4q-22 0 -94 12q-6 0 -86 7t-134 15t-54 16v152q0 44 -3 124t-3 122q0 22 -1 63t-1 61q0 48 1 144t1 144q0 22 -1 67t-1 71v56q0 10 -1 33t-1 35z" />
<glyph unicode="m" horiz-adv-x="1452" d="M-4 878v64q0 114 4 306q0 6 -1 21t-1 23q0 72 24 86q8 4 14 4q8 0 16 -4q-2 -14 -2 -44q0 -8 1 -24t1 -22q-4 -192 -4 -304v-64q0 -38 1 -111t1 -111v-76q0 -14 1 -40t1 -38v-132v-342q0 -4 9 -7t26 -4t33 -1t40 -1t36 -1h38h12v-18q0 -24 -4 -24h-60h-36q-12 0 -36 1 t-40 1t-34 1t-27 4t-9 7v342v134q0 12 -1 38t-1 40v76q0 38 -1 110t-1 110zM286 862v18q26 -30 290 -218q16 -12 31 -24t23 -18t15 -10t11 -4q-46 -40 -50 -40q-6 0 -14 5t-29 21t-39 28q-170 122 -232 172q0 12 -2 35t-4 35zM1038 912q16 12 52 40q4 -36 4 -116v-50v-100 q0 -80 1 -269t1 -277v-62v-78q0 -14 50 -14q10 0 34 1t36 1q36 0 52 -2q8 0 22 -3t20 -3v-24q0 -18 -32 -18q-20 0 -62 6q-16 2 -50 2q-12 0 -36 -1t-34 -1q-52 0 -52 16v76v62q0 88 -1 278t-1 270v100v48q0 82 -4 118z" />
<glyph unicode="n" horiz-adv-x="1406" d="M0 1196q0 120 14 120h40q-2 -22 -2 -80q0 -32 2 -89t2 -77v-200q0 -134 -1 -437t-1 -433q0 -6 4 -10t12 -6t17 -4t23 -2t24 -1t27 -1h27t27 -1t23 -1h8q-4 -16 -8 -22q-14 -20 -52 -20q-6 0 -22 1t-26 1h-21t-21 1t-20 1t-20 1t-17 2t-15 3l-12 4t-8 6t-2 8q0 130 1 433 t1 437v198q0 20 -2 78t-2 90zM304 896v48q0 36 2 40q4 -2 14 -12q36 -32 66 -72q52 -68 158 -231t170 -243q22 -30 77 -108t87 -118q6 -8 74 -104t104 -126q22 -20 68 -20q22 0 70 4q48 -4 62 -4v-12q0 -28 -48 -28q-14 0 -66 4q-48 -4 -68 -4q-48 0 -68 18q-36 30 -103 126 t-75 106q-32 40 -87 118t-77 108q-64 80 -171 242t-159 230q-10 14 -30 38zM1056 462v392q0 28 1 180t1 180v16q0 32 28 32q14 0 24 -2v-4q0 -28 -1 -181t-1 -181v-468v-22q-2 2 -52 58z" />
<glyph unicode="o" horiz-adv-x="1058" d="M-34 612q0 134 62 258q44 90 112 150q32 28 48 40q-60 -54 -108 -148q-64 -128 -64 -258q0 -6 6 -66q38 -274 246 -406q150 -94 290 -94q116 0 214 68q-118 -108 -266 -108q-138 0 -288 94q-208 132 -246 404q-6 60 -6 66zM306 870q56 62 140 62q70 0 150 -54 q112 -82 134 -230q4 -24 4 -40q0 -40 -18 -102q-4 -8 -13 -25t-13 -25q-46 -82 -102 -112q28 32 50 72q4 8 14 24t14 24q16 54 16 104q0 14 -4 38q-22 150 -134 232q-76 52 -148 52q-52 0 -90 -20z" />
<glyph unicode="p" horiz-adv-x="954" d="M-8 1160q0 58 4 58q0 18 48 28v-46q0 -32 2 -79t3 -82t1 -37q0 -10 1 -31t1 -31q0 -30 -1 -88t-1 -88v-16q0 -12 1 -36t1 -34q0 -14 1 -43t1 -43q2 -36 6 -112t4 -112q6 -64 12 -208t14 -220q8 -54 14 -54q50 0 162 18q2 0 8 1t10 1v-2q0 -36 -6 -36q-32 0 -62 -6 q-112 -18 -162 -18q-8 0 -16 56q-8 76 -14 220t-12 208q0 38 -4 111t-6 111q0 14 -1 43t-1 43q0 10 -1 34t-1 36v16q0 30 1 89t1 89q0 10 -1 30t-1 30q0 2 -1 37t-3 83t-2 80zM290 1032q0 6 1 19t1 19q52 4 86 4q36 0 52 -2h16q194 -10 202 -154q-2 -138 -86 -180 q30 42 34 138q-8 144 -200 154h-18q-16 2 -50 2h-38zM296 458v10q4 0 17 4t19 4q10 0 35 -1t37 -1q170 0 244 32q28 12 60 34q-40 -40 -112 -76q-74 -32 -244 -32q-8 0 -26 1t-28 1q0 4 -1 12t-1 12z" />
<glyph unicode="q" horiz-adv-x="1188" d="M-92 36q0 4 6 17t13 26t9 17q12 26 21 41t20 31t23 36q32 58 50 78q-36 148 -48 238q-4 28 -4 88q0 160 72 298t190 222q-98 -86 -154 -211t-56 -267q0 -60 4 -88q16 -110 46 -238q-10 -14 -48 -78q-10 -16 -30 -45t-34 -63q-2 -4 -9 -17t-13 -26t-6 -17q0 -14 26 -36 t48 -28q36 -20 68 -32q-18 -38 -20 -44q0 -4 -8 -4q-24 0 -90 40q-22 6 -49 27t-27 35zM176 64v2q2 2 2 4q18 36 32 52q122 -130 214 -146q72 -12 118 -12q48 0 68 6q76 18 142 54q2 0 8 4q-28 -24 -60 -44q-74 -40 -140 -56q-20 -6 -68 -6t-120 12q-84 14 -196 130z M370 304q68 36 146 50q8 2 44 9t52 9h84q-26 -72 -90 -108q24 28 40 68h-84q-16 -2 -53 -9t-45 -9q-50 -8 -86 -24q-2 2 -8 14zM432 964l6 6q2 2 38 32q78 30 122 30q26 0 52 -10q148 -78 148 -306q0 -68 -22 -160q-14 2 -42 2q14 70 14 118q0 224 -150 304q-32 12 -52 12 q-42 0 -114 -28zM938 240q2 4 20 46q2 2 4 2q32 0 136 -58q-20 -42 -34 -52q-2 2 -24 14t-52 26t-50 22z" />
<glyph unicode="r" d="M0 108q0 96 4 228q2 68 2 198v200q0 74 3 214t3 212q0 82 -2 126v28q0 62 12 62q14 2 40 2v-22v-28q2 -44 2 -128q0 -72 -3 -212t-3 -214v-198q0 -132 -2 -200q-4 -132 -4 -226q0 -100 4 -144q0 -12 7 -16t21 -4t22 -2q8 -4 42 -4q22 0 66 4l-2 -36q-6 0 -29 -3t-46 -5 t-41 -2q-32 0 -40 4q-6 2 -22 3t-23 5t-7 16q-4 44 -4 142zM270 528v28q0 48 2 64q78 -76 149 -184t148 -245t123 -207l24 -46q10 0 220 6q8 -24 8 -28q0 -12 -10 -12q-20 0 -133 -3t-135 -3q-4 16 -24 44q-24 38 -154 263t-218 323zM284 1142v12q0 6 1 17t1 17 q222 -16 286 -114q6 -20 6 -44q0 -108 -86 -164q-2 -2 -14 -8q48 52 48 132q0 22 -6 42q-54 84 -236 110zM560 656q2 2 8 6q100 50 152 86q-54 -50 -156 -102q0 2 -2 5t-2 5z" />
<glyph unicode="s" horiz-adv-x="892" d="M-24 284q0 6 9 16t24 24t25 26q8 14 50 38q-10 -12 -25 -25t-24 -22t-9 -15q26 -70 154 -246q98 -132 264 -132q88 0 170 46q-4 -4 -13 -12t-13 -12q-92 -62 -194 -62q-168 0 -264 130q-128 176 -154 246zM-18 964q0 218 130 300q-80 -80 -80 -258q0 -104 46 -189 t116 -135q28 -20 86 -55t89 -58t70 -60t61 -85t32 -108l2 -2v-2v-12q0 -70 -60 -86q10 20 10 44v12v2l-2 2q-10 60 -32 108t-62 86t-70 60t-88 58t-86 56q-70 50 -116 134t-46 188zM276 1086q14 26 48 40q28 10 66 10q82 0 198 -78q8 -6 32 -23t44 -33t28 -28q2 -2 6 -2 q-30 -40 -48 -40q-6 0 -8 2q-12 16 -58 49t-48 35q-118 78 -198 78q-34 0 -62 -10z" />
<glyph unicode="t" horiz-adv-x="898" d="M-44 1124q0 18 4 38q2 10 2 41t2 54t8 29t38 6h4q0 -14 -1 -47t-3 -43t-2 -36l4 -74q22 -22 106 -22h64q50 0 110 -2v-4q0 -14 -1 -44t-1 -44q0 -52 -4 -164q0 -28 -1 -80t-1 -80v-28v-92v-40v-470q0 -28 44 -28h34h14h10q18 0 49 4t43 4v-2v-14q0 -12 -8 -17t-40 -7 q-12 0 -45 -5t-51 -5h-8h-14h-36q-42 0 -42 30v468v42v92v26t1 80t1 80q4 112 4 166q0 14 1 44t1 44v2q-60 2 -110 2h-64q-84 0 -106 22q-6 40 -6 74zM520 1042v16q0 26 40 26q6 0 18 -1t16 -1q46 0 103 2t85 2v-4q0 -38 -6 -38q-44 0 -112 -2t-122 -2q-2 0 -10 1t-12 1z " />
<glyph unicode="u" horiz-adv-x="992" d="M-14 776q0 78 4 236t4 236v22q0 8 34 8h18q0 -76 -5 -230t-5 -230q0 -370 72 -566q106 -288 378 -288h34q102 6 180 56q-92 -90 -232 -98h-34q-270 0 -376 288q-72 196 -72 566zM552 222q80 100 80 414q0 4 -1 10t-1 8q0 58 3 304t3 298q0 26 16 26l36 -8q0 -68 -3 -298 t-3 -282q0 -2 1 -8t1 -8q0 -398 -132 -456z" />
<glyph unicode="v" horiz-adv-x="1348" d="M-60 1212q0 10 54 26q6 -24 23 -62t40 -84l25 -50q70 -144 227 -519t209 -485q12 -24 35 -51t39 -31q-38 -42 -48 -42q-14 0 -40 30t-38 54q-52 110 -209 485t-227 519q-90 180 -90 210zM600 492q14 30 37 78t39 82t20 42q24 42 126 261t124 257q4 6 8 15t7 14t6 11t5 9 t5 7t6 6t5 4t5 3t7 1h2h10q-2 -2 -4 -8t-5 -11t-5 -9q-22 -38 -124 -257t-126 -261q-4 -8 -37 -79t-62 -132t-37 -61h-2q-2 4 -5 14t-5 14z" />
<glyph unicode="w" horiz-adv-x="1672" d="M-70 1270q2 16 50 16h14q156 -318 526 -1240q8 -24 36 -72q2 -8 10 -12l-5 -10t-3 -10q-16 -22 -36 -22q-12 0 -18 12q-28 48 -36 72q-8 22 -64 161t-102 254t-112 273t-133 308t-127 270zM514 674q20 78 69 230t63 202q10 48 38 48q2 0 6 -1t8 -1l-2 -2v-4 q-6 -20 -73 -231t-83 -303q-16 40 -26 62zM772 566q6 22 15 59t11 47l10 -28q8 -20 36 -102q22 -62 130 -294q132 -298 176 -332q-28 -46 -42 -46q-38 0 -184 336q-114 242 -132 296q-8 22 -13 41t-7 23zM1118 506q50 128 134 417t112 365q6 16 26 16q10 0 16 -2 q-12 -36 -112 -374t-160 -464q-2 8 -8 22t-8 20z" />
<glyph unicode="x" horiz-adv-x="1228" d="M-48 136q0 8 8 20t24 31t24 31q70 96 214 263t192 227q-48 52 -119 138t-95 114q-6 8 -39 45t-56 64t-45 65t-22 64q0 6 7 11t23 11t22 10q4 -26 26 -63t43 -62t55 -62t38 -41q28 -32 96 -116t116 -136q-44 -54 -189 -224t-215 -268q-8 -12 -24 -31t-24 -31t-8 -20 q0 -12 23 -36t51 -50t32 -30q28 -28 68 -44q-28 -40 -40 -42h-2q-10 0 -39 18t-37 26q-4 4 -33 30t-52 51t-23 37zM564 478q6 10 20 28t22 28q104 -158 132 -194l28 -34q104 -134 154 -216q4 -8 10 -17l10 -15l8 -12t8 -8t8 -2t16 8q-54 -46 -66 -48q-10 0 -46 54 q-44 72 -154 214l-28 36q-50 66 -122 178zM596 946l4 4q38 50 302 336q30 30 42 32q-276 -304 -292 -326q-6 -8 -50 -58z" />
<glyph unicode="y" horiz-adv-x="914" d="M-52 1230q0 14 52 32q8 -54 133 -294t157 -326q0 -56 -2 -84v-36q-2 -36 -2 -108v-174l2 -74v-146v-40q0 -20 92 -20h20h18h64v-12q0 -30 -14 -30h-102h-18h-18q-92 0 -92 20v42v144v50v342q2 28 2 84q-28 78 -104 222t-132 258t-56 150zM420 912q94 206 122 288 q6 22 13 36t11 19t10 13t10 16q4 4 24 4h2q-6 -10 -18 -46t-158 -370q-4 6 -9 20t-7 20z" />
<glyph unicode="z" horiz-adv-x="1088" d="M-24 -6q0 22 12 50q52 122 82 178q104 188 253 435t229 395q-36 -2 -128 -10q-156 -6 -234 -8q-16 0 -69 -5t-77 -5q-50 0 -50 14q0 22 -8 100t-8 108q0 38 10 38q6 0 19 1t21 1q0 -30 9 -107t9 -99q0 -16 48 -16q24 0 77 6t71 6q78 2 234 8q92 8 128 10 q-80 -148 -230 -396t-254 -436q-30 -56 -82 -178q-12 -28 -12 -50q0 -16 20 -30q114 -32 304 -32q4 0 184 6h266q36 2 144 2q-4 -42 -14 -42q-132 0 -180 -2h-266q-120 -4 -184 -4q-192 0 -306 32q-18 12 -18 30z" />
<glyph unicode="{" horiz-adv-x="600" d="M-14 618q24 20 52 40q4 -4 41 -46t59 -64q52 -56 52 -240q0 -36 -2 -96t-2 -80q0 -60 23 -111t43 -74t26 -23q0 -16 52 -16q6 0 22 1t24 1h12h58q18 -32 18 -42h-2h-126h-10q-6 0 -24 -1t-24 -1q-50 0 -50 18l-2 -2q-6 0 -26 23t-42 74t-22 111q0 20 2 80t2 96 q0 184 -54 242zM106 710q24 38 24 116q0 10 -2 27t-2 25q0 14 9 112t9 112q0 92 54 191t86 99h2q-92 -122 -92 -250q0 -14 -8 -111t-8 -111q0 -8 1 -26t1 -28q0 -104 -38 -130q-14 -12 -36 -26zM308 660q0 6 52 32q-16 -22 -50 -40q-2 2 -2 8z" />
<glyph unicode="|" horiz-adv-x="318" d="M6 464v246q0 30 1 88t1 86q0 12 1 37t1 37v28q0 20 -1 60t-1 86q0 232 24 232h36q-8 -58 -8 -190q0 -46 1 -87t1 -61v-26q0 -12 -1 -37t-1 -37q0 -30 -1 -88t-1 -86v-246q0 -54 5 -268t5 -270v-48q0 -14 50 -14h34q0 -42 -10 -42h-18h-12h-44q-52 0 -52 16v46 q0 56 -5 270t-5 268z" />
<glyph unicode="}" horiz-adv-x="592" d="M-34 1376q0 10 5 12t27 2h24q6 -14 31 -61t44 -101t23 -114q14 -236 14 -346q0 -34 28 -56t57 -33t29 -19q0 -6 -6 -11t-23 -13t-25 -12q-4 6 -34 19t-54 34t-24 51q0 144 -12 346q-6 92 -55 189t-49 113zM-12 -132q0 4 22 45t45 96t27 95q6 56 6 174q0 36 -1 106t-1 104 q0 68 68 102q-16 -26 -16 -62q0 -34 1 -103t1 -105q0 -118 -6 -174q-4 -40 -28 -95t-46 -96t-22 -45l2 -2v2h128h10q6 0 24 -1t24 -1q20 0 28 2q-22 -28 -28 -28v2q0 -18 -52 -18q-6 0 -24 1t-24 1h-10h-126h-2z" />
<glyph unicode="~" horiz-adv-x="832" d="M-12 1198q0 6 22 28q36 36 62 50l-10 -10q-24 -24 -24 -26q0 -66 78 -144q38 28 46 36q60 44 100 44q12 0 44 -8q16 -8 32 -20t38 -30t28 -24q40 -22 80 -22q106 0 186 56q-2 -2 -6 -8l-4 -4q-104 -86 -228 -86q-36 0 -80 24q-6 6 -28 24t-38 30t-32 20q-24 6 -42 6 q-42 0 -102 -44l-44 -34q-78 78 -78 142z" />
<glyph unicode="&#xa1;" horiz-adv-x="388" d="M-20 -100q0 154 16 420q16 250 16 540q0 90 8 150q6 40 11 44t43 12q0 -2 -1 -7t-1 -9q-8 -60 -8 -148q0 -292 -16 -542q-18 -298 -18 -420v-96q0 -6 50 -6h34q12 0 42 -1t46 -1q6 0 17 1t15 1l-4 -28q-10 -14 -80 -14q-16 0 -45 1t-41 1h-36q-48 0 -48 6v96zM12 1214 q4 96 10 124q6 30 52 38q-6 -28 -10 -120q0 -14 10 -24q8 -32 48 -32h16q14 0 41 3t37 3q-10 -30 -41 -38t-89 -8h-14q-42 0 -50 32q-10 10 -10 22z" />
<glyph unicode="&#xa2;" horiz-adv-x="826" d="M-18 512q0 80 24 162q24 90 84 174t136 136q-128 -118 -168 -270q-24 -82 -24 -162q0 -50 4 -78q12 -90 49 -150t103 -120q48 -42 180 -78q2 -52 2 -128v-48q0 -14 52 -14h38h10q-4 -40 -12 -40h-30h-18h-38q-52 0 -52 14v46q0 78 -2 130q-132 36 -180 78 q-68 60 -104 119t-48 149q-6 42 -6 80zM312 442v26v246v48q20 38 52 60q0 -10 -1 -33t-1 -33v-246q0 -72 2 -122q-28 22 -52 54zM314 1152q0 144 24 144h32q-6 -40 -6 -102q0 -20 1 -61t1 -59q-4 -2 -11 -6t-9 -4q-20 -8 -30 -14q0 16 -1 50t-1 52zM526 40v4q0 6 1 22t1 24 q98 -18 148 -22q-10 -28 -20 -38q-2 -2 -20 -2q-38 0 -110 12zM536 794v54q48 -10 74 -22q-18 -46 -40 -46q-20 10 -34 14z" />
<glyph unicode="&#xa3;" horiz-adv-x="948" d="M-4 -4q0 14 2 48t4 48q0 8 1 22t1 25t1 21t4 15t9 5h38q0 -8 -1 -24t-1 -22q-2 -14 -4 -49t-2 -49q0 -4 -1 -11t-1 -9q0 -6 1 -9t3 -5t5 -2h9h12q228 -20 688 -20v-8q0 -34 -12 -34h-32q-442 0 -696 22h-12h-8t-5 2t-3 5v9v20zM-4 518q0 26 6 110q2 10 2 37t3 40t11 13 h38q0 -34 -2 -48q-6 -84 -6 -110q0 -28 2 -34t14 -6h24h20h22h18l-2 -298h-52l2 258h-18h-22h-20q-6 0 -14 -1t-10 -1q-12 0 -14 6t-2 34zM108 758q24 210 61 318t129 168q-46 -46 -75 -125t-41 -149t-28 -212h-46zM366 490v36q20 4 122 8q0 -2 1 -6t1 -6q2 -26 -2 -26 q2 0 -26 -2q-14 -2 -47 -3t-49 -1zM480 1098q52 58 124 58q26 0 40 -2q0 -16 -1 -55t-1 -59q0 -48 4 -100q0 -10 1 -16t0 -9t2 -5t7 -3t14 -3q14 -2 49 -6t62 -7t37 -3h2v-26l-2 -16l-52 2q-8 0 -148 14q-10 2 -14 3t-7 3t-3 6v10v16q-2 26 -2 100v112q-28 4 -38 4 q-42 0 -74 -18z" />
<glyph unicode="&#xa4;" horiz-adv-x="1126" d="M-20 616q0 174 64 276q46 80 98 134q-104 224 -104 264q0 10 58 14q20 -70 96 -236q-52 -54 -98 -134q-64 -102 -64 -276q0 -34 30 -144q40 -140 170 -242l2 -2q-26 -48 -77 -140t-65 -116q6 -20 66 -20q22 0 63 3t51 3h4h12q14 0 26 4q-4 -6 -11 -19t-9 -19 q-20 0 -32 -4t-24 -4q-2 0 -6 1t-6 1h-6q-10 0 -50 -4t-62 -4q-62 0 -68 22q14 24 65 116t77 140l-2 2q-130 102 -170 242q-28 102 -28 142zM388 882q50 50 126 72q18 6 40 6q52 0 107 -33t83 -67q34 -52 48 -102q2 -12 2 -38q0 -78 -50 -198q-28 -62 -92 -100q24 24 40 60 q52 126 52 198q0 24 -2 36q-12 48 -50 104q-28 34 -83 67t-107 33q-22 0 -40 -6q-46 -14 -74 -32zM402 116l24 48q6 0 16 -4t16 -4q48 -8 140 -8q44 0 64 2q10 -22 37 -69t39 -75q20 0 32 -3t24 -3h12h6q10 0 50 -3t62 -3h6q2 -4 5 -11t5 -9q-6 -22 -66 -22q-22 0 -63 4 t-51 4h-4q-2 0 -6 -1t-6 -1q-12 0 -25 4t-33 4q-12 26 -39 73t-37 69q-20 -2 -64 -2q-90 0 -138 8l-2 2h-4zM674 1200q42 88 42 92q2 16 20 16q2 0 9 -1t11 -1q-14 -32 -54 -114q-6 0 -14 4t-14 4z" />
<glyph unicode="&#xa5;" horiz-adv-x="1104" d="M-46 1198q0 6 8 11t24 12t22 11q36 -104 163 -288t209 -272v-106h-40h-10v64q-84 90 -214 278t-162 290zM150 286q0 22 52 22q0 -8 4 -49t4 -59q0 -34 5 -44t23 -10h30q80 0 118 2l6 -114l2 -54q12 -12 136 -12h46q0 -32 -8 -40q-2 0 -34 -1t-54 -1q-126 0 -138 12 q-2 40 -2 56q-2 36 -6 112q-38 -2 -116 -2h-32q-16 0 -21 10t-5 46q0 18 -5 64t-5 62zM150 504q0 22 52 22q0 -8 4 -40t4 -50q0 -34 5 -44t23 -10h30q40 0 112 4q0 -6 1 -19t1 -19h-42h-74q-50 0 -58 -6h-22q-16 0 -21 9t-5 45q0 18 -5 55t-5 53zM510 900q36 44 139 186 t159 212q22 32 44 34l2 -2q-58 -72 -180 -238t-158 -204zM624 120v2v36q80 4 110 4h20h8q0 -6 -1 -14t-1 -10q0 -18 -58 -18h-20h-58zM624 356v40q80 4 110 4h20h8q0 -4 -1 -13t-1 -13q0 -16 -58 -16h-20q-8 0 -28 -1t-30 -1z" />
<glyph unicode="&#xa6;" horiz-adv-x="400" d="M2 592q0 14 14 14q4 0 40 -4v-12l2 -84q0 -12 5 -216t5 -270v-46q0 -18 50 -18q22 0 58 1t56 1q-4 -40 -10 -40q-30 0 -78 -1t-76 -1q-52 0 -52 16v48q0 66 -5 269t-5 215l-2 84q0 12 -1 27t-1 17zM8 770q0 12 1 94t1 94v28q0 20 -1 48t-1 74q0 232 24 232h36 q-8 -58 -8 -192q0 -46 1 -74t1 -48v-26q0 -12 -1 -94t-1 -94q0 -16 48 -16q10 0 130 6h8v-2v-26q0 -12 -12 -12h-34h-14q-12 0 -60 -4t-70 -4q-48 0 -48 16z" />
<glyph unicode="&#xa7;" horiz-adv-x="808" d="M-6 1110q0 64 41 137t95 101q-86 -94 -86 -196q0 -98 37 -162t117 -120l-2 -2q-4 0 -4 -2q-20 -10 -46 -36q-80 56 -116 119t-36 161zM6 588q0 64 41 137t95 101q-84 -90 -84 -196q0 -102 41 -168t133 -126q14 -8 43 -30t47 -32q6 -4 53 -31t67 -45q64 -58 78 -118 q8 -42 0 -58q-14 -30 -50 -40q6 14 -2 56q-14 66 -76 120q-20 18 -66 44t-56 32q-18 10 -47 31t-43 29q-92 60 -133 126t-41 168zM38 34q0 42 26 52q4 0 12 3t14 5q-2 -6 -2 -18q0 -22 8 -50q40 -122 106 -183t198 -63h46q68 2 126 40q-78 -78 -176 -80h-48q-132 2 -198 63 t-106 183q-6 22 -6 48zM264 1192l2 2q2 2 2 4q48 48 98 48q38 0 72 -34q14 -16 31 -38t26 -32t17 -10h4q66 20 80 26h2q-4 -20 -54 -42q-14 -6 -42 -13t-38 -11q0 -2 -2 -2q-8 0 -17 10t-26 33t-31 39q-34 34 -74 34q-18 0 -50 -14zM276 670q0 2 2 2l2 4q48 48 96 48 q38 0 72 -34l17 -17t19 -21t14 -20t14 -26t4 -26q0 -20 -8 -36q-14 -30 -50 -40q6 12 6 36q0 12 -4 23t-7 19t-13 20t-13 16t-15 18l-14 14q-34 34 -72 34q-22 0 -50 -14z" />
<glyph unicode="&#xa8;" horiz-adv-x="530" d="M-20 1148v12q2 10 2 12t2 12t3 14t4 12t6 12t8 10t10 9t12 6t15 5q-8 -18 -12 -62q2 -66 74 -72q8 0 20 4q-20 -38 -70 -44q-72 6 -74 70zM228 1160q0 10 4 30q2 18 19 35t39 25q-2 -4 -8 -20q-2 -10 -2 -28q0 -90 86 -96h4q8 0 24 4q-28 -46 -74 -46h-4q-88 6 -88 96z " />
<glyph unicode="&#xa9;" horiz-adv-x="1440" d="M-16 628q0 166 80 320t214 250q-114 -100 -179 -239t-65 -289q0 -256 50 -366q68 -156 150 -210q166 -110 462 -114h6q260 0 432 124q-184 -166 -484 -166h-4q-296 4 -464 116q-82 56 -150 208q-30 66 -39 144t-9 222zM360 592q0 50 16 108q36 130 156 210 q-76 -74 -104 -168q-16 -58 -16 -108q0 -14 4 -50q12 -100 98 -176q32 -28 135 -55t173 -35q-10 -30 -20 -40q-2 -2 -12 -2q-54 0 -174 29t-154 61q-86 76 -98 176q-4 36 -4 50zM380 1020q18 18 38 32q112 84 268 84q128 0 242 -58t162 -152q52 -104 52 -244q0 -68 -12 -146 q-28 -186 -178 -290q106 98 128 250q10 64 10 144q0 140 -52 244q-48 94 -162 152t-242 58q-146 0 -254 -74zM602 782q34 50 102 50q40 0 76 -14q-16 -48 -34 -48q-40 22 -92 22q-26 0 -52 -10z" />
<glyph unicode="&#xaa;" horiz-adv-x="594" d="M-4 958q0 48 2 148t2 150q0 36 6 36q4 0 12 1t12 1h22q0 -50 -2 -148t-2 -146q0 -52 2 -173t2 -171q0 -10 64 -14v-32q0 -10 -12 -10h-22q-82 0 -82 14q0 50 -2 171t-2 173zM168 894v34l2 4h4q28 4 44 4t47 -2t45 -2h22h30h10q0 -4 1 -12t1 -12q0 -2 4 -92t4 -126 q0 -16 48 -16q4 0 11 1t9 1h6v-4q0 -24 -2 -28q-6 -6 -54 -10q-2 0 -10 -1t-12 -1q-46 0 -46 18q0 36 -4 124t-4 92t-1 12t-1 12h-10h-32h-22q-14 0 -44 2t-46 2zM170 1156v28v10q88 4 106 4q42 0 66 -2h16v-18v-32v-52v-26v-20q-48 6 -50 6v52v30v20h-18q-24 2 -64 2 q-8 0 -27 -1t-29 -1z" />
<glyph unicode="&#xab;" horiz-adv-x="990" d="M-16 494l16 172q2 12 78 70q-4 -8 -11 -15t-11 -10t-4 -5l-18 -172q76 -48 114 -76l30 -20q44 -34 100 -68l14 -10q114 -78 156 -104l24 -12q12 -8 20 -12q4 -28 4 -44q0 -24 -6 -24q-4 0 -30 16q-6 4 -20 11t-20 11l-22 14q-42 26 -156 104l-14 10q-68 42 -102 68 l-30 20zM214 644l2 4q70 54 278 192q-2 -10 -22 -22q-164 -106 -258 -174zM354 494l16 172q2 8 56 48q-4 -4 -4 -8l-16 -172q74 -48 112 -76l30 -20q34 -26 102 -68l14 -10q114 -78 156 -104l22 -12q12 -8 20 -12q4 -28 4 -44q0 -24 -6 -24q-2 0 -28 16q-6 4 -21 11t-21 11 l-22 14q-42 26 -156 104l-14 10q-6 4 -33 21t-41 27q-4 6 -20 18q-2 2 -22 16t-34 22l-18 10q-2 0 -2 2l-4 2zM586 642v6q28 22 274 166q-8 -16 -18 -22q-28 -18 -121 -70t-135 -80z" />
<glyph unicode="&#xac;" horiz-adv-x="764" d="M-32 704q0 10 52 14q0 -34 2 -42q0 -10 1 -54t1 -56q0 -8 44 -8q14 0 50 1t54 1h12q210 0 318 12q10 -144 10 -152q0 -14 -1 -35t-1 -27q0 -16 4 -16q10 0 52 -3t54 -3h22v-32q0 -10 -14 -10h-58q-10 0 -54 4t-54 4q-4 0 -4 16q0 6 1 26t1 34q0 8 -10 152 q-108 -12 -316 -12h-14q-18 0 -54 -1t-50 -1q-42 0 -42 8q0 12 -1 56t-1 54q-4 24 -4 70z" />
<glyph unicode="&#xad;" horiz-adv-x="712" d="M6 630q0 18 52 22q0 -16 5 -67t5 -67q0 -36 5 -45t21 -9h30q102 0 232 9t174 9h22h8v-26q0 -16 -58 -16h-22q-44 0 -174 -8t-232 -8h-30q-18 0 -23 10t-5 44q0 18 -5 77t-5 75z" />
<glyph unicode="&#xae;" horiz-adv-x="1440" d="M-16 628q0 166 80 320t214 250q-114 -100 -179 -239t-65 -289q0 -256 50 -366q68 -156 150 -210q166 -110 462 -114h6q260 0 432 124q-184 -166 -484 -166h-4q-296 4 -464 116q-82 56 -150 208q-30 66 -39 144t-9 222zM380 1020q18 18 38 32q112 84 268 84q128 0 242 -58 t162 -152q52 -104 52 -244q0 -68 -12 -146q-28 -186 -178 -290q106 98 128 250q10 64 10 144q0 140 -52 244q-48 94 -162 152t-242 58q-146 0 -254 -74zM466 372q0 20 1 57t1 51q0 16 2 48t2 46v96q0 36 1 101t1 99v62v12q0 28 6 28q32 4 44 4v-4v-60q0 -34 -1 -100t-1 -102 v-96q0 -14 -1 -46t-1 -48q0 -14 -1 -50t-1 -56q0 -50 2 -70q0 -12 36 -12h14v-36q-24 -4 -66 -4q-36 0 -36 12q-2 20 -2 68zM622 606v30q38 -36 72 -87t71 -117t59 -98l12 -20h66q14 -24 14 -34q0 -6 -4 -6q-10 0 -64 -1t-64 -1q-2 6 -12 20q-18 28 -67 114t-81 128 q0 10 -1 35t-1 37zM630 856v32v18q106 -8 136 -54q2 -6 2 -22q0 -30 -14 -48l-12 -18q0 -2 -8 -8l-4 -2q-8 -6 -28 -14v2q14 18 14 46q0 18 -2 24q-20 30 -84 44zM764 656q24 12 52 28v-2q0 -2 -2 -2q-22 -22 -48 -38q-6 10 -2 14z" />
<glyph unicode="&#xaf;" horiz-adv-x="712" d="M96 1184v100q0 6 52 6v-66q0 -36 5 -44t21 -8h30q102 0 141 3t83 3h22h8q-2 -8 -2 -24q0 -18 -56 -18h-24q-44 0 -82 -3t-140 -3h-32q-16 0 -21 9t-5 45z" />
<glyph unicode="&#xb0;" horiz-adv-x="472" d="M-12 1036q0 62 18 96q32 58 80 82q-12 -12 -28 -40q-20 -38 -20 -96q0 -28 10 -52q12 -44 58 -82q40 -28 82 -40q16 -4 48 -4t54 8q-12 -16 -20 -22q-28 -28 -86 -28q-30 0 -46 4q-38 10 -82 42q-48 42 -60 82q-8 18 -8 50zM166 1108q12 28 42 38q4 2 12 2q20 0 42 -22 q6 -8 10 -24v-12q0 -22 -10 -42q-14 -26 -36 -30h-10q6 14 6 32v10q-4 16 -12 26q-22 22 -42 22h-2z" />
<glyph unicode="&#xb1;" horiz-adv-x="800" d="M-4 292q0 10 52 14q0 -30 2 -36q0 -10 1 -41t1 -41q0 -8 38 -8q12 0 24 1t28 1h12q268 0 318 6q136 8 162 8h24v-38q0 -4 -16 -4q-6 0 -26 1t-32 1q-28 0 -164 -8q-50 -6 -318 -6h-12q-16 0 -28 -1t-24 -1q-38 0 -38 8q0 10 -1 41t-1 41q-2 12 -2 62zM-4 836q0 10 52 14 q0 -28 2 -34q0 -10 1 -52t1 -52q0 -6 38 -6q12 0 24 1t28 1h12q64 0 148 10q6 -78 6 -144q0 -12 1 -47t1 -41q0 -18 4 -18q10 0 47 -3t47 -3h14v-32v-2q0 -4 -1 -5t-9 -1h-56q-10 0 -47 3t-47 3q-4 0 -4 16q0 6 -1 41t-1 47q0 68 -6 146q-84 -10 -148 -10h-12q-16 0 -28 -1 t-24 -1q-38 0 -38 6q0 10 -1 51t-1 51q-2 12 -2 62zM228 1036q0 38 6 38h44q0 -12 1 -25t1 -29q0 -72 6 -128h-54q-2 28 -2 86q0 16 -1 31t-1 27zM472 696v38q136 8 162 8q4 0 12 -1t12 -1v-38q0 -4 -16 -4q-6 0 -26 1t-32 1q-44 0 -112 -4z" />
<glyph unicode="&#xb2;" horiz-adv-x="544" d="M2 732q0 32 4 48q14 66 62 114q32 32 62 56q6 6 18 14q-4 -4 -14 -13t-16 -15q-44 -44 -60 -114q-4 -16 -4 -50q0 -100 20 -114q28 -24 286 -34l2 -42h-12q-76 0 -193 10t-135 24q-20 14 -20 116zM22 1124q0 20 22 48q46 76 86 96q-8 -8 -36 -56q-20 -24 -20 -46 q0 -8 4 -8q18 -8 72 -42q-16 -20 -24 -32q-4 -2 -8 -8q-6 -8 -10 -6q-70 40 -82 46q-4 0 -4 8zM210 858q24 28 50 42q60 30 88 48q-2 -2 -8 -7t-10 -9q-50 -40 -120 -74zM212 1172q2 4 7 10t7 8q18 24 46 24q22 0 40 -17t22 -47q0 -2 1 -7t1 -7q0 -24 -11 -42t-18 -23 t-35 -21q12 18 12 46q0 2 -1 7t-1 7q-4 30 -21 47t-39 17q-2 -2 -4 -2h-6z" />
<glyph unicode="&#xb3;" horiz-adv-x="588" d="M2 646v30q0 24 3 29t21 7q4 0 14 1t14 3v-30q0 -62 8 -74q0 -2 4 -2q18 0 78 12q154 20 232 70q-78 -80 -284 -110q-60 -12 -78 -12l-4 2q-8 12 -8 74zM6 1180v10q6 70 12 94q6 20 12 20q2 0 9 -1t11 -1h16q-2 -10 -3 -24t-3 -28t-2 -20v-10q0 -10 8 -10q2 0 7 1t9 1 q10 0 34 1t38 1q60 0 108 -16q20 -6 20 -34q0 -30 -16 -40q-20 -18 -40 -26q6 12 6 24q0 30 -22 36q-48 16 -108 16q-14 0 -38 -1t-34 -1q-4 0 -9 -1t-7 -1q-8 0 -8 10zM54 980q0 6 1 19t1 19q2 22 8 22h12q4 0 14 1t16 1q0 -2 -1 -10t-1 -10q0 -10 2 -35t2 -27q2 0 6 1t6 1 q108 0 190 -18q20 -6 28 -9t17 -13t9 -24v-12q-14 -64 -72 -92q16 22 22 52v10q0 32 -56 48q-80 18 -188 18q-2 0 -6 -1t-6 -1q0 2 -2 26t-2 34z" />
<glyph unicode="&#xb4;" horiz-adv-x="582" d="M30 972q0 18 60 78q16 16 51 50t51 50q12 12 42 39t53 51t37 42q2 2 4 2q6 0 10 -2q-16 -16 -49 -47t-45 -43q-16 -16 -51 -50t-51 -50q-60 -60 -60 -78t114 -18q48 0 92 4q4 2 13 0t11 -2q8 0 18 6q-36 -30 -52 -42q-10 -6 -18 -6q-2 0 -10 2t-12 0q-44 -4 -92 -4 q-116 0 -116 18z" />
<glyph unicode="&#xb5;" horiz-adv-x="1104" d="M-20 752q0 238 30 448q0 46 16 48q6 -2 18 -3t18 -1v-2q-32 -224 -32 -450q0 -174 6 -372q0 -8 1 -29t1 -33q0 -80 -3 -284t-3 -246v-48q0 -16 52 -16q22 0 58 1t56 1q-4 -40 -12 -40q-30 0 -78 -1t-76 -1q-50 0 -50 16v48q0 42 2 246t2 284v60q-6 198 -6 374zM264 18 q4 84 6 100q62 -122 216 -122h64q62 0 132 22q30 10 68 32q-52 -52 -120 -72q-76 -24 -130 -24h-66q-100 0 -170 64zM542 284q36 32 66 74q86 128 112 314t26 464v34q0 94 14 112q24 0 40 -2q-4 -40 -4 -70v-32q0 -280 -25 -465t-111 -313q-54 -74 -118 -116z" />
<glyph unicode="&#xb6;" horiz-adv-x="1156" d="M-12 890q0 82 36 150q46 90 120 138q-42 -42 -70 -96q-36 -70 -36 -152q0 -130 70 -216q82 -94 268 -126q24 -4 58 -5t66 -11v-50q0 -34 1 -106t1 -106v-118v-76v-38q4 -98 14 -98h32q106 0 150 4v-22q0 -24 -200 -24h-32q-10 0 -14 98q0 6 -1 20t-1 20q0 14 1 39t1 37 v116q0 36 -1 108t-1 106v48q-32 10 -67 11t-59 5q-184 30 -268 128q-68 84 -68 216zM734 1046h48q6 0 66 -2v-2q0 -14 -1 -44t-1 -44q0 -54 -4 -166q0 -28 -1 -80t-1 -80v-26v-92v-42v-468q0 -28 44 -28h34h14h8q18 0 46 4t38 4v-2v-14q0 -10 -2 -14t-12 -7t-32 -5 q-12 0 -41 -4t-47 -4h-8h-16h-34q-42 0 -42 30v468v40v94v26q0 28 1 80t1 80q4 112 4 166q0 14 1 44t1 44v2q-58 2 -62 2v20t-2 20z" />
<glyph unicode="&#xb7;" horiz-adv-x="424" d="M10 632v12q6 88 56 116q6 4 18 8q-18 -34 -22 -84v-10q0 -46 26 -77t68 -35q2 0 5 -1t5 -1t8 1t10 1q28 0 42 4q-14 -22 -28 -30q-24 -16 -64 -16h-20h-10q-42 4 -68 35t-26 77z" />
<glyph unicode="&#xb8;" horiz-adv-x="502" d="M-2 -358q0 8 6 14q12 14 43 52t44 57t34 55t36 74t25 86q4 24 24 24q8 0 22 -6q-10 -42 -24 -77t-35 -69t-34 -52t-43 -55t-40 -49q-6 -6 -6 -14q0 -20 62 -52q60 -38 82 -40q4 0 16 4q-38 -42 -66 -44q-24 2 -82 38q-64 34 -64 54z" />
<glyph unicode="&#xb9;" horiz-adv-x="388" d="M2 1206q0 18 7 23t45 21v-2q0 -88 10 -98q2 -2 8 -2q2 0 50 24q12 4 31 14t27 14v-2q2 -28 2 -84q0 -216 -8 -398v-30h76v-16q0 -24 -4 -24h-124v30q10 226 10 398q0 56 -2 84v2q-8 -4 -28 -15t-30 -15q-44 -22 -52 -22q-6 0 -8 2q-10 10 -10 96z" />
<glyph unicode="&#xba;" horiz-adv-x="564" d="M-8 1030q0 78 28 128q42 74 98 104q-18 -20 -46 -64q-28 -50 -28 -126q0 -86 54 -151t128 -79q26 -6 60 -6q48 0 84 18q-50 -60 -134 -60q-36 0 -62 6q-74 14 -128 79t-54 151zM10 702q0 22 50 22h2q0 -12 5 -52t5 -56q0 -38 5 -47t23 -9q4 0 14 1t16 1q102 0 163 8 t105 8h24h4v-26q0 -16 -56 -16h-24q-44 0 -105 -8t-163 -8h-28q-18 0 -24 10t-6 46q0 18 -5 64t-5 62zM206 1124q14 30 46 40q4 2 12 2q32 0 54 -34q14 -22 14 -48q0 -36 -18 -60q-14 -22 -46 -30q14 24 14 48t-16 50q-22 32 -52 32h-8z" />
<glyph unicode="&#xbb;" horiz-adv-x="996" d="M-10 960q0 30 14 30q10 0 38 -16l6 -98q0 -28 18 -38q4 -2 6 -4q24 -16 144 -84t162 -102l4 -78q-18 -12 -50 -32l-4 68q-42 34 -162 102t-146 84q-10 6 -12 7t-7 7t-5 12v18zM-4 188q0 30 9 73t9 51q2 12 2 17t3 10t4 6t7 4t8 5q12 8 32 24l-4 -26q0 -8 -9 -50t-9 -72 q0 -26 6 -26q2 0 5 2t10 7t13 9t20 11t20 11l24 12q42 26 156 104l14 10q56 34 100 68l30 20q8 6 31 21t31 21v-6q-74 -48 -112 -76l-32 -20q-44 -34 -100 -68l-14 -10q-114 -78 -156 -104l-22 -14q-6 -4 -21 -11t-21 -11q-26 -16 -28 -16q-6 0 -6 24zM360 986q0 28 14 28 q12 0 38 -14l6 -98q0 -22 4 -28t20 -16q250 -164 308 -210l4 -78q-8 -6 -52 -32l-4 68q-48 38 -208 146q-58 44 -120 84q-4 12 -4 24zM366 188q0 28 9 71t11 53q2 12 2 17t3 10t4 6t7 4t8 5q6 4 11 8t10 9t9 7l-4 -26q0 -8 -9 -50t-9 -72q0 -26 6 -26q2 0 5 2t10 7t13 9 t21 11t21 11l22 12q42 26 156 104l14 10q56 34 100 68l32 20l60 42v-6q-74 -48 -112 -76l-30 -20q-34 -26 -102 -68l-14 -10q-114 -78 -156 -104l-22 -14q-6 -4 -20 -11t-20 -11q-26 -16 -30 -16q-6 0 -6 24z" />
<glyph unicode="&#xbc;" horiz-adv-x="968" d="M-58 -26q62 116 175 314t194 350t151 312q0 2 78 171t78 171q2 16 20 16h20q-14 -30 -52 -112t-65 -142t-27 -62q-70 -160 -151 -312t-194 -352t-175 -314q6 -20 64 -20q38 0 56 1t24 1q-16 -28 -22 -42q-30 0 -48 -1t-62 -1q-58 0 -64 22zM2 1206q0 18 7 23t45 21v-2 q0 -88 10 -98q2 -2 8 -2q2 0 50 24q12 4 31 14t27 14v-2q2 -28 2 -84q0 -216 -8 -398q0 -6 -1 -15t-1 -11q0 -4 2 -4h76v-16q0 -24 -4 -24h-124v4v26q10 226 10 398q0 56 -2 84v2q-8 -4 -28 -15t-30 -15q-44 -22 -52 -22q-6 0 -8 2q-10 10 -10 96zM468 228v10v6v282v8 q0 22 24 22q4 0 14 -1t14 -1v-270v-6v-10q0 -8 8 -10q4 -2 6 -2q36 -12 208 -12h24q0 -8 -1 -34t-1 -36q-2 -24 -5 -51t-5 -59v-2q0 -10 -3 -37t-3 -37q8 -12 42 -12h26q-2 -18 -2 -40q0 -2 -14 -2h-26h-34q-36 0 -44 12q0 10 3 37t3 37v2q2 32 5 60t5 52q0 10 1 35t1 33 h-24q-164 0 -206 14q-16 4 -16 12zM716 352q10 124 18 190q6 14 8 14t10 -2l16 -4h12q0 -4 -16 -196h-12h-4q-2 0 -13 -1t-19 -1z" />
<glyph unicode="&#xbd;" horiz-adv-x="968" d="M-58 -26q62 116 175 314t194 350t151 312q0 2 78 171t78 171q2 16 20 16h20q-14 -30 -52 -112t-65 -142t-27 -62q-70 -160 -151 -312t-194 -352t-175 -314q6 -20 64 -20q38 0 56 1t24 1q-16 -28 -22 -42q-30 0 -48 -1t-62 -1q-58 0 -64 22zM2 1206q0 18 7 23t45 21v-2 q0 -88 10 -98q2 -2 8 -2q2 0 50 24q12 4 31 14t27 14v-2q2 -28 2 -84q0 -216 -8 -398q0 -6 -1 -15t-1 -11q0 -4 2 -4h76v-16q0 -24 -4 -24h-124v4v26q10 226 10 398q0 56 -2 84v2q-8 -4 -28 -15t-30 -15q-44 -22 -52 -22q-6 0 -8 2q-10 10 -10 96zM462 80q0 34 4 50 q14 66 62 114q32 32 62 56q2 2 20 14l-30 -30q-48 -48 -62 -114q-4 -16 -4 -50q0 -100 20 -114q28 -24 286 -34l4 -42h-12q-74 0 -192 11t-136 25q-22 14 -22 114zM484 474q0 22 20 46q44 74 88 96q-12 -14 -36 -54q-22 -28 -22 -48q0 -8 4 -8q18 -8 72 -42q-4 -4 -22 -32 q-4 -2 -8 -8t-8 -6h-2q-70 40 -82 46q-4 0 -4 10zM670 208q20 24 50 40q46 24 88 50l-18 -18q-44 -34 -120 -72zM674 522q2 2 6 8t6 8q20 26 48 26q22 0 39 -17t21 -47q0 -2 1 -7t1 -7q0 -24 -10 -42t-19 -25t-33 -21q12 18 12 46q0 2 -1 7t-1 7q-4 30 -22 47t-40 17h-8z " />
<glyph unicode="&#xbe;" horiz-adv-x="1026" d="M-36 662v30q0 24 3 30t21 8q6 2 14 2h12v-30q0 -62 8 -74q0 -2 4 -2q18 0 78 12q154 20 232 70q-78 -80 -282 -110q-60 -12 -78 -12l-4 2q-8 12 -8 74zM-32 1196v10q6 68 12 94q4 20 12 20q2 0 8 -1t10 -1h16q0 -4 -8 -70v-12q0 -10 8 -10q2 0 8 1t10 1q10 0 33 1t37 1 q62 0 110 -16q20 -6 20 -34q0 -30 -16 -40q-20 -18 -40 -26q4 8 4 24q0 30 -20 36q-48 16 -108 16q-14 0 -38 -1t-34 -1q-4 0 -9 -1t-7 -1q-8 0 -8 10zM0 -24q62 116 175 314t194 350t151 312q0 2 78 171t78 171q2 16 20 16h20q-14 -30 -52 -112t-65 -142t-27 -62 q-70 -160 -151 -312t-194 -352t-175 -314q4 -20 62 -20q38 0 57 1t25 1q-16 -28 -22 -42q-30 0 -48 -1t-62 -1q-58 0 -64 22zM14 998q0 6 1 18t1 18q2 22 8 22h12q4 0 14 1t16 1v-20q0 -10 2 -35t2 -27q2 0 6 1t6 1q106 0 188 -18q20 -6 28 -9t18 -13t10 -24v-10 q-14 -64 -74 -92q16 24 22 50v10q0 32 -54 48q-80 18 -190 18q-2 0 -6 -1t-6 -1q0 2 -2 27t-2 35zM526 230v10v6v282v8q0 22 22 22q4 0 14 -1t16 -1v-270v-6v-10q0 -8 8 -10q4 -2 6 -2q36 -12 206 -12h26q0 -8 -1 -34t-1 -36q-2 -24 -5 -51t-5 -59v-2q0 -10 -4 -37t-4 -37 q8 -12 44 -12h24q-2 -18 -2 -40q0 -2 -12 -2h-26h-36q-34 0 -42 12q0 10 3 37t3 37v2q2 32 5 60t5 52q0 10 1 35t1 33h-24q-166 0 -208 14q-14 8 -14 12zM774 354q14 174 16 190q6 14 8 14t11 -2t17 -4h12q0 -4 -16 -196h-14h-4q-2 0 -12 -1t-18 -1z" />
<glyph unicode="&#xbf;" horiz-adv-x="890" d="M-12 246q0 90 42 168t95 125t118 115t97 130q20 40 20 158q0 12 -1 34t-1 32v18q0 18 6 22t28 6l18 2v-8q0 -10 1 -31t1 -33q0 -118 -20 -158q-32 -62 -97 -130t-119 -116t-96 -126t-42 -168q0 -60 30 -166q28 -94 125 -159t225 -65q122 0 204 54q-100 -96 -256 -96 q-126 0 -224 66t-126 160q-28 100 -28 166zM340 1260q0 78 50 110q12 10 24 12q-22 -34 -22 -82q0 -12 4 -32q6 -42 40 -70t80 -28q20 0 42 6q-12 -22 -34 -34q-28 -14 -60 -14q-46 0 -80 28t-40 70q-4 20 -4 34zM502 112q20 20 64 100q18 42 36 34q0 -2 4 -2q2 0 4 -2 q-56 -104 -108 -130z" />
<glyph unicode="&#xc0;" horiz-adv-x="1028" d="M-10 -32q2 24 4 82t2 80q2 70 9 380t13 456v4q8 190 30 328v6q12 18 28 20q4 0 10 -1t10 -1q-18 -130 -26 -310v-4q-6 -146 -13 -456t-9 -382q-2 -22 -5 -81t-3 -81q0 -18 146 -18q8 0 24 1t22 1h12l-4 -40q-2 -2 -60 -2q-6 0 -21 -1t-23 -1q-146 0 -146 20zM92 1566 q0 16 58 56q4 2 10 8t10 8q-26 -22 -26 -32q14 -32 92 -92q104 -90 122 -104q8 -6 20 -6q2 0 10 2t12 0q44 -4 92 -4h50q14 -18 14 -24q0 -18 -116 -18q-48 0 -92 4q-4 2 -12 0t-10 -2q-8 0 -18 6q-16 12 -124 106q-78 60 -92 92zM294 576q16 2 48 2q24 0 70 -2t70 -2h28 q116 0 162 2q18 -292 28 -518q0 -78 14 -102q4 -6 38 -6q10 0 37 1t39 1h8h58q0 -40 -8 -40h-102h-8q-12 0 -39 -1t-37 -1q-32 0 -36 6q-14 24 -14 100q-6 142 -30 518q-46 -2 -162 -2h-28q-22 0 -66 2t-68 2q0 6 -1 20t-1 20zM314 1086q2 8 2 23t2 21q10 -2 47 -4t47 -2 l40 -4q16 -2 73 -10t91 -10l26 -2q10 0 16 -2q2 -6 0 -14t0 -14v-68v-242q-30 8 -52 10v190v68q-2 6 0 14t0 14q-6 2 -16 2l-24 2q-34 2 -89 11t-75 11l-42 4h-20t-26 2z" />
<glyph unicode="&#xc1;" horiz-adv-x="1028" d="M-10 -32q2 24 4 82t2 80q2 70 9 380t13 456v4q8 190 30 328v6q12 18 28 20q4 0 10 -1t10 -1q-18 -130 -26 -310v-4q-6 -146 -13 -456t-9 -382q-2 -22 -5 -81t-3 -81q0 -18 146 -18q8 0 24 1t22 1h12l-4 -40q-2 -2 -60 -2q-6 0 -21 -1t-23 -1q-146 0 -146 20zM294 576 q16 2 48 2q24 0 70 -2t70 -2h28q116 0 162 2q18 -292 28 -518q0 -78 14 -102q4 -6 38 -6q10 0 37 1t39 1h8h58q0 -40 -8 -40h-102h-8q-12 0 -39 -1t-37 -1q-32 0 -36 6q-14 24 -14 100q-6 142 -30 518q-46 -2 -162 -2h-28q-22 0 -66 2t-68 2q0 6 -1 20t-1 20zM314 1086 q2 8 2 23t2 21q10 -2 47 -4t47 -2l40 -4q16 -2 73 -10t91 -10l26 -2q10 0 16 -2q2 -6 0 -14t0 -14v-68v-242q-30 8 -52 10v190v68q-2 6 0 14t0 14q-6 2 -16 2l-24 2q-34 2 -89 11t-75 11l-42 4h-20t-26 2zM326 1382q0 18 60 78q16 16 51 50t51 50q12 12 42 39t53 51t37 42 q2 2 4 2q6 0 10 -2q-16 -16 -49 -47t-45 -43q-16 -16 -51 -50t-51 -50q-60 -60 -60 -78t114 -18q48 0 92 4q4 2 13 0t11 -2q8 0 18 6q-36 -30 -52 -42q-10 -6 -18 -6q-2 0 -10 2t-12 0q-44 -4 -92 -4q-116 0 -116 18z" />
<glyph unicode="&#xc2;" horiz-adv-x="1028" d="M-10 -32q2 24 4 82t2 80q2 70 9 380t13 456v4q8 190 30 328v6q12 18 28 20q4 0 10 -1t10 -1q-18 -130 -26 -310v-4q-6 -146 -13 -456t-9 -382q-2 -22 -5 -81t-3 -81q0 -18 146 -18q8 0 24 1t22 1h12l-4 -40q-2 -2 -60 -2q-6 0 -21 -1t-23 -1q-146 0 -146 20zM186 1492 q0 2 2 4q14 12 50 40q-2 -2 -2 -4q0 -6 7 -15t17 -21t14 -18q44 -66 58 -66h2q6 0 8 2q-2 -2 -7 -6t-7 -6q-38 -32 -44 -32h-2q-14 0 -60 68q-4 6 -13 18t-16 21t-7 15zM294 576q16 2 48 2q24 0 70 -2t70 -2h28q116 0 162 2q18 -292 28 -518q0 -78 14 -102q4 -6 38 -6 q10 0 37 1t39 1h8h58q0 -40 -8 -40h-102h-8q-12 0 -39 -1t-37 -1q-32 0 -36 6q-14 24 -14 100q-6 142 -30 518q-46 -2 -162 -2h-28q-22 0 -66 2t-68 2q0 6 -1 20t-1 20zM314 1086q2 8 2 23t2 21q10 -2 47 -4t47 -2l40 -4q16 -2 73 -10t91 -10l26 -2q10 0 16 -2q2 -6 0 -14 t0 -14v-68v-242q-30 8 -52 10v190v68q-2 6 0 14t0 14q-6 2 -16 2l-24 2q-34 2 -89 11t-75 11l-42 4h-20t-26 2zM406 1466q78 66 144 96q4 0 36 -31t46 -49q50 -66 68 -68q14 0 96 62q-16 -16 -32 -26q-98 -78 -116 -78q-16 2 -68 70q-14 18 -46 49t-36 31q-44 -18 -92 -56z " />
<glyph unicode="&#xc3;" horiz-adv-x="1028" d="M-10 -32q2 24 4 82t2 80q2 70 9 380t13 456v4q8 190 30 328v6q12 18 28 20q4 0 10 -1t10 -1q-18 -130 -26 -310v-4q-6 -146 -13 -456t-9 -382q-2 -22 -5 -81t-3 -81q0 -18 146 -18q8 0 24 1t22 1h12l-4 -40q-2 -2 -60 -2q-6 0 -21 -1t-23 -1q-146 0 -146 20zM152 1530 q0 6 22 28q36 36 62 50l-10 -10q-24 -24 -24 -26q0 -66 78 -144q38 28 46 36q60 44 100 44q12 0 44 -8q16 -8 32 -20t38 -30t28 -24q40 -22 80 -22q106 0 186 56q-2 -2 -6 -8l-4 -4q-104 -86 -228 -86q-36 0 -80 24q-6 6 -28 24t-38 30t-32 20q-24 6 -42 6q-42 0 -102 -44 l-44 -34q-78 78 -78 142zM294 576q16 2 48 2q24 0 70 -2t70 -2h28q116 0 162 2q18 -292 28 -518q0 -78 14 -102q4 -6 38 -6q10 0 37 1t39 1h8h58q0 -40 -8 -40h-102h-8q-12 0 -39 -1t-37 -1q-32 0 -36 6q-14 24 -14 100q-6 142 -30 518q-46 -2 -162 -2h-28q-22 0 -66 2 t-68 2q0 6 -1 20t-1 20zM314 1086q2 8 2 23t2 21q10 -2 47 -4t47 -2l40 -4q16 -2 73 -10t91 -10l26 -2q10 0 16 -2q2 -6 0 -14t0 -14v-68v-242q-30 8 -52 10v190v68q-2 6 0 14t0 14q-6 2 -16 2l-24 2q-34 2 -89 11t-75 11l-42 4h-20t-26 2z" />
<glyph unicode="&#xc4;" horiz-adv-x="1028" d="M-10 -32q2 24 4 82t2 80q2 70 9 380t13 456v4q8 190 30 328v6q12 18 28 20q4 0 10 -1t10 -1q-18 -130 -26 -310v-4q-6 -146 -13 -456t-9 -382q-2 -22 -5 -81t-3 -81q0 -18 146 -18q8 0 24 1t22 1h12l-4 -40q-2 -2 -60 -2q-6 0 -21 -1t-23 -1q-146 0 -146 20zM224 1440v12 q2 10 2 12t2 12t3 14t4 12t6 12t8 10t10 9t12 6t15 5q-6 -16 -12 -64q2 -64 74 -70q14 0 20 2q-20 -38 -70 -44q-72 6 -74 72zM294 576q16 2 48 2q24 0 70 -2t70 -2h28q116 0 162 2q18 -292 28 -518q0 -78 14 -102q4 -6 38 -6q10 0 37 1t39 1h8h58q0 -40 -8 -40h-102h-8 q-12 0 -39 -1t-37 -1q-32 0 -36 6q-14 24 -14 100q-6 142 -30 518q-46 -2 -162 -2h-28q-22 0 -66 2t-68 2q0 6 -1 20t-1 20zM314 1086q2 8 2 23t2 21q10 -2 47 -4t47 -2l40 -4q16 -2 73 -10t91 -10l26 -2q10 0 16 -2q2 -6 0 -14t0 -14v-68v-242q-30 8 -52 10v190v68 q-2 6 0 14t0 14q-6 2 -16 2l-24 2q-34 2 -89 11t-75 11l-42 4h-20t-26 2zM472 1452q0 8 4 28q8 44 58 62q-2 -4 -8 -20q-2 -10 -2 -30q0 -90 86 -96h4q8 0 24 4q-28 -44 -74 -44h-4q-88 6 -88 96z" />
<glyph unicode="&#xc5;" horiz-adv-x="1028" d="M-10 -32q2 24 4 82t2 80q2 70 9 380t13 456v4q8 190 30 328v6q12 18 28 20q4 0 10 -1t10 -1q-18 -130 -26 -310v-4q-6 -146 -13 -456t-9 -382q-2 -22 -5 -81t-3 -81q0 -18 146 -18q8 0 24 1t22 1h12l-4 -40q-2 -2 -60 -2q-6 0 -21 -1t-23 -1q-146 0 -146 20zM252 1428 q0 62 18 96q32 58 80 82q-12 -12 -28 -40q-20 -38 -20 -96q0 -28 10 -52q12 -44 58 -82q40 -28 82 -40q16 -4 48 -4t54 8q-12 -16 -20 -22q-28 -28 -86 -28q-30 0 -46 4q-38 10 -82 42q-48 42 -60 82q-8 18 -8 50zM294 576q16 2 48 2q24 0 70 -2t70 -2h28q116 0 162 2 q18 -292 28 -518q0 -78 14 -102q4 -6 38 -6q10 0 37 1t39 1h8h58q0 -40 -8 -40h-102h-8q-12 0 -39 -1t-37 -1q-32 0 -36 6q-14 24 -14 100q-6 142 -30 518q-46 -2 -162 -2h-28q-22 0 -66 2t-68 2q0 6 -1 20t-1 20zM314 1086q2 8 2 23t2 21q10 -2 47 -4t47 -2l40 -4 q16 -2 73 -10t91 -10l26 -2q10 0 16 -2q2 -6 0 -14t0 -14v-68v-242q-30 8 -52 10v190v68q-2 6 0 14t0 14q-6 2 -16 2l-24 2q-34 2 -89 11t-75 11l-42 4h-20t-26 2zM430 1500q12 28 42 38q4 2 12 2q20 0 42 -22q6 -8 10 -24v-12q0 -22 -10 -42q-14 -26 -36 -30h-10q6 14 6 32 v10q-4 16 -12 26q-22 22 -42 22h-2z" />
<glyph unicode="&#xc6;" horiz-adv-x="1498" d="M-10 -32q2 24 4 82t2 80q2 70 9 380t13 456v4q8 190 30 328v6q12 18 28 20q4 0 10 -1t10 -1q-18 -130 -26 -310v-4q-6 -146 -13 -456t-9 -382q-2 -22 -5 -81t-3 -81q0 -18 146 -18q8 0 24 1t22 1h10q0 -32 -2 -40q-4 -4 -22 -4q-8 0 -21 1t-17 1q-6 0 -21 -1t-23 -1 q-146 0 -146 20zM294 576q16 2 48 2q24 0 70 -2t70 -2h28q116 0 162 2q18 -292 28 -518q0 -78 14 -102q4 -6 38 -6q98 0 299 1t303 1q-6 -40 -24 -40q-106 0 -317 -1t-313 -1q-32 0 -36 6q-14 24 -14 100q-6 142 -30 518q-46 -2 -162 -2h-28q-22 0 -66 2t-68 2q0 6 -1 20 t-1 20zM314 1086q0 16 4 44q10 -2 47 -4t47 -2l40 -4q12 -2 75 -10t97 -10l24 -2v-2v-80q0 -128 8 -196q0 -4 1 -10t1 -8v-44q-30 8 -52 10q0 2 -1 5t-1 5q-8 68 -8 198v78v2l-22 2q-34 2 -94 11t-78 11l-42 4h-20t-26 2zM892 1104q34 6 119 9t95 3q24 0 74 4t76 4q6 0 22 1 t24 1l-2 -40q-12 0 -48 -1t-48 -1q-26 0 -76 -3t-74 -5q-146 -6 -160 -8q0 6 -1 18t-1 18zM916 560q34 -4 104 -4q46 0 130 1t128 1h6q-6 -44 -14 -44q-12 2 -44 2q-44 0 -128 -1t-130 -1q-8 0 -24 1t-24 1q0 8 -2 22t-2 22z" />
<glyph unicode="&#xc7;" horiz-adv-x="948" d="M-40 704q0 104 14 158q40 152 162 244q4 2 10 6q-92 -90 -122 -208q-14 -54 -14 -158q0 -338 150 -534t448 -196q92 0 192 30h6q0 -4 -2 -8t-2 -6q-4 -14 -36 -22q-10 -4 -16 -6q-92 -28 -192 -28q-300 0 -449 195t-149 533zM116 -370q0 8 6 14q12 14 43 52t44 57t34 55 t36 74t25 86q4 24 24 24q8 0 22 -6q-10 -42 -24 -77t-35 -69t-34 -52t-43 -55t-40 -49q-6 -6 -6 -14q0 -20 62 -52q60 -38 82 -40q4 0 16 4q-38 -42 -66 -44q-24 2 -82 38q-64 34 -64 54zM318 946q82 90 298 90q24 0 71 -4t63 -4q-10 -40 -22 -40q-30 0 -83 4t-79 4 q-166 0 -248 -50z" />
<glyph unicode="&#xc8;" horiz-adv-x="872" d="M-24 1082q0 110 4 172q-2 4 -2 12q0 24 22 28q10 2 30 2v-2q-4 -62 -4 -172q0 -104 18 -276q18 -164 35 -467t21 -363q0 -12 9 -20t25 -11t31 -3t36 -1t31 -1q48 -4 76 -4q34 0 101 3t103 3h34q18 -2 60 -2q16 0 50 1t50 1h36q-8 -44 -26 -44q-18 2 -60 2q-16 0 -50 -1 t-50 -1q-42 0 -60 2h-36q-36 0 -103 -3t-101 -3q-28 0 -76 4q-10 0 -31 1t-35 2t-30 4t-25 11t-9 20q-2 34 -21 348t-37 480q-16 154 -16 278zM30 1562q0 16 58 56q4 2 10 8t10 8q-26 -22 -26 -32q14 -32 92 -92q104 -90 122 -104q8 -6 20 -6q2 0 10 2t12 0q44 -4 92 -4h50 q14 -18 14 -24q0 -18 -116 -18q-48 0 -92 4q-4 2 -12 0t-10 -2q-8 0 -18 6q-16 12 -124 106q-78 60 -92 92zM270 1094q0 4 1 15t1 17q26 6 64 9t89 4t69 3q26 2 76 5t74 3q6 0 22 1t24 1l-2 -40q-12 0 -48 -1t-48 -1q-26 -2 -76 -5t-74 -3q-20 -2 -81 -3t-91 -5zM300 542v46 q50 -6 108 -6q20 0 57 1t55 1q8 0 28 -1t30 -1h18q10 0 34 1t36 1h6q-6 -44 -14 -44q-12 2 -44 2q-12 0 -36 -1t-34 -1h-18q-10 0 -30 1t-28 1q-18 0 -55 -1t-57 -1q-38 0 -56 2z" />
<glyph unicode="&#xc9;" horiz-adv-x="872" d="M-24 1082q0 110 4 172q-2 4 -2 12q0 24 22 28q10 2 30 2v-2q-4 -62 -4 -172q0 -104 18 -276q18 -164 35 -467t21 -363q0 -12 9 -20t25 -11t31 -3t36 -1t31 -1q48 -4 76 -4q34 0 101 3t103 3h34q18 -2 60 -2q16 0 50 1t50 1h36q-8 -44 -26 -44q-18 2 -60 2q-16 0 -50 -1 t-50 -1q-42 0 -60 2h-36q-36 0 -103 -3t-101 -3q-28 0 -76 4q-10 0 -31 1t-35 2t-30 4t-25 11t-9 20q-2 34 -21 348t-37 480q-16 154 -16 278zM222 1382q0 18 60 78q16 16 51 50t51 50q12 12 42 39t53 51t37 42q2 2 4 2q6 0 10 -2q-16 -16 -49 -47t-45 -43q-16 -16 -51 -50 t-51 -50q-60 -60 -60 -78t114 -18q48 0 92 4q4 2 13 0t11 -2q8 0 18 6q-36 -30 -52 -42q-10 -6 -18 -6q-2 0 -10 2t-12 0q-44 -4 -92 -4q-116 0 -116 18zM270 1094q0 4 1 15t1 17q26 6 64 9t89 4t69 3q26 2 76 5t74 3q6 0 22 1t24 1l-2 -40q-12 0 -48 -1t-48 -1 q-26 -2 -76 -5t-74 -3q-20 -2 -81 -3t-91 -5zM300 542v46q50 -6 108 -6q20 0 57 1t55 1q8 0 28 -1t30 -1h18q10 0 34 1t36 1h6q-6 -44 -14 -44q-12 2 -44 2q-12 0 -36 -1t-34 -1h-18q-10 0 -30 1t-28 1q-18 0 -55 -1t-57 -1q-38 0 -56 2z" />
<glyph unicode="&#xca;" horiz-adv-x="872" d="M-24 1082q0 110 4 172q-2 4 -2 12q0 24 22 28q10 2 30 2v-2q-4 -62 -4 -172q0 -104 18 -276q18 -164 35 -467t21 -363q0 -12 9 -20t25 -11t31 -3t36 -1t31 -1q48 -4 76 -4q34 0 101 3t103 3h34q18 -2 60 -2q16 0 50 1t50 1h36q-8 -44 -26 -44q-18 2 -60 2q-16 0 -50 -1 t-50 -1q-42 0 -60 2h-36q-36 0 -103 -3t-101 -3q-28 0 -76 4q-10 0 -31 1t-35 2t-30 4t-25 11t-9 20q-2 34 -21 348t-37 480q-16 154 -16 278zM42 1496q0 2 2 4q68 54 96 76q-6 -6 -16 -14q-18 -16 -28 -22q-2 -2 -2 -4q0 -6 7 -15t16 -21t13 -18q44 -66 60 -66h2q4 0 6 2 q-2 -2 -6 -5t-6 -5q-42 -34 -46 -34h-2q-14 0 -60 68q-4 6 -13 18t-16 21t-7 15zM264 1470q80 68 142 96q4 0 36 -31t46 -49q50 -66 68 -68q14 0 96 62q-20 -20 -30 -26q-98 -78 -116 -78h-2q-14 2 -66 70q-14 18 -46 49t-36 31q-44 -18 -92 -56zM270 1094q0 4 1 15t1 17 q26 6 64 9t89 4t69 3q26 2 76 5t74 3q6 0 22 1t24 1l-2 -40q-12 0 -48 -1t-48 -1q-26 -2 -76 -5t-74 -3q-20 -2 -81 -3t-91 -5zM300 542v46q50 -6 108 -6q20 0 57 1t55 1q8 0 28 -1t30 -1h18q10 0 34 1t36 1h6q-6 -44 -14 -44q-12 2 -44 2q-12 0 -36 -1t-34 -1h-18 q-10 0 -30 1t-28 1q-18 0 -55 -1t-57 -1q-38 0 -56 2z" />
<glyph unicode="&#xcb;" horiz-adv-x="872" d="M-24 1082q0 110 4 172q-2 4 -2 12q0 24 22 28q10 2 30 2v-2q-4 -62 -4 -172q0 -104 18 -276q18 -164 35 -467t21 -363q0 -12 9 -20t25 -11t31 -3t36 -1t31 -1q48 -4 76 -4q34 0 101 3t103 3h34q18 -2 60 -2q16 0 50 1t50 1h36q-8 -44 -26 -44q-18 2 -60 2q-16 0 -50 -1 t-50 -1q-42 0 -60 2h-36q-36 0 -103 -3t-101 -3q-28 0 -76 4q-10 0 -31 1t-35 2t-30 4t-25 11t-9 20q-2 34 -21 348t-37 480q-16 154 -16 278zM144 1448v12q2 10 2 12t2 12t3 14t4 12t6 12t8 10t10 9t12 6t15 5q-8 -18 -12 -62q2 -66 74 -72q8 0 20 4q-20 -38 -70 -44 q-72 6 -74 70zM270 1094q0 4 1 15t1 17q26 6 64 9t89 4t69 3q26 2 76 5t74 3q6 0 22 1t24 1l-2 -40q-12 0 -48 -1t-48 -1q-26 -2 -76 -5t-74 -3q-20 -2 -81 -3t-91 -5zM300 542v46q50 -6 108 -6q20 0 57 1t55 1q8 0 28 -1t30 -1h18q10 0 34 1t36 1h6q-6 -44 -14 -44 q-12 2 -44 2q-12 0 -36 -1t-34 -1h-18q-10 0 -30 1t-28 1q-18 0 -55 -1t-57 -1q-38 0 -56 2zM392 1460q0 10 4 30q2 18 19 35t39 25q-2 -4 -8 -20q-2 -10 -2 -28q0 -90 86 -96h4q8 0 24 4q-28 -46 -74 -46h-4q-88 6 -88 96z" />
<glyph unicode="&#xcc;" horiz-adv-x="382" d="M-184 1498q0 16 55 56q4 2 10 8t9 8q-24 -22 -24 -32q13 -32 87 -92q99 -90 116 -104q7 -6 19 -6q2 0 9.5 2t11.5 0q41 -4 87 -4h47q14 -18 14 -24q0 -18 -110 -18q-46 0 -88 4q-3 2 -11 0t-10 -2q-7 0 -17 6q-15 12 -117 106q-74 60 -88 92zM-28 -52v158q4 350 36 828 q2 44 8 114t8 134q0 46 4 54q2 10 50 14q0 -6 -1 -12t-1 -10v-6q-2 -64 -8 -134t-8 -114q-34 -516 -38 -826v-158q0 -8 30 -8q12 0 53 2t61 2h10h64q0 -42 -8 -42h-40h-68h-10q-20 0 -61 -2t-53 -2q-28 0 -28 8z" />
<glyph unicode="&#xcd;" horiz-adv-x="382" d="M-28 -52v158q4 350 36 828q2 44 8 114t8 134q0 46 4 54q2 10 50 14q0 -6 -1 -12t-1 -10v-6q-2 -64 -8 -134t-8 -114q-34 -516 -38 -826v-158q0 -8 30 -8q12 0 53 2t61 2h10h64q0 -42 -8 -42h-40h-68h-10q-20 0 -61 -2t-53 -2q-28 0 -28 8zM73 1302q0 18 54 78 q14 16 45.5 50t46.5 50q10 12 37 39t48 51t33 42q2 2 4 2q5 0 9 -2q-14 -16 -44 -47t-41 -43q-14 -16 -45.5 -50t-45.5 -50q-54 -60 -54 -78t102 -18q43 0 83 4q4 2 12 0t10 -2q7 0 16 6q-33 -30 -47 -42q-9 -6 -16 -6q-2 0 -9 2t-11 0q-40 -4 -83 -4q-104 0 -104 18z" />
<glyph unicode="&#xce;" horiz-adv-x="382" d="M-124 1420q0 2 1 4q61 54 85 76q-5 -6 -14 -14q-16 -16 -25 -22q-1 -2 -1 -4q0 -6 6 -15l14 -21l12 -18q38 -66 53 -66h1q4 0 6 2q-2 -2 -5.5 -5t-5.5 -5q-37 -34 -41 -34h-1q-13 0 -54 68q-3 6 -11 18l-14 21t-6 15zM-28 -52v158q4 350 36 828q2 44 8 114t8 134 q0 46 4 54q2 10 50 14q0 -6 -1 -12t-1 -10v-6q-2 -64 -8 -134t-8 -114q-34 -516 -38 -826v-158q0 -8 30 -8q12 0 53 2t61 2h10h64q0 -42 -8 -42h-40h-68h-10q-20 0 -61 -2t-53 -2q-28 0 -28 8zM72 1394q71 68 126 96q4 0 32 -31t41 -49q44 -66 60 -68q12 0 85 62 q-18 -20 -27 -26q-86 -78 -102 -78h-2q-13 2 -59 70q-12 18 -40.5 49t-31.5 31q-39 -18 -82 -56z" />
<glyph unicode="&#xcf;" horiz-adv-x="382" d="M-34 1376v12q2 10 2 12t2 12t2.5 14t3.5 12t5.5 12t7 10t9 9t10.5 6t13 5q-7 -18 -11 -62q2 -66 66 -72q7 0 17 4q-17 -38 -61 -44q-64 6 -66 70zM-28 -52v158q4 350 36 828q2 44 8 114t8 134q0 46 4 54q2 10 50 14q0 -6 -1 -12t-1 -10v-6q-2 -64 -8 -134t-8 -114 q-34 -516 -38 -826v-158q0 -8 30 -8q12 0 53 2t61 2h10h64q0 -42 -8 -42h-40h-68h-10q-20 0 -61 -2t-53 -2q-28 0 -28 8zM185 1388q0 10 3 30q2 18 17 35t34 25q-1 -4 -7 -20q-1 -10 -1 -28q0 -90 75 -96h4q7 0 21 4q-25 -46 -65 -46h-4q-77 6 -77 96z" />
<glyph unicode="&#xd0;" horiz-adv-x="876" d="M-62 748q0 16 52 20q0 -16 5 -67t5 -67q0 -36 5 -44t21 -8h28q2 -52 5 -142t3 -124q0 -16 1 -46t1 -46v-48v-98v-66q0 -20 40 -20q10 0 38 2t42 2q34 0 82 12q134 34 212 84q6 4 17 12t17 12q-26 -24 -86 -64q-80 -52 -210 -84q-56 -14 -82 -14q-14 0 -42 -2t-38 -2 q-42 0 -42 22v64v100v46q0 14 -1 46t-1 46q-2 92 -6 266h-28q-18 0 -23 10t-5 44q0 18 -5 78t-5 76zM-4 940v140q0 78 4 198q0 10 50 10q-2 -52 -2 -168v-140v-112v-58q-36 -4 -50 -12q0 24 -1 72t-1 70zM278 1010q0 30 2 44q118 0 199 -63t81 -171q0 -6 -1 -20t-1 -20 q0 -156 -55 -286t-145 -200q-2 -4 -10 -8q-6 -4 -10 -6q78 74 122 194q44 122 46 266q0 6 1 19t1 19q0 94 -65 156t-165 76zM280 556v38q52 4 88 4h24h6v-24q0 -16 -58 -16h-22q-8 0 -20 -1t-18 -1z" />
<glyph unicode="&#xd1;" horiz-adv-x="1348" d="M-6 1174q0 122 18 130q8 0 36 -18q-2 -20 -2 -72q0 -92 6 -194q6 -118 8 -345t2 -267q0 -8 1 -29t1 -31q0 -34 -2 -105t-2 -107v-38l4 -102q0 -8 32 -8q12 0 96 6h6q20 0 52 -4q0 -8 -1 -20t-1 -16q0 -8 -22 -8q-10 0 -38 3t-40 3h-6q-84 -6 -96 -6q-34 0 -34 8l-4 104 v36q0 36 2 108t2 106q0 10 -1 30t-1 28q0 40 -2 267t-8 345q-6 102 -6 196zM288 844q10 -8 14 -13t7 -11t11 -16q4 -4 12 -16t14 -16q18 -22 57 -59t53 -53l109 -109t107 -109q56 -60 181 -173t183 -177q42 -50 120 -112l4 -2q4 -2 4 -4l-6 -24q-6 -20 -30 -20q-14 0 -24 8 q-66 52 -118 114q-58 64 -184 177t-182 173q-34 38 -106 109t-108 107q-14 16 -54 54t-58 60q-4 76 -6 112zM292 1410q0 6 22 28q36 36 62 50l-10 -10q-24 -24 -24 -26q0 -66 78 -144q38 28 46 36q60 44 100 44q12 0 44 -8q16 -8 32 -20t38 -30t28 -24q40 -22 80 -22 q106 0 186 56q-2 -2 -6 -8l-4 -4q-104 -86 -228 -86q-36 0 -80 24q-6 6 -28 24t-38 30t-32 20q-24 6 -42 6q-42 0 -102 -44l-44 -34q-78 78 -78 142zM978 518v12q0 12 6 89t12 155t13 163t14 138t13 53h40q-8 -54 -18 -177t-18 -243t-10 -136q-2 -14 -5 -39t-3 -37 q0 -22 -2 -32z" />
<glyph unicode="&#xd2;" horiz-adv-x="1082" d="M-38 670q0 246 216 400q-166 -150 -166 -360q0 -170 76 -336q84 -172 314 -258q58 -20 158 -20h16q112 0 196 58q-104 -98 -248 -98h-16q-100 0 -158 20q-230 86 -314 258q-74 162 -74 336zM104 1452q0 16 58 56q4 2 10 8t10 8q-26 -22 -26 -32q14 -32 92 -92 q104 -90 122 -104q8 -6 20 -6q2 0 10 2t12 0q44 -4 92 -4h50q14 -18 14 -24q0 -18 -116 -18q-48 0 -92 4q-4 2 -12 0t-10 -2q-8 0 -18 6q-16 12 -124 106q-78 60 -92 92zM342 870q6 8 22 20q90 66 164 66q76 0 154 -52q98 -82 98 -232q0 -20 -4 -56q-10 -64 -43 -123 t-85 -87q58 64 76 170q0 6 2 17t3 20t1 17q0 148 -100 232q-82 54 -152 54q-64 0 -136 -46z" />
<glyph unicode="&#xd3;" horiz-adv-x="1082" d="M-38 670q0 246 216 400q-166 -150 -166 -360q0 -170 76 -336q84 -172 314 -258q58 -20 158 -20h16q112 0 196 58q-104 -98 -248 -98h-16q-100 0 -158 20q-230 86 -314 258q-74 162 -74 336zM342 870q6 8 22 20q90 66 164 66q76 0 154 -52q98 -82 98 -232q0 -20 -4 -56 q-10 -64 -43 -123t-85 -87q58 64 76 170q0 6 2 17t3 20t1 17q0 148 -100 232q-82 54 -152 54q-64 0 -136 -46zM392 1264q0 18 60 78q16 16 51 50t51 50q12 12 42 39t53 51t37 42q2 2 4 2q6 0 10 -2q-16 -16 -49 -47t-45 -43q-16 -16 -51 -50t-51 -50q-60 -60 -60 -78 t114 -18q48 0 92 4q4 2 13 0t11 -2q8 0 18 6q-36 -30 -52 -42q-10 -6 -18 -6q-2 0 -10 2t-12 0q-44 -4 -92 -4q-116 0 -116 18z" />
<glyph unicode="&#xd4;" horiz-adv-x="1082" d="M-38 670q0 246 216 400q-166 -150 -166 -360q0 -170 76 -336q84 -172 314 -258q58 -20 158 -20h16q112 0 196 58q-104 -98 -248 -98h-16q-100 0 -158 20q-230 86 -314 258q-74 162 -74 336zM212 1322q0 2 2 4q68 54 96 76q-6 -6 -16 -14q-18 -16 -28 -22q-2 -2 -2 -4 q0 -6 7 -15t16 -21t13 -18q44 -66 60 -66h2q4 0 6 2q-2 -2 -6 -5t-6 -5q-42 -34 -46 -34h-2q-14 0 -60 68q-4 6 -13 18t-16 21t-7 15zM342 870q6 8 22 20q90 66 164 66q76 0 154 -52q98 -82 98 -232q0 -20 -4 -56q-10 -64 -43 -123t-85 -87q58 64 76 170q0 6 2 17t3 20t1 17 q0 148 -100 232q-82 54 -152 54q-64 0 -136 -46zM434 1296q80 68 142 96q4 0 36 -31t46 -49q50 -66 68 -68q14 0 96 62q-20 -20 -30 -26q-98 -78 -116 -78h-2q-14 2 -66 70q-14 18 -46 49t-36 31q-44 -18 -92 -56z" />
<glyph unicode="&#xd5;" horiz-adv-x="1082" d="M-38 670q0 246 216 400q-166 -150 -166 -360q0 -170 76 -336q84 -172 314 -258q58 -20 158 -20h16q112 0 196 58q-104 -98 -248 -98h-16q-100 0 -158 20q-230 86 -314 258q-74 162 -74 336zM144 1386q0 6 22 28q36 36 62 50l-10 -10q-24 -24 -24 -26q0 -66 78 -144 q38 28 46 36q60 44 100 44q12 0 44 -8q16 -8 32 -20t38 -30t28 -24q40 -22 80 -22q106 0 186 56q-2 -2 -6 -8l-4 -4q-104 -86 -228 -86q-36 0 -80 24q-6 6 -28 24t-38 30t-32 20q-24 6 -42 6q-42 0 -102 -44l-44 -34q-78 78 -78 142zM342 870q6 8 22 20q90 66 164 66 q76 0 154 -52q98 -82 98 -232q0 -20 -4 -56q-10 -64 -43 -123t-85 -87q58 64 76 170q0 6 2 17t3 20t1 17q0 148 -100 232q-82 54 -152 54q-64 0 -136 -46z" />
<glyph unicode="&#xd6;" horiz-adv-x="1082" d="M-38 670q0 246 216 400q-166 -150 -166 -360q0 -170 76 -336q84 -172 314 -258q58 -20 158 -20h16q112 0 196 58q-104 -98 -248 -98h-16q-100 0 -158 20q-230 86 -314 258q-74 162 -74 336zM286 1302v12q2 10 2 12t2 12t3 14t4 12t6 12t8 10t10 9t12 6t15 5 q-8 -18 -12 -62q2 -66 74 -72q8 0 20 4q-20 -38 -70 -44q-72 6 -74 70zM342 870q6 8 22 20q90 66 164 66q76 0 154 -52q98 -82 98 -232q0 -20 -4 -56q-10 -64 -43 -123t-85 -87q58 64 76 170q0 6 2 17t3 20t1 17q0 148 -100 232q-82 54 -152 54q-64 0 -136 -46zM534 1314 q0 10 4 30q2 18 19 35t39 25q-2 -4 -8 -20q-2 -10 -2 -28q0 -90 86 -96h4q8 0 24 4q-28 -46 -74 -46h-4q-88 6 -88 96z" />
<glyph unicode="&#xd7;" horiz-adv-x="690" d="M-72 282v8q0 18 30 58v2q20 28 61 80t71 92t52 78q-52 80 -116 172q-4 8 -30 52l-32 54q0 4 -12 30l-12 28v4q0 22 56 26q2 -6 7 -17t9 -19t4 -10l30 -56q12 -24 32 -50q38 -52 114 -174q-22 -38 -51 -77t-71 -94t-60 -79l-2 -2q-30 -40 -30 -56l2 -4v-4q4 -14 37 -36 t65 -36l32 -16q6 -6 22 -6h4q-42 -42 -50 -42h-6q-14 0 -20 6q-128 58 -136 88zM290 390q10 12 40 58q34 -44 98 -144q0 -2 17 -34t23 -34h2q2 -2 4 -2t10 3t12 3q42 2 98 38q-26 -28 -70 -53t-80 -27q-4 0 -12 -2t-10 -2h-4q-6 2 -23 34t-17 34q-44 70 -88 128zM330 828 q2 4 20 32t30 44l8 16q8 14 15 28t17 26t16 12q2 0 7 -1t9 -1q-20 -36 -22 -38q-18 -22 -43 -63t-41 -63q-2 -2 -2 -6l-4 -4l-5 10t-5 8z" />
<glyph unicode="&#xd8;" horiz-adv-x="1082" d="M-38 670q0 94 32 160q44 92 116 176q34 38 88 76l-36 -36q-72 -84 -116 -176q-34 -72 -34 -160q0 -170 76 -336q38 -84 124 -152q-16 -32 -54 -102t-58 -108q4 -20 64 -20q38 0 56 1t24 1q-8 -14 -20 -42q-30 0 -49 -1t-63 -1q-56 0 -62 22q38 72 110 208 q-84 68 -124 154q-74 162 -74 336zM324 86q2 6 7 16t10 19t9 17q28 -14 52 -22q58 -20 158 -20h16q112 0 196 58q-104 -98 -248 -98h-16q-100 0 -158 20q-4 2 -13 5t-13 5zM328 502q160 308 216 404q-36 10 -66 10q-64 0 -136 -46q6 8 22 20q90 66 164 66q32 0 68 -10 q-90 -160 -250 -466q-4 4 -10 11t-8 11zM640 404q68 72 84 172q0 6 2 17t3 20t1 17q0 100 -48 174q4 12 15 34l17 34q66 -80 66 -200q0 -20 -4 -56q-18 -118 -118 -202l-10 -5t-8 -5zM682 1194q42 94 42 96q2 16 22 16h18q-12 -28 -56 -124q-16 8 -26 12z" />
<glyph unicode="&#xd9;" horiz-adv-x="1112" d="M-12 722v38v72q0 180 10 300q10 78 18 86q4 4 16 4q2 0 11 -1t13 -1q-4 -40 -6 -46q-12 -144 -12 -300q0 -72 2 -110l6 -198q12 -240 98 -376q54 -90 154 -156q110 -66 224 -66h64q110 0 196 56q-106 -98 -246 -98h-66q-110 0 -224 68q-96 64 -152 156q-88 140 -100 374z M176 1508q0 16 58 56q4 2 10 8t10 8q-26 -22 -26 -32q14 -32 92 -92q104 -90 122 -104q8 -6 20 -6q2 0 10 2t12 0q44 -4 92 -4h50q14 -18 14 -24q0 -18 -116 -18q-48 0 -92 4q-4 2 -12 0t-10 -2q-8 0 -18 6q-16 12 -124 106q-78 60 -92 92zM588 294q94 94 124 242 q24 124 24 344v78v284v8q0 4 12 4h40v-254v-78q0 -208 -26 -344q-16 -82 -63 -164t-111 -120z" />
<glyph unicode="&#xda;" horiz-adv-x="1112" d="M-12 722v38v72q0 180 10 300q10 78 18 86q4 4 16 4q2 0 11 -1t13 -1q-4 -40 -6 -46q-12 -144 -12 -300q0 -72 2 -110l6 -198q12 -240 98 -376q54 -90 154 -156q110 -66 224 -66h64q110 0 196 56q-106 -98 -246 -98h-66q-110 0 -224 68q-96 64 -152 156q-88 140 -100 374z M368 1318q0 18 60 78q16 16 51 50t51 50q12 12 42 39t53 51t37 42q2 2 4 2q6 0 10 -2q-16 -16 -49 -47t-45 -43q-16 -16 -51 -50t-51 -50q-60 -60 -60 -78t114 -18q48 0 92 4q4 2 13 0t11 -2q8 0 18 6q-36 -30 -52 -42q-10 -6 -18 -6q-2 0 -10 2t-12 0q-44 -4 -92 -4 q-116 0 -116 18zM588 294q94 94 124 242q24 124 24 344v78v284v8q0 4 12 4h40v-254v-78q0 -208 -26 -344q-16 -82 -63 -164t-111 -120z" />
<glyph unicode="&#xdb;" horiz-adv-x="1112" d="M-12 722v38v72q0 180 10 300q10 78 18 86q4 4 16 4q2 0 11 -1t13 -1q-4 -40 -6 -46q-12 -144 -12 -300q0 -72 2 -110l6 -198q12 -240 98 -376q54 -90 154 -156q110 -66 224 -66h64q110 0 196 56q-106 -98 -246 -98h-66q-110 0 -224 68q-96 64 -152 156q-88 140 -100 374z M210 1452q0 2 2 4q68 54 96 76q-6 -6 -16 -14q-18 -16 -28 -22q-2 -2 -2 -4q0 -6 7 -15t16 -21t13 -18q44 -66 60 -66h2q4 0 6 2q-2 -2 -6 -5t-6 -5q-42 -34 -46 -34h-2q-14 0 -60 68q-4 6 -13 18t-16 21t-7 15zM432 1426q80 68 142 96q4 0 36 -31t46 -49q50 -66 68 -68 q14 0 96 62q-20 -20 -30 -26q-98 -78 -116 -78h-2q-14 2 -66 70q-14 18 -46 49t-36 31q-44 -18 -92 -56zM588 294q94 94 124 242q24 124 24 344v78v284v8q0 4 12 4h40v-254v-78q0 -208 -26 -344q-16 -82 -63 -164t-111 -120z" />
<glyph unicode="&#xdc;" horiz-adv-x="1112" d="M-12 722v38v72q0 180 10 300q10 78 18 86q4 4 16 4q2 0 11 -1t13 -1q-4 -40 -6 -46q-12 -144 -12 -300q0 -72 2 -110l6 -198q12 -240 98 -376q54 -90 154 -156q110 -66 224 -66h64q110 0 196 56q-106 -98 -246 -98h-66q-110 0 -224 68q-96 64 -152 156q-88 140 -100 374z M298 1406v12q2 10 2 12t2 12t3 14t4 12t6 12t8 10t10 9t12 6t15 5q-8 -18 -12 -62q2 -66 74 -72q8 0 20 4q-20 -38 -70 -44q-72 6 -74 70zM546 1418q0 10 4 30q2 18 19 35t39 25q-2 -4 -8 -20q-2 -10 -2 -28q0 -90 86 -96h4q8 0 24 4q-28 -46 -74 -46h-4q-88 6 -88 96z M588 294q94 94 124 242q24 124 24 344v78v284v8q0 4 12 4h40v-254v-78q0 -208 -26 -344q-16 -82 -63 -164t-111 -120z" />
<glyph unicode="&#xdd;" horiz-adv-x="1076" d="M-68 1208q0 24 54 30q70 -136 187 -315t185 -251v-194v-68q4 -104 4 -156q0 -112 6 -220l4 -54q12 -12 138 -12h42q0 -32 -8 -40q-2 0 -33 -1t-53 -1q-124 0 -136 12q-4 40 -4 56q-6 108 -6 218q0 52 -4 156v68v194q-68 72 -186 253t-188 315q-2 4 -2 10zM336 1336 q0 18 60 78q16 16 51 50t51 50q12 12 42 39t53 51t37 42q2 2 4 2q6 0 10 -2q-16 -16 -49 -47t-45 -43q-16 -16 -51 -50t-51 -50q-60 -60 -60 -78t114 -18q48 0 92 4q4 2 13 0t11 -2q8 0 18 6q-36 -30 -52 -42q-10 -6 -18 -6q-2 0 -10 2t-12 0q-44 -4 -92 -4q-116 0 -116 18z M490 900q32 38 115 144t135 170q22 32 42 34l2 -2q-44 -56 -109 -139t-107 -135t-72 -84z" />
<glyph unicode="&#xde;" horiz-adv-x="882" d="M-18 -34q0 22 2 63t2 63q0 552 14 1054q0 12 2 41t3 47t3 39t6 32t10 11q22 0 36 -2q-2 -20 -8 -126q-16 -572 -16 -1054q0 -22 -2 -64t-2 -64v-32q0 -24 196 -24q-4 -40 -12 -40h-34q-200 0 -200 22v34zM282 316v32q28 10 94 10h28q48 0 70 4q82 12 174 76 q-108 -96 -226 -116q-22 -4 -68 -4h-28q-6 0 -22 -1t-22 -1zM284 824v10q0 6 4 18t4 18q14 -2 39 -5t37 -3q64 0 126 -22q60 -32 72 -72v-18q0 -52 -32 -102q-26 -26 -48 -38q28 46 28 100v18q-12 38 -72 70q-68 24 -124 24q-22 0 -34 2z" />
<glyph unicode="&#xdf;" horiz-adv-x="978" d="M-14 778q0 62 2 100q10 250 100 356q32 30 56 46l-4 -4q-92 -108 -102 -356v-36v-66v-62v-32v-74q0 -246 22 -642q2 -16 60 -33t116 -25q0 -34 -2 -38q-2 -6 -22 -6q-46 0 -124 22t-80 40q-20 360 -20 642v74q-2 32 -2 94zM294 558q0 64 82 116l2 2h2q-34 -38 -34 -78 q0 -86 33 -109t147 -39q70 -16 111 -49t41 -77q0 -62 -86 -116q34 36 34 76q0 44 -40 77t-110 49q-64 10 -87 15t-52 20t-36 41t-7 72zM318 -16q0 46 6 91t12 45q8 0 21 1t19 1q-6 -42 -6 -98q0 -68 10 -68h16q160 0 310 58q42 16 68 32q-38 -42 -118 -72q-150 -58 -310 -58 h-16q-12 0 -12 68zM318 1090q30 46 84 46h2q68 0 105 -54t37 -130q0 -12 -4 -40q-8 -62 -42 -118t-72 -80q-2 -2 -7 -5t-7 -5q66 74 78 166q2 14 2 40q0 76 -37 130t-105 54h-2q-12 0 -32 -4zM646 670q2 2 4 2t4 2l-2 -2q-4 0 -4 -2h-2z" />
<glyph unicode="&#xe0;" d="M-6 610q0 40 3 119t3 121v40q0 48 4 144v48q0 20 -1 61t-1 57q0 74 14 74h38v-32q0 -16 1 -58t1 -62v-46q-4 -96 -4 -144v-42q0 -42 -3 -120t-3 -118q0 -102 5 -343t5 -339q0 -26 160 -26h20v-20q0 -22 -28 -22q-4 0 -19 1t-25 1q-160 0 -160 24q0 98 -5 339t-5 343z M90 1516q0 16 58 56q4 2 10 8t10 8q-26 -22 -26 -32q14 -32 92 -92q104 -90 122 -104q8 -6 20 -6q2 0 10 2t12 0q44 -4 92 -4h50q14 -18 14 -24q0 -18 -116 -18q-48 0 -92 4q-4 2 -12 0t-10 -2q-8 0 -18 6q-16 12 -124 106q-78 60 -92 92zM284 510q4 0 4 8q2 2 8 2 q42 6 86 6q36 0 99 -4t83 -4h46h62h16q0 -2 3 -19t3 -27q0 -46 7 -206t7 -226q0 -32 74 -32q6 0 22 1t22 1q10 2 30 2h30q0 -22 -4 -26q-10 -10 -25 -13t-47 -3h-36q-6 0 -20 -1t-22 -1q-74 0 -74 32q0 66 -7 225t-7 205q0 10 -4 26t-4 22h-16h-60h-48q-20 0 -82 4t-98 4 q-30 0 -46 -2q0 6 -1 14t-1 12zM290 998v18v22q28 0 101 3t111 3q78 0 128 -4h32q0 -6 1 -18t1 -18v-60v-104v-56v-32q-30 6 -52 6v40v106v58q0 6 -1 19t-1 19h-30q-50 4 -130 4q-32 0 -90 -3t-70 -3z" />
<glyph unicode="&#xe1;" d="M-6 610q0 40 3 119t3 121v40q0 48 4 144v48q0 20 -1 61t-1 57q0 74 14 74h38v-32q0 -16 1 -58t1 -62v-46q-4 -96 -4 -144v-42q0 -42 -3 -120t-3 -118q0 -102 5 -343t5 -339q0 -26 160 -26h20v-20q0 -22 -28 -22q-4 0 -19 1t-25 1q-160 0 -160 24q0 98 -5 339t-5 343z M284 510q4 0 4 8q2 2 8 2q42 6 86 6q36 0 99 -4t83 -4h46h62h16q0 -2 3 -19t3 -27q0 -46 7 -206t7 -226q0 -32 74 -32q6 0 22 1t22 1q10 2 30 2h30q0 -22 -4 -26q-10 -10 -25 -13t-47 -3h-36q-6 0 -20 -1t-22 -1q-74 0 -74 32q0 66 -7 225t-7 205q0 10 -4 26t-4 22h-16h-60 h-48q-20 0 -82 4t-98 4q-30 0 -46 -2q0 6 -1 14t-1 12zM290 998v18v22q28 0 101 3t111 3q78 0 128 -4h32q0 -6 1 -18t1 -18v-60v-104v-56v-32q-30 6 -52 6v40v106v58q0 6 -1 19t-1 19h-30q-50 4 -130 4q-32 0 -90 -3t-70 -3zM304 1332q0 18 60 78q16 16 51 50t51 50 q12 12 42 39t53 51t37 42q2 2 4 2q6 0 10 -2q-16 -16 -49 -47t-45 -43q-16 -16 -51 -50t-51 -50q-60 -60 -60 -78t114 -18q48 0 92 4q4 2 13 0t11 -2q8 0 18 6q-36 -30 -52 -42q-10 -6 -18 -6q-2 0 -10 2t-12 0q-44 -4 -92 -4q-116 0 -116 18z" />
<glyph unicode="&#xe2;" d="M-6 610q0 40 3 119t3 121v40q0 48 4 144v48q0 20 -1 61t-1 57q0 74 14 74h38v-32q0 -16 1 -58t1 -62v-46q-4 -96 -4 -144v-42q0 -42 -3 -120t-3 -118q0 -102 5 -343t5 -339q0 -26 160 -26h20v-20q0 -22 -28 -22q-4 0 -19 1t-25 1q-160 0 -160 24q0 98 -5 339t-5 343z M180 1442q0 2 2 4q68 54 96 76q-6 -6 -16 -14q-18 -16 -28 -22q-2 -2 -2 -4q0 -6 7 -15t16 -21t13 -18q44 -66 60 -66h2q4 0 6 2q-2 -2 -6 -5t-6 -5q-42 -34 -46 -34h-2q-14 0 -60 68q-4 6 -13 18t-16 21t-7 15zM284 510q4 0 4 8q2 2 8 2q42 6 86 6q36 0 99 -4t83 -4h46h62 h16q0 -2 3 -19t3 -27q0 -46 7 -206t7 -226q0 -32 74 -32q6 0 22 1t22 1q10 2 30 2h30q0 -22 -4 -26q-10 -10 -25 -13t-47 -3h-36q-6 0 -20 -1t-22 -1q-74 0 -74 32q0 66 -7 225t-7 205q0 10 -4 26t-4 22h-16h-60h-48q-20 0 -82 4t-98 4q-30 0 -46 -2q0 6 -1 14t-1 12z M290 998v18v22q28 0 101 3t111 3q78 0 128 -4h32q0 -6 1 -18t1 -18v-60v-104v-56v-32q-30 6 -52 6v40v106v58q0 6 -1 19t-1 19h-30q-50 4 -130 4q-32 0 -90 -3t-70 -3zM402 1416q80 68 142 96q4 0 36 -31t46 -49q50 -66 68 -68q14 0 96 62q-20 -20 -30 -26q-98 -78 -116 -78 h-2q-14 2 -66 70q-14 18 -46 49t-36 31q-44 -18 -92 -56z" />
<glyph unicode="&#xe3;" d="M-6 610q0 40 3 119t3 121v40q0 48 4 144v48q0 20 -1 61t-1 57q0 74 14 74h38v-32q0 -16 1 -58t1 -62v-46q-4 -96 -4 -144v-42q0 -42 -3 -120t-3 -118q0 -102 5 -343t5 -339q0 -26 160 -26h20v-20q0 -22 -28 -22q-4 0 -19 1t-25 1q-160 0 -160 24q0 98 -5 339t-5 343z M130 1482q0 6 22 28q36 36 62 50l-10 -10q-24 -24 -24 -26q0 -66 78 -144q38 28 46 36q60 44 100 44q12 0 44 -8q16 -8 32 -20t38 -30t28 -24q40 -22 80 -22q106 0 186 56q-2 -2 -6 -8l-4 -4q-104 -86 -228 -86q-36 0 -80 24q-6 6 -28 24t-38 30t-32 20q-24 6 -42 6 q-42 0 -102 -44l-44 -34q-78 78 -78 142zM284 510q4 0 4 8q2 2 8 2q42 6 86 6q36 0 99 -4t83 -4h46h62h16q0 -2 3 -19t3 -27q0 -46 7 -206t7 -226q0 -32 74 -32q6 0 22 1t22 1q10 2 30 2h30q0 -22 -4 -26q-10 -10 -25 -13t-47 -3h-36q-6 0 -20 -1t-22 -1q-74 0 -74 32 q0 66 -7 225t-7 205q0 10 -4 26t-4 22h-16h-60h-48q-20 0 -82 4t-98 4q-30 0 -46 -2q0 6 -1 14t-1 12zM290 998v18v22q28 0 101 3t111 3q78 0 128 -4h32q0 -6 1 -18t1 -18v-60v-104v-56v-32q-30 6 -52 6v40v106v58q0 6 -1 19t-1 19h-30q-50 4 -130 4q-32 0 -90 -3t-70 -3z " />
<glyph unicode="&#xe4;" d="M-6 610q0 40 3 119t3 121v40q0 48 4 144v48q0 20 -1 61t-1 57q0 74 14 74h38v-32q0 -16 1 -58t1 -62v-46q-4 -96 -4 -144v-42q0 -42 -3 -120t-3 -118q0 -102 5 -343t5 -339q0 -26 160 -26h20v-20q0 -22 -28 -22q-4 0 -19 1t-25 1q-160 0 -160 24q0 98 -5 339t-5 343z M270 1398v12q2 10 2 12t2 12t3 14t4 12t6 12t8 10t10 9t12 6t15 5q-8 -18 -12 -62q2 -66 74 -72q8 0 20 4q-20 -38 -70 -44q-72 6 -74 70zM284 510q4 0 4 8q2 2 8 2q42 6 86 6q36 0 99 -4t83 -4h46h62h16q0 -2 3 -19t3 -27q0 -46 7 -206t7 -226q0 -32 74 -32q6 0 22 1t22 1 q10 2 30 2h30q0 -22 -4 -26q-10 -10 -25 -13t-47 -3h-36q-6 0 -20 -1t-22 -1q-74 0 -74 32q0 66 -7 225t-7 205q0 10 -4 26t-4 22h-16h-60h-48q-20 0 -82 4t-98 4q-30 0 -46 -2q0 6 -1 14t-1 12zM290 998v18v22q28 0 101 3t111 3q78 0 128 -4h32q0 -6 1 -18t1 -18v-60v-104 v-56v-32q-30 6 -52 6v40v106v58q0 6 -1 19t-1 19h-30q-50 4 -130 4q-32 0 -90 -3t-70 -3zM518 1410q0 10 4 30q2 18 19 35t39 25q-2 -4 -8 -20q-2 -10 -2 -28q0 -90 86 -96h4q8 0 24 4q-28 -46 -74 -46h-4q-88 6 -88 96z" />
<glyph unicode="&#xe5;" d="M-6 610q0 40 3 119t3 121v40q0 48 4 144v48q0 20 -1 61t-1 57q0 74 14 74h38v-32q0 -16 1 -58t1 -62v-46q-4 -96 -4 -144v-42q0 -42 -3 -120t-3 -118q0 -102 5 -343t5 -339q0 -26 160 -26h20v-20q0 -22 -28 -22q-4 0 -19 1t-25 1q-160 0 -160 24q0 98 -5 339t-5 343z M256 1382q0 62 18 96q32 58 80 82q-12 -12 -28 -40q-20 -38 -20 -96q0 -28 10 -52q12 -44 58 -82q40 -28 82 -40q16 -4 48 -4t54 8q-12 -16 -20 -22q-28 -28 -86 -28q-30 0 -46 4q-38 10 -82 42q-48 42 -60 82q-8 18 -8 50zM284 510q4 0 4 8q2 2 8 2q42 6 86 6q36 0 99 -4 t83 -4h46h62h16q0 -2 3 -19t3 -27q0 -46 7 -206t7 -226q0 -32 74 -32q6 0 22 1t22 1q10 2 30 2h30q0 -22 -4 -26q-10 -10 -25 -13t-47 -3h-36q-6 0 -20 -1t-22 -1q-74 0 -74 32q0 66 -7 225t-7 205q0 10 -4 26t-4 22h-16h-60h-48q-20 0 -82 4t-98 4q-30 0 -46 -2q0 6 -1 14 t-1 12zM290 998v18v22q28 0 101 3t111 3q78 0 128 -4h32q0 -6 1 -18t1 -18v-60v-104v-56v-32q-30 6 -52 6v40v106v58q0 6 -1 19t-1 19h-30q-50 4 -130 4q-32 0 -90 -3t-70 -3zM434 1454q12 28 42 38q4 2 12 2q20 0 42 -22q6 -8 10 -24v-12q0 -22 -10 -42q-14 -26 -36 -30 h-10q6 14 6 32v10q-4 16 -12 26q-22 22 -42 22h-2z" />
<glyph unicode="&#xe6;" horiz-adv-x="1618" d="M6 610q0 40 3 119t3 121v40q0 48 4 144v48q0 20 -1 61t-1 57q0 74 14 74h38v-32q0 -16 1 -58t1 -62v-46q-4 -96 -4 -144v-42q0 -42 -3 -120t-3 -118q0 -102 5 -343t5 -339q0 -26 160 -26h20v-20q0 -22 -26 -22q-4 0 -20 1t-26 1q-160 0 -160 24q0 98 -5 339t-5 343z M296 510q6 0 6 8q2 2 8 2q42 6 86 6q36 0 98 -4t82 -4h46h50v-66q0 -20 -5 -187t-5 -237q0 -72 4 -76q28 -28 524 -28h88h30h50q18 0 70 4q8 2 46 2q-2 -26 -10 -34q-4 -4 -22 -6t-40 -2h-26q-52 -4 -70 -4h-48h-32h-88q-496 0 -524 28q-4 4 -4 76q0 70 5 237t5 187v66h-48 h-48q-20 0 -82 4t-98 4q-30 0 -46 -2q0 6 -1 14t-1 12zM302 1036v16v24q30 0 101 3t109 3q80 0 130 -4h30q0 -6 1 -19t1 -19v-60q0 -18 1 -71t1 -69v-56v-32q-2 0 -52 6v40q0 16 -1 70t-1 72v60q0 6 -1 18t-1 18h-30q-50 4 -130 4q-42 0 -158 -4zM926 492v18q2 8 6 28 q96 -14 302 -14h8h64h8h4v-2q0 -32 -10 -32q-2 0 -22 -3t-22 -3h-8h-66h-6q-40 0 -128 4t-130 4zM928 952v38q12 0 39 2t41 2q46 0 135 -1t131 -1q18 0 52 1t50 1q62 0 94 2q-4 -40 -22 -40q-12 0 -60 -2t-62 -2q-16 0 -51 -1t-53 -1q-42 0 -131 1t-135 1h-28z" />
<glyph unicode="&#xe7;" horiz-adv-x="1062" d="M-22 596q0 218 146 434q76 112 170 180q-62 -52 -118 -138q-146 -216 -146 -436q0 -64 16 -144q14 -68 54 -154q74 -158 210 -246q96 -56 284 -86q70 -14 168 -14q94 0 162 14q4 2 13 4t13 2q0 -8 -4 -16q-4 -14 -74 -30q-76 -16 -162 -16q-88 0 -168 16q-188 30 -284 86 q-134 88 -208 244q-44 94 -56 154q-16 80 -16 146zM200 -396q0 8 6 14q12 14 43 52t44 57t34 55t36 74t25 86q4 24 24 24q8 0 22 -6q-10 -42 -24 -77t-35 -69t-34 -52t-43 -55t-40 -49q-6 -6 -6 -14q0 -20 62 -52q60 -38 82 -40q4 0 16 4q-38 -42 -66 -44q-24 2 -82 38 q-64 34 -64 54zM428 976q118 102 228 102q50 0 132 -22q-14 -48 -22 -48h-2q-90 28 -160 28q-96 0 -176 -60z" />
<glyph unicode="&#xe8;" horiz-adv-x="994" d="M-4 74q0 70 5 237t5 187v158q0 54 3 158t3 156v334q0 10 52 14v-306q0 -52 -3 -157t-3 -159v-158q0 -20 -5 -187t-5 -237q0 -72 4 -76q28 -28 524 -28h88h30h50q18 0 70 4q8 2 44 2q-4 -30 -8 -34t-22 -6t-40 -2h-26q-52 -4 -70 -4h-48h-32h-88q-496 0 -524 28 q-4 4 -4 76zM106 1566q0 16 58 56q4 2 10 8t10 8q-26 -22 -26 -32q14 -32 92 -92q104 -90 122 -104q8 -6 20 -6q2 0 10 2t12 0q44 -4 92 -4h50q14 -18 14 -24q0 -18 -116 -18q-48 0 -92 4q-4 2 -12 0t-10 -2q-8 0 -18 6q-16 12 -124 106q-78 60 -92 92zM312 578q0 8 1 23 t1 23q96 -14 306 -14h6h66h8h4v-2q0 -32 -10 -32q-2 0 -22 -3t-22 -3h-8h-66h-6q-40 0 -128 4t-130 4zM314 1038v38q12 0 39 2t41 2q46 0 135 -1t131 -1q18 0 52 1t50 1q62 0 94 2q-4 -40 -22 -40q-12 0 -61 -2t-63 -2q-16 0 -50 -1t-52 -1q-42 0 -131 1t-135 1h-28z" />
<glyph unicode="&#xe9;" horiz-adv-x="994" d="M-4 74q0 70 5 237t5 187v158q0 54 3 158t3 156v334q0 10 52 14v-306q0 -52 -3 -157t-3 -159v-158q0 -20 -5 -187t-5 -237q0 -72 4 -76q28 -28 524 -28h88h30h50q18 0 70 4q8 2 44 2q-4 -30 -8 -34t-22 -6t-40 -2h-26q-52 -4 -70 -4h-48h-32h-88q-496 0 -524 28 q-4 4 -4 76zM294 1378q0 18 60 78q16 16 51 50t51 50q12 12 42 39t53 51t37 42q2 2 4 2q6 0 10 -2q-16 -16 -49 -47t-45 -43q-16 -16 -51 -50t-51 -50q-60 -60 -60 -78t114 -18q48 0 92 4q4 2 13 0t11 -2q8 0 18 6q-36 -30 -52 -42q-10 -6 -18 -6q-2 0 -10 2t-12 0 q-44 -4 -92 -4q-116 0 -116 18zM312 578q0 8 1 23t1 23q96 -14 306 -14h6h66h8h4v-2q0 -32 -10 -32q-2 0 -22 -3t-22 -3h-8h-66h-6q-40 0 -128 4t-130 4zM314 1038v38q12 0 39 2t41 2q46 0 135 -1t131 -1q18 0 52 1t50 1q62 0 94 2q-4 -40 -22 -40q-12 0 -61 -2t-63 -2 q-16 0 -50 -1t-52 -1q-42 0 -131 1t-135 1h-28z" />
<glyph unicode="&#xea;" horiz-adv-x="994" d="M-4 74q0 70 5 237t5 187v158q0 54 3 158t3 156v334q0 10 52 14v-306q0 -52 -3 -157t-3 -159v-158q0 -20 -5 -187t-5 -237q0 -72 4 -76q28 -28 524 -28h88h30h50q18 0 70 4q8 2 44 2q-4 -30 -8 -34t-22 -6t-40 -2h-26q-52 -4 -70 -4h-48h-32h-88q-496 0 -524 28 q-4 4 -4 76zM172 1488q0 2 2 4q68 54 96 76q-6 -6 -16 -14q-18 -16 -28 -22q-2 -2 -2 -4q0 -6 7 -15t16 -21t13 -18q44 -66 60 -66h2q4 0 6 2q-2 -2 -6 -5t-6 -5q-42 -34 -46 -34h-2q-14 0 -60 68q-4 6 -13 18t-16 21t-7 15zM312 578q0 8 1 23t1 23q96 -14 306 -14h6h66h8h4 v-2q0 -32 -10 -32q-2 0 -22 -3t-22 -3h-8h-66h-6q-40 0 -128 4t-130 4zM314 1038v38q12 0 39 2t41 2q46 0 135 -1t131 -1q18 0 52 1t50 1q62 0 94 2q-4 -40 -22 -40q-12 0 -61 -2t-63 -2q-16 0 -50 -1t-52 -1q-42 0 -131 1t-135 1h-28zM394 1462q80 68 142 96q4 0 36 -31 t46 -49q50 -66 68 -68q14 0 96 62q-20 -20 -30 -26q-98 -78 -116 -78h-2q-14 2 -66 70q-14 18 -46 49t-36 31q-44 -18 -92 -56z" />
<glyph unicode="&#xeb;" horiz-adv-x="994" d="M-4 74q0 70 5 237t5 187v158q0 54 3 158t3 156v334q0 10 52 14v-306q0 -52 -3 -157t-3 -159v-158q0 -20 -5 -187t-5 -237q0 -72 4 -76q28 -28 524 -28h88h30h50q18 0 70 4q8 2 44 2q-4 -30 -8 -34t-22 -6t-40 -2h-26q-52 -4 -70 -4h-48h-32h-88q-496 0 -524 28 q-4 4 -4 76zM262 1442v12q2 10 2 12t2 12t3 14t4 12t6 12t8 10t10 9t12 6t15 5q-8 -18 -12 -62q2 -66 74 -72q8 0 20 4q-20 -38 -70 -44q-72 6 -74 70zM312 578q0 8 1 23t1 23q96 -14 306 -14h6h66h8h4v-2q0 -32 -10 -32q-2 0 -22 -3t-22 -3h-8h-66h-6q-40 0 -128 4t-130 4z M314 1038v38q12 0 39 2t41 2q46 0 135 -1t131 -1q18 0 52 1t50 1q62 0 94 2q-4 -40 -22 -40q-12 0 -61 -2t-63 -2q-16 0 -50 -1t-52 -1q-42 0 -131 1t-135 1h-28zM510 1454q0 10 4 30q2 18 19 35t39 25q-2 -4 -8 -20q-2 -10 -2 -28q0 -90 86 -96h4q8 0 24 4q-28 -46 -74 -46 h-4q-88 6 -88 96z" />
<glyph unicode="&#xec;" horiz-adv-x="388" d="M-176 1382q0 16 52 56q3 2 8.5 8t8.5 8q-23 -22 -23 -32q13 -32 82 -92q91 -90 107 -104q7 -6 18 -6q2 0 9 2t10 0q39 -4 82 -4h44q12 -18 12 -24q0 -18 -102 -18q-43 0 -82 4q-3 2 -10 0t-9 -2q-7 0 -16 6q-14 12 -109 106q-69 60 -82 92zM2 1004q0 84 8 86h42h2v-46 q0 -22 1 -84t1 -115v-55v-46q18 -412 20 -514q6 -254 12 -294q8 -18 80 -18q44 0 66 2h14v-26q-8 -14 -50 -14h-16q-22 -2 -66 -2q-72 0 -80 18q-6 40 -12 292q-2 102 -20 514v48v55t-1 115t-1 84z" />
<glyph unicode="&#xed;" horiz-adv-x="388" d="M-20 1004q0 84 8 86h42h2v-46q0 -22 1 -84t1 -115v-55v-46q18 -412 20 -514q6 -254 12 -294q8 -18 80 -18q44 0 66 2h14v-26q-8 -14 -50 -14h-16q-22 -2 -66 -2q-72 0 -80 18q-6 40 -12 292q-2 102 -20 514v48v55t-1 115t-1 84zM28 1182q0 18 48 78q13 16 41.5 50 t41.5 50q9 12 33.5 39t43 51t29.5 42q2 2 3 2q5 0 8 -2q-13 -16 -39.5 -47t-36.5 -43q-12 -16 -40.5 -50t-41.5 -50q-48 -60 -48 -78t92 -18q38 0 74 4q3 2 10.5 0t8.5 -2q7 0 15 6q-29 -30 -42 -42q-8 -6 -15 -6q-1 0 -7.5 2t-9.5 0q-36 -4 -74 -4q-94 0 -94 18z" />
<glyph unicode="&#xee;" horiz-adv-x="388" d="M-130 1300q0 2 1 4q61 54 86 76q-5 -6 -14 -14q-16 -16 -25 -22q-2 -2 -2 -4q0 -6 6.5 -15t14.5 -21t11 -18q40 -66 54 -66h2q3 0 5 2q-2 -2 -5.5 -5t-5.5 -5q-37 -34 -41 -34h-2q-12 0 -53 68l-12 18l-14 21t-6 15zM2 1004q0 84 8 86h42h2v-46q0 -22 1 -84t1 -115v-55 v-46q18 -412 20 -514q6 -254 12 -294q8 -18 80 -18q44 0 66 2h14v-26q-8 -14 -50 -14h-16q-22 -2 -66 -2q-72 0 -80 18q-6 40 -12 292q-2 102 -20 514v48v55t-1 115t-1 84zM68 1274q72 68 127 96q4 0 32.5 -31t40.5 -49q45 -66 61 -68q13 0 86 62q-18 -20 -27 -26 q-87 -78 -104 -78h-1q-13 2 -59 70q-13 18 -41.5 49t-32.5 31q-39 -18 -82 -56z" />
<glyph unicode="&#xef;" horiz-adv-x="388" d="M-37 1258v12q2 10 2 12t1.5 12t2.5 14t3.5 12t5 12t7 10t8.5 9t10 6t13 5q-7 -18 -10 -62q1 -66 63 -72q6 0 17 4q-17 -38 -60 -44q-61 6 -63 70zM2 1004q0 84 8 86h42h2v-46q0 -22 1 -84t1 -115v-55v-46q18 -412 20 -514q6 -254 12 -294q8 -18 80 -18q44 0 66 2h14v-26 q-8 -14 -50 -14h-16q-22 -2 -66 -2q-72 0 -80 18q-6 40 -12 292q-2 102 -20 514v48v55t-1 115t-1 84zM174 1270q0 10 3 30q2 18 16.5 35t33.5 25q-2 -4 -7 -20q-2 -10 -2 -28q0 -90 74 -96h3q7 0 20 4q-23 -46 -63 -46h-3q-75 6 -75 96z" />
<glyph unicode="&#xf0;" horiz-adv-x="970" d="M-62 748q0 16 52 20q0 -16 5 -67t5 -67q0 -36 5 -44t21 -8h32h10q0 -172 4 -448q2 -18 2 -94q0 -36 -2 -46q8 -22 100 -22q132 0 228 26q156 48 256 120q-112 -100 -308 -162q-96 -26 -228 -26q-92 0 -100 22q2 10 2 48q0 74 -2 92q-4 276 -4 448h-10h-30q-18 0 -23 10 t-5 44q0 18 -5 78t-5 76zM16 806q0 310 4 448v12q4 92 24 92q4 0 14 -1t16 -1q-2 -14 -2 -50v-12q-4 -148 -4 -484q-24 0 -52 -4zM300 1010v24v30q106 -22 207 -97t119 -169q6 -42 6 -88q0 -136 -52 -260t-144 -180q68 68 107 177t39 223q0 46 -6 88q-18 80 -98 150 t-178 102zM308 596q18 2 60 2h24h6v-24q0 -16 -58 -16h-22h-8q0 6 -1 18t-1 20z" />
<glyph unicode="&#xf1;" horiz-adv-x="1406" d="M0 1196q0 120 14 120h40q-2 -22 -2 -80q0 -32 2 -89t2 -77v-200q0 -134 -1 -437t-1 -433q0 -6 4 -10t12 -6t17 -4t23 -2t24 -1t27 -1h27t27 -1t23 -1h8q-4 -16 -8 -22q-14 -20 -52 -20q-6 0 -22 1t-26 1h-21t-21 1t-20 1t-20 1t-17 2t-15 3l-12 4t-8 6t-2 8q0 130 1 433 t1 437v198q0 20 -2 78t-2 90zM304 896v48q0 36 2 40q4 -2 14 -12q36 -32 66 -72q52 -68 158 -231t170 -243q22 -30 77 -108t87 -118q6 -8 74 -104t104 -126q22 -20 68 -20q22 0 70 4q48 -4 62 -4v-12q0 -28 -48 -28q-14 0 -66 4q-48 -4 -68 -4q-48 0 -68 18q-36 30 -103 126 t-75 106q-32 40 -87 118t-77 108q-64 80 -171 242t-159 230q-10 14 -30 38zM318 1524q0 6 22 28q36 36 62 50l-10 -10q-24 -24 -24 -26q0 -66 78 -144q38 28 46 36q60 44 100 44q12 0 44 -8q16 -8 32 -20t38 -30t28 -24q40 -22 80 -22q106 0 186 56q-2 -2 -6 -8l-4 -4 q-104 -86 -228 -86q-36 0 -80 24q-6 6 -28 24t-38 30t-32 20q-24 6 -42 6q-42 0 -102 -44l-44 -34q-78 78 -78 142zM1056 462v392q0 28 1 180t1 180v16q0 32 28 32q14 0 24 -2v-4q0 -28 -1 -181t-1 -181v-468v-22q-2 2 -52 58z" />
<glyph unicode="&#xf2;" horiz-adv-x="1058" d="M-34 612q0 134 62 258q44 90 112 150q32 28 48 40q-60 -54 -108 -148q-64 -128 -64 -258q0 -6 6 -66q38 -274 246 -406q150 -94 290 -94q116 0 214 68q-118 -108 -266 -108q-138 0 -288 94q-208 132 -246 404q-6 60 -6 66zM112 1394q0 16 58 56q4 2 10 8t10 8 q-26 -22 -26 -32q14 -32 92 -92q104 -90 122 -104q8 -6 20 -6q2 0 10 2t12 0q44 -4 92 -4h50q14 -18 14 -24q0 -18 -116 -18q-48 0 -92 4q-4 2 -12 0t-10 -2q-8 0 -18 6q-16 12 -124 106q-78 60 -92 92zM306 870q56 62 140 62q70 0 150 -54q112 -82 134 -230q4 -24 4 -40 q0 -40 -18 -102q-4 -8 -13 -25t-13 -25q-46 -82 -102 -112q28 32 50 72q4 8 14 24t14 24q16 54 16 104q0 14 -4 38q-22 150 -134 232q-76 52 -148 52q-52 0 -90 -20z" />
<glyph unicode="&#xf3;" horiz-adv-x="1058" d="M-34 612q0 134 62 258q44 90 112 150q32 28 48 40q-60 -54 -108 -148q-64 -128 -64 -258q0 -6 6 -66q38 -274 246 -406q150 -94 290 -94q116 0 214 68q-118 -108 -266 -108q-138 0 -288 94q-208 132 -246 404q-6 60 -6 66zM306 870q56 62 140 62q70 0 150 -54 q112 -82 134 -230q4 -24 4 -40q0 -40 -18 -102q-4 -8 -13 -25t-13 -25q-46 -82 -102 -112q28 32 50 72q4 8 14 24t14 24q16 54 16 104q0 14 -4 38q-22 150 -134 232q-76 52 -148 52q-52 0 -90 -20zM338 1194q0 18 60 78q16 16 51 50t51 50q12 12 42 39t53 51t37 42q2 2 4 2 q6 0 10 -2q-16 -16 -49 -47t-45 -43q-16 -16 -51 -50t-51 -50q-60 -60 -60 -78t114 -18q48 0 92 4q4 2 13 0t11 -2q8 0 18 6q-36 -30 -52 -42q-10 -6 -18 -6q-2 0 -10 2t-12 0q-44 -4 -92 -4q-116 0 -116 18z" />
<glyph unicode="&#xf4;" horiz-adv-x="1058" d="M-34 612q0 134 62 258q44 90 112 150q32 28 48 40q-60 -54 -108 -148q-64 -128 -64 -258q0 -6 6 -66q38 -274 246 -406q150 -94 290 -94q116 0 214 68q-118 -108 -266 -108q-138 0 -288 94q-208 132 -246 404q-6 60 -6 66zM174 1304q0 2 2 4q68 54 96 76q-6 -6 -16 -14 q-18 -16 -28 -22q-2 -2 -2 -4q0 -6 7 -15t16 -21t13 -18q44 -66 60 -66h2q4 0 6 2q-2 -2 -6 -5t-6 -5q-42 -34 -46 -34h-2q-14 0 -60 68q-4 6 -13 18t-16 21t-7 15zM306 870q56 62 140 62q70 0 150 -54q112 -82 134 -230q4 -24 4 -40q0 -40 -18 -102q-4 -8 -13 -25t-13 -25 q-46 -82 -102 -112q28 32 50 72q4 8 14 24t14 24q16 54 16 104q0 14 -4 38q-22 150 -134 232q-76 52 -148 52q-52 0 -90 -20zM396 1278q80 68 142 96q4 0 36 -31t46 -49q50 -66 68 -68q14 0 96 62q-20 -20 -30 -26q-98 -78 -116 -78h-2q-14 2 -66 70q-14 18 -46 49t-36 31 q-44 -18 -92 -56z" />
<glyph unicode="&#xf5;" horiz-adv-x="1058" d="M-34 612q0 134 62 258q44 90 112 150q32 28 48 40q-60 -54 -108 -148q-64 -128 -64 -258q0 -6 6 -66q38 -274 246 -406q150 -94 290 -94q116 0 214 68q-118 -108 -266 -108q-138 0 -288 94q-208 132 -246 404q-6 60 -6 66zM112 1354q0 6 22 28q36 36 62 50l-10 -10 q-24 -24 -24 -26q0 -66 78 -144q38 28 46 36q60 44 100 44q12 0 44 -8q16 -8 32 -20t38 -30t28 -24q40 -22 80 -22q106 0 186 56q-2 -2 -6 -8l-4 -4q-104 -86 -228 -86q-36 0 -80 24q-6 6 -28 24t-38 30t-32 20q-24 6 -42 6q-42 0 -102 -44l-44 -34q-78 78 -78 142zM306 870 q56 62 140 62q70 0 150 -54q112 -82 134 -230q4 -24 4 -40q0 -40 -18 -102q-4 -8 -13 -25t-13 -25q-46 -82 -102 -112q28 32 50 72q4 8 14 24t14 24q16 54 16 104q0 14 -4 38q-22 150 -134 232q-76 52 -148 52q-52 0 -90 -20z" />
<glyph unicode="&#xf6;" horiz-adv-x="1058" d="M-34 612q0 134 62 258q44 90 112 150q32 28 48 40q-60 -54 -108 -148q-64 -128 -64 -258q0 -6 6 -66q38 -274 246 -406q150 -94 290 -94q116 0 214 68q-118 -108 -266 -108q-138 0 -288 94q-208 132 -246 404q-6 60 -6 66zM240 1262v12q2 10 2 12t2 12t3 14t4 12t6 12 t8 10t10 9t12 6t15 5q-8 -18 -12 -62q2 -66 74 -72q8 0 20 4q-20 -38 -70 -44q-72 6 -74 70zM306 870q56 62 140 62q70 0 150 -54q112 -82 134 -230q4 -24 4 -40q0 -40 -18 -102q-4 -8 -13 -25t-13 -25q-46 -82 -102 -112q28 32 50 72q4 8 14 24t14 24q16 54 16 104 q0 14 -4 38q-22 150 -134 232q-76 52 -148 52q-52 0 -90 -20zM488 1274q0 10 4 30q2 18 19 35t39 25q-2 -4 -8 -20q-2 -10 -2 -28q0 -90 86 -96h4q8 0 24 4q-28 -46 -74 -46h-4q-88 6 -88 96z" />
<glyph unicode="&#xf7;" horiz-adv-x="760" d="M-10 642q0 16 52 20q0 -16 5 -67t5 -67q0 -36 5 -44t21 -8h30q102 0 267 8t209 8h22h6v-26q0 -16 -56 -16h-24q-44 0 -208 -8t-266 -8h-32q-16 0 -21 9t-5 45q0 18 -5 78t-5 76zM208 272v8q6 70 46 92q16 8 22 10q-14 -26 -16 -60v-8q0 -38 21 -62t55 -28h22q20 0 28 2 q-10 -22 -26 -32q-16 -12 -52 -12h-24q-34 4 -55 28t-21 62zM220 788v8q6 70 44 92q16 8 22 10q-14 -26 -16 -60v-8q0 -38 21 -62t55 -28h22q20 0 28 2q-10 -22 -26 -32q-6 -4 -22 -8h-72q-56 20 -56 86z" />
<glyph unicode="&#xf8;" horiz-adv-x="1058" d="M-34 612q0 134 62 258q44 90 112 150q32 28 48 40q-60 -54 -108 -148q-64 -128 -64 -258q0 -6 6 -66q34 -232 190 -364q-2 -6 -45 -88t-67 -124q4 -20 64 -20q38 0 56 1t24 1q-8 -14 -20 -42q-30 0 -49 -1t-63 -1q-56 0 -62 22q18 32 112 210q-156 132 -190 364 q-6 60 -6 66zM306 870q56 62 140 62q62 0 122 -36q-106 -190 -236 -442v2h-2q-6 8 -14 24q130 250 200 376q-56 34 -120 34q-52 0 -90 -20zM324 86q2 6 7 16t10 19t9 17q106 -50 208 -50q116 0 214 68q-118 -108 -266 -108q-88 0 -182 38zM588 344q28 32 50 72q4 8 14 24 t14 24q16 54 16 104q0 14 -4 38q-10 60 -36 116q6 12 17 35t17 35q40 -62 54 -144q4 -24 4 -40q0 -40 -18 -102q-4 -8 -13 -25t-13 -25q-46 -82 -102 -112zM654 1134l70 156q2 16 22 16h18q-78 -172 -84 -186q-4 4 -26 14z" />
<glyph unicode="&#xf9;" horiz-adv-x="992" d="M-14 776q0 78 4 236t4 236v22q0 8 34 8h18q0 -76 -5 -230t-5 -230q0 -370 72 -566q106 -288 378 -288h34q102 6 180 56q-92 -90 -232 -98h-34q-270 0 -376 288q-72 196 -72 566zM94 1504q0 16 58 56q4 2 10 8t10 8q-26 -22 -26 -32q14 -32 92 -92q104 -90 122 -104 q8 -6 20 -6q2 0 10 2t12 0q44 -4 92 -4h50q14 -18 14 -24q0 -18 -116 -18q-48 0 -92 4q-4 2 -12 0t-10 -2q-8 0 -18 6q-16 12 -124 106q-78 60 -92 92zM552 222q80 100 80 414q0 4 -1 10t-1 8q0 58 3 304t3 298q0 26 16 26l36 -8q0 -68 -3 -298t-3 -282q0 -2 1 -8t1 -8 q0 -398 -132 -456z" />
<glyph unicode="&#xfa;" horiz-adv-x="992" d="M-14 776q0 78 4 236t4 236v22q0 8 34 8h18q0 -76 -5 -230t-5 -230q0 -370 72 -566q106 -288 378 -288h34q102 6 180 56q-92 -90 -232 -98h-34q-270 0 -376 288q-72 196 -72 566zM266 1340q0 18 60 78q16 16 51 50t51 50q12 12 42 39t53 51t37 42q2 2 4 2q6 0 10 -2 q-16 -16 -49 -47t-45 -43q-16 -16 -51 -50t-51 -50q-60 -60 -60 -78t114 -18q48 0 92 4q4 2 13 0t11 -2q8 0 18 6q-36 -30 -52 -42q-10 -6 -18 -6q-2 0 -10 2t-12 0q-44 -4 -92 -4q-116 0 -116 18zM552 222q80 100 80 414q0 4 -1 10t-1 8q0 58 3 304t3 298q0 26 16 26l36 -8 q0 -68 -3 -298t-3 -282q0 -2 1 -8t1 -8q0 -398 -132 -456z" />
<glyph unicode="&#xfb;" horiz-adv-x="992" d="M-14 776q0 78 4 236t4 236v22q0 8 34 8h18q0 -76 -5 -230t-5 -230q0 -370 72 -566q106 -288 378 -288h34q102 6 180 56q-92 -90 -232 -98h-34q-270 0 -376 288q-72 196 -72 566zM144 1450q0 2 2 4q68 54 96 76q-6 -6 -16 -14q-18 -16 -28 -22q-2 -2 -2 -4q0 -6 7 -15 t16 -21t13 -18q44 -66 60 -66h2q4 0 6 2q-2 -2 -6 -5t-6 -5q-42 -34 -46 -34h-2q-14 0 -60 68q-4 6 -13 18t-16 21t-7 15zM366 1424q80 68 142 96q4 0 36 -31t46 -49q50 -66 68 -68q14 0 96 62q-20 -20 -30 -26q-98 -78 -116 -78h-2q-14 2 -66 70q-14 18 -46 49t-36 31 q-44 -18 -92 -56zM552 222q80 100 80 414q0 4 -1 10t-1 8q0 58 3 304t3 298q0 26 16 26l36 -8q0 -68 -3 -298t-3 -282q0 -2 1 -8t1 -8q0 -398 -132 -456z" />
<glyph unicode="&#xfc;" horiz-adv-x="992" d="M-14 776q0 78 4 236t4 236v22q0 8 34 8h18q0 -76 -5 -230t-5 -230q0 -370 72 -566q106 -288 378 -288h34q102 6 180 56q-92 -90 -232 -98h-34q-270 0 -376 288q-72 196 -72 566zM234 1406v12q2 10 2 12t2 12t3 14t4 12t6 12t8 10t10 9t12 6t15 5q-8 -18 -12 -62 q2 -66 74 -72q8 0 20 4q-20 -38 -70 -44q-72 6 -74 70zM482 1418q0 10 4 30q2 18 19 35t39 25q-2 -4 -8 -20q-2 -10 -2 -28q0 -90 86 -96h4q8 0 24 4q-28 -46 -74 -46h-4q-88 6 -88 96zM552 222q80 100 80 414q0 4 -1 10t-1 8q0 58 3 304t3 298q0 26 16 26l36 -8 q0 -68 -3 -298t-3 -282q0 -2 1 -8t1 -8q0 -398 -132 -456z" />
<glyph unicode="&#xfd;" horiz-adv-x="914" d="M-52 1230q0 14 52 32q8 -54 133 -294t157 -326q0 -56 -2 -84v-36q-2 -36 -2 -108v-174l2 -74v-146v-40q0 -20 92 -20h20h18h64v-12q0 -30 -14 -30h-102h-18h-18q-92 0 -92 20v42v144v50v342q2 28 2 84q-28 78 -104 222t-132 258t-56 150zM208 1384q0 18 60 78 q16 16 51 50t51 50q12 12 42 39t53 51t37 42q2 2 4 2q6 0 10 -2q-16 -16 -49 -47t-45 -43q-16 -16 -51 -50t-51 -50q-60 -60 -60 -78t114 -18q48 0 92 4q4 2 13 0t11 -2q8 0 18 6q-36 -30 -52 -42q-10 -6 -18 -6q-2 0 -10 2t-12 0q-44 -4 -92 -4q-116 0 -116 18zM420 912 q94 206 122 288q6 22 13 36t11 19t10 13t10 16q4 4 24 4h2q-6 -10 -18 -46t-158 -370q-4 6 -9 20t-7 20z" />
<glyph unicode="&#xfe;" horiz-adv-x="882" d="M-18 -34q0 22 2 63t2 63q0 552 14 1054q0 12 2 41t3 47t3 39t6 32t10 11q22 0 36 -2q-2 -20 -8 -126q-16 -572 -16 -1054q0 -22 -2 -64t-2 -64v-32q0 -24 196 -24q-4 -40 -12 -40h-34q-200 0 -200 22v34zM282 316v32q28 10 94 10h28q48 0 70 4q82 12 174 76 q-108 -96 -226 -116q-22 -4 -68 -4h-28q-6 0 -22 -1t-22 -1zM284 824v10q0 6 4 18t4 18q14 -2 39 -5t37 -3q64 0 126 -22q60 -32 72 -72v-18q0 -52 -32 -102q-26 -26 -48 -38q28 46 28 100v18q-12 38 -72 70q-68 24 -124 24q-22 0 -34 2z" />
<glyph unicode="&#xff;" horiz-adv-x="914" d="M-52 1230q0 14 52 32q8 -54 133 -294t157 -326q0 -56 -2 -84v-36q-2 -36 -2 -108v-174l2 -74v-146v-40q0 -20 92 -20h20h18h64v-12q0 -30 -14 -30h-102h-18h-18q-92 0 -92 20v42v144v50v342q2 28 2 84q-28 78 -104 222t-132 258t-56 150zM176 1450v12q2 10 2 12t2 12 t3 14t4 12t6 12t8 10t10 9t12 6t15 5q-8 -18 -12 -62q2 -66 74 -72q8 0 20 4q-20 -38 -70 -44q-72 6 -74 70zM420 912q94 206 122 288q6 22 13 36t11 19t10 13t10 16q4 4 24 4h2q-6 -10 -18 -46t-158 -370q-4 6 -9 20t-7 20zM424 1462q0 10 4 30q2 18 19 35t39 25 q-2 -4 -8 -20q-2 -10 -2 -28q0 -90 86 -96h4q8 0 24 4q-28 -46 -74 -46h-4q-88 6 -88 96z" />
<glyph unicode="&#x152;" horiz-adv-x="1612" d="M-38 670q0 94 32 160q44 92 116 176q34 38 88 76l-36 -36q-72 -84 -116 -176q-34 -72 -34 -160q0 -170 76 -336q84 -172 314 -258q58 -20 158 -20h16q132 0 240 94l12 -174q0 -12 9 -20t24 -11t30 -3t36 -1t31 -1q48 -4 76 -4q34 0 102 3t104 3h34q18 -2 60 -2q16 0 50 1 t50 1h36q-8 -44 -26 -44q-18 2 -62 2q-16 0 -50 -1t-50 -1q-42 0 -60 2h-34q-36 0 -103 -3t-101 -3q-28 0 -76 4q-10 0 -31 1t-36 2t-31 4t-25 11t-9 20l-12 174q-108 -94 -240 -94h-16q-100 0 -158 20q-230 86 -314 258q-74 162 -74 336zM342 870q6 8 22 20q90 66 164 66 q76 0 154 -52q98 -82 98 -232q0 -20 -4 -56q-18 -118 -118 -202l-10 -5t-8 -5q68 72 84 172q0 6 2 17t3 20t1 17q0 148 -100 232q-82 54 -152 54q-64 0 -136 -46zM704 1184q0 46 2 70q-2 4 -2 12q0 24 24 28q10 2 30 2v-2q-4 -50 -4 -140q-4 4 -13 10t-13 8zM998 1094 q0 4 1 15t1 17q12 4 220 16q26 2 76 5t74 3q6 0 22 1t24 1v-40q-12 0 -48 -1t-50 -1q-26 0 -74 -3t-74 -5q-20 -2 -81 -3t-91 -5zM1026 542v46q52 -6 108 -6q20 0 58 1t56 1q8 0 28 -1t28 -1h20q10 0 33 1t35 1h8q-6 -44 -16 -44q-12 2 -42 2q-12 0 -36 -1t-34 -1h-18 q-10 0 -30 1t-28 1q-18 0 -55 -1t-57 -1q-40 0 -58 2z" />
<glyph unicode="&#x153;" horiz-adv-x="1688" d="M-34 612q0 134 62 258q44 90 112 150q32 28 48 40q-60 -54 -108 -148q-64 -128 -64 -258q0 -6 6 -66q38 -274 246 -406q150 -94 290 -94q90 0 174 44v-18q0 -72 4 -76q28 -28 524 -28h88h30h50q18 0 70 4q8 2 44 2q-4 -30 -8 -34t-22 -6t-40 -2h-26q-52 -4 -70 -4h-48 h-32h-88q-496 0 -524 28q-4 4 -4 76v16q-80 -42 -174 -42q-138 0 -288 94q-208 132 -246 404q-6 60 -6 66zM306 870q56 62 140 62q70 0 150 -54q112 -82 134 -230q4 -24 4 -40q0 -40 -18 -102q-4 -8 -13 -25t-13 -25q-46 -82 -102 -112q28 32 50 72q4 8 14 24t14 24 q16 54 16 104q0 14 -4 38q-22 150 -134 232q-76 52 -148 52q-52 0 -90 -20zM696 1110v194q0 10 52 14v-246q-40 30 -52 38zM998 1038v38q12 0 39 2t41 2q46 0 135 -1t131 -1q18 0 52 1t50 1q62 0 94 2q-4 -40 -22 -40q-12 0 -61 -2t-63 -2q-16 0 -50 -1t-52 -1q-42 0 -131 1 t-135 1h-28zM1000 578q0 8 2 23t2 23q94 -14 300 -14h6h66h8h4v-2q0 -32 -10 -32q-2 0 -22 -3t-22 -3h-8h-66h-6q-40 0 -126 4t-128 4z" />
<glyph unicode="&#x178;" horiz-adv-x="1076" d="M-68 1208q0 24 54 30q70 -136 187 -315t185 -251v-194v-68q4 -104 4 -156q0 -112 6 -220l4 -54q12 -12 138 -12h42q0 -32 -8 -40q-2 0 -33 -1t-53 -1q-124 0 -136 12q-4 40 -4 56q-6 108 -6 218q0 52 -4 156v68v194q-68 72 -186 253t-188 315q-2 4 -2 10zM250 1390v12 q2 10 2 12t2 12t3 14t4 12t6 12t8 10t10 9t12 6t15 5q-8 -18 -12 -62q2 -66 74 -72q8 0 20 4q-20 -38 -70 -44q-72 6 -74 70zM490 900q32 38 115 144t135 170q22 32 42 34l2 -2q-44 -56 -109 -139t-107 -135t-72 -84zM498 1402q0 10 4 30q2 18 19 35t39 25q-2 -4 -8 -20 q-2 -10 -2 -28q0 -90 86 -96h4q8 0 24 4q-28 -46 -74 -46h-4q-88 6 -88 96z" />
<glyph unicode="&#x2c6;" horiz-adv-x="758" d="M4 1244q0 2 2 4q68 54 96 76q-6 -6 -16 -14q-18 -16 -28 -22q-2 -2 -2 -4q0 -6 7 -15t16 -21t13 -18q44 -66 60 -66h2q4 0 6 2q-2 -2 -6 -5t-6 -5q-42 -34 -46 -34h-2q-14 0 -60 68q-4 6 -13 18t-16 21t-7 15zM226 1218q80 68 142 96q4 0 36 -31t46 -49q50 -66 68 -68 q14 0 96 62q-20 -20 -30 -26q-98 -78 -116 -78h-2q-14 2 -66 70q-14 18 -46 49t-36 31q-44 -18 -92 -56z" />
<glyph unicode="&#x2dc;" horiz-adv-x="932" d="M-74 1206q0 6 22 28q36 36 62 50l-10 -10q-24 -24 -24 -26q0 -66 78 -144q38 28 46 36q60 44 100 44q12 0 44 -8q16 -8 32 -20t38 -30t28 -24q40 -22 80 -22q106 0 186 56q-2 -2 -6 -8l-4 -4q-104 -86 -228 -86q-36 0 -80 24q-6 6 -28 24t-38 30t-32 20q-24 6 -42 6 q-42 0 -102 -44l-44 -34q-78 78 -78 142z" />
<glyph unicode="&#x2000;" horiz-adv-x="848" />
<glyph unicode="&#x2001;" horiz-adv-x="1696" />
<glyph unicode="&#x2002;" horiz-adv-x="848" />
<glyph unicode="&#x2003;" horiz-adv-x="1696" />
<glyph unicode="&#x2004;" horiz-adv-x="565" />
<glyph unicode="&#x2005;" horiz-adv-x="424" />
<glyph unicode="&#x2006;" horiz-adv-x="282" />
<glyph unicode="&#x2007;" horiz-adv-x="282" />
<glyph unicode="&#x2008;" horiz-adv-x="212" />
<glyph unicode="&#x2009;" horiz-adv-x="339" />
<glyph unicode="&#x200a;" horiz-adv-x="94" />
<glyph unicode="&#x2010;" horiz-adv-x="712" d="M6 630q0 18 52 22q0 -16 5 -67t5 -67q0 -36 5 -45t21 -9h30q102 0 232 9t174 9h22h8v-26q0 -16 -58 -16h-22q-44 0 -174 -8t-232 -8h-30q-18 0 -23 10t-5 44q0 18 -5 77t-5 75z" />
<glyph unicode="&#x2011;" horiz-adv-x="712" d="M6 630q0 18 52 22q0 -16 5 -67t5 -67q0 -36 5 -45t21 -9h30q102 0 232 9t174 9h22h8v-26q0 -16 -58 -16h-22q-44 0 -174 -8t-232 -8h-30q-18 0 -23 10t-5 44q0 18 -5 77t-5 75z" />
<glyph unicode="&#x2012;" horiz-adv-x="712" d="M6 630q0 18 52 22q0 -16 5 -67t5 -67q0 -36 5 -45t21 -9h30q102 0 232 9t174 9h22h8v-26q0 -16 -58 -16h-22q-44 0 -174 -8t-232 -8h-30q-18 0 -23 10t-5 44q0 18 -5 77t-5 75z" />
<glyph unicode="&#x2013;" horiz-adv-x="850" d="M6 630q0 18 52 22q0 -16 5 -67t5 -67q0 -36 5 -45t21 -9h30q102 0 302 9t244 9h22h6v-26q0 -16 -56 -16h-24q-44 0 -243 -8t-301 -8h-30q-18 0 -23 10t-5 44q0 18 -5 77t-5 75z" />
<glyph unicode="&#x2014;" horiz-adv-x="1040" d="M6 630q0 18 52 22q0 -16 5 -67t5 -67q0 -36 5 -45t21 -9h30q102 0 396 9t338 9h22h8q0 -6 -1 -15t-1 -11q0 -16 -56 -16h-24q-44 0 -337 -8t-395 -8h-30q-18 0 -23 10t-5 44q0 18 -5 77t-5 75z" />
<glyph unicode="&#x2018;" horiz-adv-x="462" d="M-8 870v42q8 108 12 122q4 12 11 41t11 43q42 124 110 156q-34 -42 -58 -114q-4 -14 -11 -43t-11 -41t-12 -124v-40q0 -32 5 -43t21 -11h140h70l28 2q-10 -40 -34 -40l-44 -2h-70h-142q-16 0 -21 10t-5 42z" />
<glyph unicode="&#x2019;" horiz-adv-x="450" d="M-20 1078v42q0 156 42 156l20 2q-12 -46 -12 -118v-40q0 -44 10 -48q6 -2 25 -3t45 -3t40 -4q10 -2 10 -26q0 -36 -10 -52t-32 -46t-24 -34q-22 -26 -18 -40q6 -18 42 -18h20q34 0 74 18q-52 -58 -126 -58h-18q-38 0 -44 16q-4 12 20 42q6 8 17 24t20 29t17 25 q10 14 10 52q0 24 -10 26q-14 2 -39 4t-44 3t-25 3q-10 6 -10 48z" />
<glyph unicode="&#x201a;" horiz-adv-x="462" d="M-8 -10v40q0 158 42 158l20 2q-10 -38 -10 -118v-42q0 -42 10 -46q6 -2 25 -3t44 -3t39 -4q10 -2 10 -28q0 -34 -10 -50t-32 -46t-24 -34q-22 -28 -18 -42q6 -16 44 -16h18q40 0 76 16q-50 -56 -128 -56h-18q-38 0 -44 16q-2 12 20 40q48 68 54 80q10 16 10 52 q0 24 -10 26q-14 2 -39 4t-44 3t-25 3q-10 6 -10 48z" />
<glyph unicode="&#x201c;" horiz-adv-x="850" d="M-8 870v42q8 108 12 122q4 12 11 41t11 43q42 124 110 156q-34 -42 -58 -114q-4 -14 -11 -43t-11 -41t-12 -124v-40q0 -32 5 -43t21 -11h140h70l28 2q-10 -40 -34 -40l-44 -2h-70h-142q-16 0 -21 10t-5 42zM382 870v42q8 98 14 122q4 12 11 41t11 43q42 124 108 156 q-34 -42 -58 -114q-4 -14 -11 -43t-11 -41t-12 -124v-40q0 -32 5 -43t21 -11h142h70l26 2q-10 -40 -32 -40l-46 -2h-70h-140q-16 0 -22 10t-6 42z" />
<glyph unicode="&#x201d;" horiz-adv-x="850" d="M-8 1090v40q0 158 42 158l20 2q-10 -38 -10 -118v-42q0 -42 10 -46q6 -2 25 -3t44 -3t39 -4q10 -2 10 -28q0 -34 -10 -50t-32 -46t-24 -34q-22 -28 -18 -42q6 -16 44 -16h18q40 0 76 16q-50 -56 -128 -56h-18q-38 0 -44 16q-2 12 20 40q48 68 54 80q10 14 10 52 q0 24 -10 26q-14 2 -39 4t-44 3t-25 3q-10 6 -10 48zM380 1090v40q0 158 44 158l18 2q-10 -38 -10 -118v-42q0 -42 10 -46q6 -2 25 -3t44 -3t39 -4q12 -2 12 -28q0 -32 -12 -50q-6 -12 -54 -80q-22 -28 -18 -42q6 -16 42 -16h18q40 0 76 16q-50 -56 -126 -56h-20 q-36 0 -42 16q-4 14 18 40q2 4 24 34t32 46q10 14 10 52q0 24 -10 26q-14 2 -39 4t-44 3t-25 3q-12 6 -12 48z" />
<glyph unicode="&#x201e;" horiz-adv-x="850" d="M-8 2v42q0 156 42 156l20 2q-10 -38 -10 -118v-40q0 -44 10 -48q6 -2 25 -3t44 -3t39 -4q10 -2 10 -26q0 -36 -10 -52t-32 -46t-24 -34q-22 -26 -18 -40q6 -18 44 -18h18q36 0 76 18q-52 -58 -128 -58h-18q-38 0 -44 16q-4 12 20 42l54 78q10 16 10 52q0 24 -10 26 q-14 2 -39 4t-44 3t-25 3q-10 6 -10 48zM380 2v42q0 156 44 156l18 2q-10 -38 -10 -118v-40q0 -44 10 -48q6 -2 25 -3t44 -3t39 -4q12 -2 12 -26q0 -34 -12 -52q-6 -12 -54 -80q-22 -26 -18 -40q6 -18 42 -18h18q36 0 76 18q-52 -58 -126 -58h-20q-36 0 -42 16q-4 14 18 42 q4 6 25 34t31 44q10 14 10 52q0 24 -10 26q-14 2 -39 4t-44 3t-25 3q-12 6 -12 48z" />
<glyph unicode="&#x2022;" horiz-adv-x="606" d="M-46 638q0 148 122 222q-70 -74 -70 -180q0 -78 70 -158t162 -80q96 0 174 50q-86 -90 -226 -90q-92 0 -162 79t-70 157z" />
<glyph unicode="&#x2026;" horiz-adv-x="1276" d="M-12 48v10q8 94 54 118q2 0 8 4t10 4q-18 -34 -22 -84v-10q0 -44 27 -76t67 -36q10 -2 28 -2q24 0 42 6q-12 -18 -28 -28q-24 -18 -66 -18h-28q-40 4 -66 36t-26 76zM414 48v10q8 94 54 118q2 0 8 4t10 4q-18 -34 -22 -84v-10q0 -44 27 -76t67 -36q10 -2 28 -2q24 0 42 6 q-12 -18 -28 -28q-24 -18 -66 -18h-28q-40 4 -66 36t-26 76zM840 48v10q8 94 54 118q2 0 8 4t10 4q-18 -34 -22 -84v-10q0 -44 27 -76t67 -36q10 -2 28 -2q24 0 42 6q-12 -18 -28 -28q-24 -18 -66 -18h-28q-40 4 -66 36t-26 76z" />
<glyph unicode="&#x202f;" horiz-adv-x="339" />
<glyph unicode="&#x2039;" horiz-adv-x="912" d="M-10 566q0 6 7 14t14 14t19 15t16 11q-6 -6 -6 -14q0 -10 21 -27t56 -40t39 -25q28 -22 78 -54t62 -40l40 -26q56 -42 130 -84l22 -14q108 -68 204 -130l26 -16q6 -4 20 -11l22 -11q0 -8 1 -20t1 -18q0 -28 -6 -28q-4 0 -38 20q-8 4 -25 13t-25 13l-26 16 q-136 88 -206 132l-20 12q-82 46 -132 84l-38 26q-8 6 -61 40t-81 56q-2 2 -38 25t-56 40t-20 27zM404 606q46 38 103 76t146 90t111 66q-2 -10 -28 -26q-32 -20 -102 -60t-127 -76t-103 -70z" />
<glyph unicode="&#x203a;" horiz-adv-x="914" d="M2 1056q0 36 20 36q8 0 32 -10l4 -174q0 -28 5 -36t25 -20q36 -24 120 -72t150 -91t114 -83q-14 -8 -60 -34q-48 40 -112 81t-147 89t-117 70q-2 2 -6 4q-22 30 -24 50zM10 90q0 22 14 190q2 18 4 27t4 12t11 7t13 8q6 4 14 11t10 9q0 -2 -1 -6t-2 -12t-1 -14 q-14 -168 -14 -190q0 -30 6 -30q2 0 36 20q8 4 26 14t26 14l26 16q38 22 90 60q20 14 116 70l22 14q74 42 130 84l40 26q136 92 138 94q6 4 27 17t31 19q-8 -10 -108 -76q-12 -8 -140 -96l-38 -26q-50 -38 -132 -84l-22 -12q-72 -42 -114 -72q-52 -38 -90 -60l-28 -16 q-8 -4 -25 -13t-25 -13q-34 -20 -38 -20q-6 0 -6 28z" />
<glyph unicode="&#x205f;" horiz-adv-x="424" />
<glyph unicode="&#x20ac;" horiz-adv-x="1062" d="M-112 556q0 16 52 20q0 -4 4 -26t4 -38q0 -34 5 -44t23 -10h30q8 0 24 1t24 1q16 -58 46 -122q74 -158 210 -246q96 -56 284 -86q70 -14 168 -14q94 0 162 14q4 2 13 4t13 2q0 -8 -4 -16q-4 -14 -74 -30q-76 -16 -162 -16q-88 0 -168 16q-188 30 -284 86 q-134 88 -208 244q-34 74 -48 122h-48h-30q-16 0 -21 9t-5 45q0 18 -5 43t-5 41zM-112 788q0 16 52 20q0 -4 4 -25t4 -37q0 -34 5 -44t23 -10h30h24q-4 -48 -4 -70v-4q-22 0 -50 -4q0 14 4 38h-26h-30q-16 0 -21 8t-5 44q0 18 -5 43t-5 41zM30 852q92 238 270 364 q-160 -142 -234 -364h-18h-18zM314 662q2 6 3 20t1 20q130 6 212 6h22h8v-24q0 -16 -58 -16h-22t-81 -3t-85 -3zM336 470q20 0 74 3t76 3h22h8q0 -4 -1 -13t-1 -13q0 -16 -58 -16h-22q-50 0 -80 -2q-12 24 -18 38zM428 976q118 102 228 102q50 0 132 -22q-14 -48 -22 -48h-2 q-90 28 -160 28q-96 0 -176 -60z" />
<glyph unicode="&#x2122;" horiz-adv-x="1252" d="M-27 1349v11q0 9 22 9h4q0 -8 0.5 -24.5t0.5 -19.5q0 -37 3 -61q1 -6 10 -6q3 0 13 0.5t17 0.5q12 -1 38 -1h20h20.5h10.5t3.5 0.5t1.5 0.5h3t9 0.5t18 0.5h7q0 -5 1 -18t1 -17q0 -83 2.5 -171t7.5 -199.5t7 -159.5q0 -10 57 -10q29 0 42 1q-2 -18 -7 -19q-24 -3 -61 -3 q-56 0 -56 10q-2 52 -7 160.5t-8 197.5t-3 173q0 5 -1 17.5t-1 17.5h-7q-13 0 -19.5 -0.5t-7.5 -0.5t-2 -0.5t-2.5 -0.5h-10h-23.5h-21q-26 0 -38 1q-7 0 -16.5 -0.5t-12.5 -0.5q-10 0 -11 6q-3 23 -3 60q0 4 -0.5 20t-0.5 25zM297 1246v6v14q5 0 37 0.5t77 0.5h7h7 q0 -8 -4 -20h-29h-7q-28 0 -55.5 -0.5t-32.5 -0.5zM473 728q0 10 0.5 31.5t0.5 33.5q0 3 1.5 25.5t1.5 35.5v220q0 4 0.5 14t0.5 14v43v21q0 20 1 29q0 150 16 169q1 1 5 1q6 0 13 -4q-8 -38 -8 -146q-1 -9 -1 -30q0 -4 -0.5 -11t-0.5 -10q0 -7 0.5 -20.5t0.5 -20.5 q0 -4 -0.5 -14.5t-0.5 -14.5v-220q0 -10 -0.5 -20t-1.5 -22t-1 -20q0 -11 -1 -32.5t-1 -30.5q0 -7 55 -7h27q5 0 17 2q0 -7 -2 -13q-9 -8 -40 -8h-28q-54 0 -54 5zM621 1150v36q39 -28 103 -65l36 -27q69 -54 95 -69q13 -7 19 -7q3 0 19 7q5 2 21 14q-23 -20 -47 -33 q-15 -8 -17 -8q-7 0 -21 8q-26 14 -95 68l-36 26q-53 33 -77 50zM1051 1122v30l8 8l9 9l8 8v-36q0 -10 0.5 -29.5t0.5 -29.5v-319q0 -6 25 -6h20q3 0 8.5 -0.5t8.5 -0.5h34v-3q0 -17 -4 -17h-55q-3 0 -8 0.5t-8 0.5h-22q-24 0 -24 6v319q0 10 -0.5 30t-0.5 30z" />
<glyph unicode="&#x25fc;" horiz-adv-x="1320" d="M0 0v1320h1320v-1320h-1320z" />
<glyph unicode="&#xfb01;" horiz-adv-x="1158" d="M-2 1266q0 62 12 62h40v-22q0 -14 1 -46t1 -48v-12v-104v-138v-26q0 -132 7 -377t7 -381q0 -26 3 -88t3 -86q0 -2 1 -4t4 -4t6 -3t8 -2t10 -1h12t13 -1t15 -1h15q8 0 38 -1t46 -1h20q0 -26 -6 -32q-10 -10 -66 -10q-16 0 -46 1t-38 1q-84 4 -84 18q0 24 -3 86t-3 88 q0 136 -7 380t-7 376v28v136v106v12q0 16 -1 48t-1 46zM272 1138q4 2 12 2q28 2 84 2h56q24 0 70 2t72 2h8h48q0 -40 -12 -40h-88h-8q-26 0 -72 -2t-70 -2h-54h-44q0 24 -2 36zM290 624q54 6 114 6q14 0 46 -1t48 -1q32 0 96 4h24q0 -40 -10 -40h-66q-64 -4 -96 -4 q-16 0 -48 1t-46 1q-40 0 -60 -2q0 22 -2 36zM748 1214q0 124 14 124h40q-4 -44 -4 -82q0 -120 18 -138q6 -6 38 -6q12 0 30 1t20 1h8q6 0 24 -1t30 -1h24q0 -24 -4 -28q-12 -12 -70 -12q-12 0 -31 1t-25 1h-8q-2 0 -20 -1t-30 -1q-32 0 -38 6q-16 16 -16 136zM772 864 q0 84 8 86h42h2v-44q0 -22 1 -49t1 -46v-21v-46q18 -412 20 -514q6 -254 12 -294q8 -18 80 -18q44 0 66 2h14v-26q-8 -14 -50 -14h-16q-22 -2 -66 -2q-72 0 -80 18q-6 40 -12 292q-2 102 -20 514v48v20t-1 45t-1 49z" />
<glyph unicode="&#xfb02;" horiz-adv-x="1708" d="M-2 1266q0 62 12 62h40v-22q0 -14 1 -46t1 -48v-12v-104v-138v-26q0 -132 7 -377t7 -381q0 -26 3 -88t3 -86q0 -2 1 -4t4 -4t6 -3t8 -2t10 -1h12t13 -1t15 -1h15q8 0 38 -1t46 -1h20q0 -26 -6 -32q-10 -10 -66 -10q-16 0 -46 1t-38 1q-84 4 -84 18q0 24 -3 86t-3 88 q0 136 -7 380t-7 376v28v136v106v12q0 16 -1 48t-1 46zM272 1138q4 2 12 2q28 2 84 2h56q24 0 70 2t72 2h8h48q0 -40 -12 -40h-88h-8q-26 0 -72 -2t-70 -2h-54h-44q0 24 -2 36zM290 624q54 6 114 6q14 0 46 -1t48 -1q32 0 96 4h24q0 -40 -10 -40h-66q-64 -4 -96 -4 q-16 0 -48 1t-46 1q-40 0 -60 -2q0 22 -2 36zM770 1078v16v36q0 146 8 146h46q-2 -30 -2 -104v-38v-16q0 -12 1 -35t1 -33v-54q0 -26 1 -72t1 -68q0 -50 -1 -143t-1 -143q0 -20 1 -62t1 -64q0 -42 3 -122t3 -124v-150q0 -8 53 -17t136 -16t85 -7q60 -10 94 -10q36 0 111 -4 t113 -6q36 -2 144 -2q-4 -42 -16 -42q-132 0 -180 2q-38 2 -113 6t-111 4q-22 0 -94 12q-6 0 -86 7t-134 15t-54 16v152q0 44 -3 124t-3 122q0 22 -1 63t-1 61q0 48 1 144t1 144q0 22 -1 67t-1 71v56q0 10 -1 33t-1 35z" />
</font>
</defs>
</svg>
